<svg version="1.1" id="Layer_1" xmlns="http://www.w3.org/2000/svg" xmlns:xlink="http://www.w3.org/1999/xlink" x="0" y="0" viewBox="0 0 138 48" xml:space="preserve"><style>.st0{clip-path:url(#SVGID_2_);fill:#fff}</style><defs><path id="SVGID_1_" d="M111.9 46h6v-.9H113V39h-1.1z"/></defs><clipPath id="SVGID_2_"><use xlink:href="#SVGID_1_" overflow="visible"/></clipPath><path class="st0" d="M23.4 46h1.2L21 39h-1.3l-3.6 7h1.2l.8-1.6h4.5z"/><path class="st0" d="M18.5 43.5l1.8-3.7 1.8 3.7zm9.7 2.5h1.1v-2.6h2.8c1.8 0 2.8-.8 2.8-2.3 0-.8-.3-1.3-.8-1.7-.5-.3-1.3-.5-2.2-.5h-3.7V46z"/><path class="st0" d="M29.3 42.6v-2.7H32c1.2 0 1.8.3 1.8 1.3s-.7 1.4-1.8 1.4h-2.7zM43.6 46h1.2l-3.5-7H40l-3.6 7h1.2l.8-1.6h4.4l.8 1.6z"/><path class="st0" d="M38.8 43.5l1.8-3.7 1.8 3.7zm8.9 2.5h1.1v-2.9h2.4c1 0 1.6.4 1.9 1.3l.2.8c.1.2.1.4.2.5 0 .1.1.2.2.2h1.2c-.2-.2-.3-.4-.4-.9l-.2-.8c-.2-.9-.8-1.4-1.4-1.5.9-.1 1.7-.7 1.7-1.8 0-.7-.2-1.2-.7-1.5-.5-.3-1.1-.5-1.9-.5h-4.2V46z"/><path class="st0" d="M48.8 42.3v-2.5h2.9c.9 0 1.6.2 1.6 1.1 0 1-.6 1.3-1.7 1.3h-2.8zm12 3.7h1.1v-6.1H65V39h-7.3v.9h3.1zm7.8 0h1.1v-3.1h5V46h1.1v-7h-1.1v3h-5v-3h-1.1zm11.1-3.5c0 2.2 1.8 3.7 4.3 3.7s4.3-1.5 4.3-3.7-1.7-3.7-4.3-3.7c-2.6 0-4.3 1.5-4.3 3.7z"/><path class="st0" d="M87.1 42.5c0 1.7-1.3 2.8-3.1 2.8s-3.1-1-3.1-2.8c0-1.7 1.3-2.8 3.1-2.8 1.8.1 3.1 1.1 3.1 2.8zm6.8 3.5H95v-6.1h3.1V39h-7.3v.9h3.1zm7.8 0h6.3v-.9h-5.2v-2.2h4.3V42h-4.3v-2.1h5.1V39h-6.2z"/><defs><path id="SVGID_3_" d="M0 0h138v28H0z"/></defs><clipPath id="SVGID_4_"><use xlink:href="#SVGID_3_" overflow="visible"/></clipPath></svg>