<svg width="83" height="17" fill="none" xmlns="http://www.w3.org/2000/svg"><g clip-path="url(#clip0)" fill="#fff"><path d="M62.604 14.32c-.021.042-.042.062-.063.104-.02.125-.02.27-.062.395-.145.52-.249.686-.913.686h-6.66c-.084 0-.146 0-.229-.021-.104-.02-.145-.083-.145-.166 3.009-2.64 6.37-6.152 7.553-9.29.02-.083.062-.146.083-.229.166-.478.29-.956.332-1.454 0-.084.02-.188.02-.27v-.541c-.02-.25-.04-.499-.103-.748-.25-1.08-.83-1.87-1.785-2.307 0 0-.02 0-.02-.02a2.205 2.205 0 00-.52-.188C59.015-.04 57.957.105 56.94.562c0 0-.02 0-.02.02-.022 0-.042.022-.063.022a6.489 6.489 0 00-1.868 1.371c-.85.832-1.535 1.83-1.93 2.951h.83C54.554 3.16 55.965 1.31 57.25.832a3.27 3.27 0 011.66-.228c1.411.415 1.432 2.14 1.453 3.075.083 3.243-4.379 9.56-7.221 12.532l-.27.27a1.358 1.358 0 00-.145.167h9.939v-2.183c-.02-.062-.062-.103-.062-.145zM2.262.438H0v16.251h1.909v-4.24h.332c3.901 0 6.121-2.576 6.121-5.985.021-3.45-2.22-6.027-6.1-6.027zm0 11.783h-.353V.666h.332c2.656 0 4.212 2.41 4.212 5.798.021 3.388-1.535 5.757-4.191 5.757zM81.465 3.72c-2.614-3.823-7.677-4.946-11.703-2.182-4.025 2.764-4.814 7.898-2.2 11.743 2.636 3.865 7.7 4.966 11.725 2.202C83.312 12.7 84.1 7.586 81.465 3.721zm-2.324 11.556c-3.091 2.12-7.345.582-9.897-3.16-2.553-3.74-2.449-8.27.643-10.39 3.092-2.12 7.345-.582 9.898 3.158 2.552 3.741 2.448 8.272-.644 10.392zM40.836 8.73h-6.723v.872h5.27c.187 2.058-.415 3.949-1.846 5.237a6.214 6.214 0 01-1.971 1.123c-2.885.935-6.309-.645-8.487-3.845-2.553-3.741-2.449-8.272.643-10.391 3.092-2.12 7.346-.582 9.898 3.159h1.307c0 .02.02.02.02.041h.872c0-.02-.02-.02-.02-.041h.145a7.286 7.286 0 00-.664-1.164C36.956.27 32.598-.976 28.822.832c-2.905 1.31-4.96 4.24-4.98 7.586 0 2.95 1.473 5.549 3.756 7.045 2.739 1.933 6.432 2.099 9.524-.021a8.87 8.87 0 002.013-1.912l.166 3.117h1.347l.187-7.918zM16.912.438h-1.91l.582 2.223a.23.23 0 010 .166L11.932 16.69h.435l3.424-13.196 3.445 13.196h1.909L16.912.437zM44.88.459v16.21h3.798v-.415H46.79V9.042h1.888v-.416H46.79V.875h1.888V.459H44.88z"/></g><defs><clipPath id="clip0"><path fill="#fff" d="M0 0h83v17H0z"/></clipPath></defs></svg>