<svg width="1920" height="1080" viewBox="0 0 1920 1080" fill="none" xmlns="http://www.w3.org/2000/svg">
<g style="mix-blend-mode:overlay">
<path d="M2083.85 277.979L2222.71 778.753L1403.9 780.958L486.185 112.995L533.017 -308.981L1347.34 279.904L2083.85 277.979Z" stroke="#F3F4EE" stroke-miterlimit="10"/>
<path d="M2083.85 277.979L2222.71 778.753L1403.9 780.958L486.185 112.995L533.017 -308.981L1347.34 279.904L2083.85 277.979Z" stroke="#F3F4EE" stroke-miterlimit="10"/>
<path d="M1002.35 762.08L1141.3 1262.85L322.396 1264.96L-595.216 596.997L-548.385 175.021L265.939 764.006L1002.35 762.08Z" stroke="#F3F4EE" stroke-miterlimit="10"/>
<path d="M1002.35 762.08L1141.3 1262.85L322.396 1264.96L-595.216 596.997L-548.385 175.021L265.939 764.006L1002.35 762.08Z" stroke="#F3F4EE" stroke-miterlimit="10"/>
<path d="M1002.35 762.08L2083.85 277.978L2222.71 778.752L1141.3 1262.85L1002.35 762.08Z" stroke="#F3F4EE" stroke-miterlimit="10"/>
<path d="M1002.35 762.08L2083.85 277.978L2222.71 778.752L1141.3 1262.85L1002.35 762.08Z" stroke="#F3F4EE" stroke-miterlimit="10"/>
<path d="M1141.3 1262.85L322.396 1264.96L1403.9 780.956L2222.71 778.751L1141.3 1262.85Z" stroke="#F3F4EE" stroke-miterlimit="10"/>
<path d="M1141.3 1262.85L322.396 1264.96L1403.9 780.956L2222.71 778.751L1141.3 1262.85Z" stroke="#F3F4EE" stroke-miterlimit="10"/>
<path d="M322.396 1264.96L-595.216 596.996L486.185 112.993L1403.9 780.956L322.396 1264.96Z" stroke="#F3F4EE" stroke-miterlimit="10"/>
<path d="M322.396 1264.96L-595.216 596.996L486.185 112.993L1403.9 780.956L322.396 1264.96Z" stroke="#F3F4EE" stroke-miterlimit="10"/>
<path d="M-595.216 596.997L-548.385 175.021L533.017 -308.982L486.185 112.994L-595.216 596.997Z" stroke="#F3F4EE" stroke-miterlimit="10"/>
<path d="M-595.216 596.997L-548.385 175.021L533.017 -308.982L486.185 112.994L-595.216 596.997Z" stroke="#F3F4EE" stroke-miterlimit="10"/>
<path d="M-548.385 175.021L533.017 -308.981L1347.34 279.904L265.939 764.006L-548.385 175.021Z" stroke="#F3F4EE" stroke-miterlimit="10"/>
<path d="M-548.385 175.021L533.017 -308.981L1347.34 279.904L265.939 764.006L-548.385 175.021Z" stroke="#F3F4EE" stroke-miterlimit="10"/>
<path d="M265.939 764.006L1347.34 279.903L2083.85 277.977L1002.35 762.08L265.939 764.006Z" stroke="#F3F4EE" stroke-miterlimit="10"/>
<path d="M265.939 764.006L1347.34 279.903L2083.85 277.977L1002.35 762.08L265.939 764.006Z" stroke="#F3F4EE" stroke-miterlimit="10"/>
</g>
</svg>
