<?xml version="1.0" encoding="utf-8"?>
<!-- Generator: Adobe Illustrator 24.0.0, SVG Export Plug-In . SVG Version: 6.00 Build 0)  -->
<svg version="1.1" id="Layer_1" xmlns="http://www.w3.org/2000/svg" xmlns:xlink="http://www.w3.org/1999/xlink" x="0px" y="0px"
	 viewBox="0 0 2884.4 1617.7" style="enable-background:new 0 0 2884.4 1617.7;" xml:space="preserve">
<style type="text/css">
	.st0{fill:none;stroke:#E3DFD9;stroke-miterlimit:10;}
</style>
<g>
	<path class="st0" d="M2723.7,611.9l138.9,500.8l-818.8,2.2l-917.8-668l46.8-422l814.3,588.9L2723.7,611.9z"/>
	<path class="st0" d="M2723.7,611.9l138.9,500.8l-818.8,2.2l-917.8-668l46.8-422l814.3,588.9L2723.7,611.9z"/>
	<path class="st0" d="M1642.1,1096l139,500.8l-818.9,2.1l-917.6-668l46.8-422l814.3,589L1642.1,1096z"/>
	<path class="st0" d="M1642.1,1096l139,500.8l-818.9,2.1l-917.6-668l46.8-422l814.3,589L1642.1,1096z"/>
	<path class="st0" d="M1642.1,1096l1081.6-484.1l138.9,500.8l-1081.4,484.1L1642.1,1096z"/>
	<path class="st0" d="M1642.1,1096l1081.6-484.1l138.9,500.8l-1081.4,484.1L1642.1,1096z"/>
	<path class="st0" d="M1781.1,1596.7l-818.9,2.1l1081.5-484l818.8-2.2L1781.1,1596.7z"/>
	<path class="st0" d="M1781.1,1596.7l-818.9,2.1l1081.5-484l818.8-2.2L1781.1,1596.7z"/>
	<path class="st0" d="M962.2,1598.9l-917.6-668l1081.4-484l917.7,668L962.2,1598.9z"/>
	<path class="st0" d="M962.2,1598.9l-917.6-668l1081.4-484l917.7,668L962.2,1598.9z"/>
	<path class="st0" d="M44.6,930.9l46.8-422l1081.4-484l-46.8,422L44.6,930.9z"/>
	<path class="st0" d="M44.6,930.9l46.8-422l1081.4-484l-46.8,422L44.6,930.9z"/>
	<path class="st0" d="M91.4,508.9l1081.4-484l814.3,588.9L905.7,1097.9L91.4,508.9z"/>
	<path class="st0" d="M91.4,508.9l1081.4-484l814.3,588.9L905.7,1097.9L91.4,508.9z"/>
	<path class="st0" d="M905.7,1097.9l1081.4-484.1l736.5-1.9L1642.1,1096L905.7,1097.9z"/>
	<path class="st0" d="M905.7,1097.9l1081.4-484.1l736.5-1.9L1642.1,1096L905.7,1097.9z"/>
</g>
</svg>
