<svg width="1920" height="1080" fill="none" xmlns="http://www.w3.org/2000/svg"><g style="mix-blend-mode:overlay" stroke="#F3F4EE" stroke-miterlimit="10"><path d="M2083.85 277.979l138.86 500.774-818.81 2.205-917.715-667.963 46.832-421.976 814.323 588.885 736.51-1.925z"/><path d="M2083.85 277.979l138.86 500.774-818.81 2.205-917.715-667.963 46.832-421.976 814.323 588.885 736.51-1.925zM1002.35 762.08l138.95 500.77-818.904 2.11-917.612-667.963 46.831-421.976 814.324 588.985 736.411-1.926z"/><path d="M1002.35 762.08l138.95 500.77-818.904 2.11-917.612-667.963 46.831-421.976 814.324 588.985 736.411-1.926z"/><path d="M1002.35 762.08l1081.5-484.102 138.86 500.774L1141.3 1262.85l-138.95-500.77z"/><path d="M1002.35 762.08l1081.5-484.102 138.86 500.774L1141.3 1262.85l-138.95-500.77z"/><path d="M1141.3 1262.85l-818.904 2.11L1403.9 780.956l818.81-2.205L1141.3 1262.85z"/><path d="M1141.3 1262.85l-818.904 2.11L1403.9 780.956l818.81-2.205L1141.3 1262.85z"/><path d="M322.396 1264.96l-917.612-667.964L486.185 112.993 1403.9 780.956 322.396 1264.96z"/><path d="M322.396 1264.96l-917.612-667.964L486.185 112.993 1403.9 780.956 322.396 1264.96z"/><path d="M-595.216 596.997l46.831-421.976L533.017-308.982l-46.832 421.976-1081.401 484.003z"/><path d="M-595.216 596.997l46.831-421.976L533.017-308.982l-46.832 421.976-1081.401 484.003z"/><path d="M-548.385 175.021L533.017-308.981l814.323 588.885L265.939 764.006l-814.324-588.985z"/><path d="M-548.385 175.021L533.017-308.981l814.323 588.885L265.939 764.006l-814.324-588.985z"/><path d="M265.939 764.006L1347.34 279.903l736.51-1.926-1081.5 484.103-736.411 1.926z"/><path d="M265.939 764.006L1347.34 279.903l736.51-1.926-1081.5 484.103-736.411 1.926z"/></g></svg>