<svg version="1.1" id="Layer_1" xmlns="http://www.w3.org/2000/svg" x="0" y="0" viewBox="0 0 2884.4 1617.7" xml:space="preserve"><style>.st0{fill:none;stroke:#e3dfd9;stroke-miterlimit:10}</style><path class="st0" d="M2723.7 611.9l138.9 500.8-818.8 2.2-917.8-668 46.8-422 814.3 588.9 736.6-1.9z"/><path class="st0" d="M2723.7 611.9l138.9 500.8-818.8 2.2-917.8-668 46.8-422 814.3 588.9 736.6-1.9zM1642.1 1096l139 500.8-818.9 2.1-917.6-668 46.8-422 814.3 589 736.4-1.9z"/><path class="st0" d="M1642.1 1096l139 500.8-818.9 2.1-917.6-668 46.8-422 814.3 589 736.4-1.9z"/><path class="st0" d="M1642.1 1096l1081.6-484.1 138.9 500.8-1081.4 484.1-139.1-500.8z"/><path class="st0" d="M1642.1 1096l1081.6-484.1 138.9 500.8-1081.4 484.1-139.1-500.8z"/><path class="st0" d="M1781.1 1596.7l-818.9 2.1 1081.5-484 818.8-2.2-1081.4 484.1z"/><path class="st0" d="M1781.1 1596.7l-818.9 2.1 1081.5-484 818.8-2.2-1081.4 484.1z"/><path class="st0" d="M962.2 1598.9l-917.6-668 1081.4-484 917.7 668-1081.5 484z"/><path class="st0" d="M962.2 1598.9l-917.6-668 1081.4-484 917.7 668-1081.5 484zm-917.6-668l46.8-422 1081.4-484-46.8 422-1081.4 484z"/><path class="st0" d="M44.6 930.9l46.8-422 1081.4-484-46.8 422-1081.4 484z"/><path class="st0" d="M91.4 508.9l1081.4-484 814.3 588.9-1081.4 484.1-814.3-589z"/><path class="st0" d="M91.4 508.9l1081.4-484 814.3 588.9-1081.4 484.1-814.3-589z"/><path class="st0" d="M905.7 1097.9l1081.4-484.1 736.5-1.9L1642.1 1096l-736.4 1.9z"/><path class="st0" d="M905.7 1097.9l1081.4-484.1 736.5-1.9L1642.1 1096l-736.4 1.9z"/></svg>