<svg width="1920" height="1428" viewBox="0 0 1920 1428" fill="none" xmlns="http://www.w3.org/2000/svg">
<path d="M2303.85 434.979L2442.71 935.753L1623.9 937.958L706.185 269.995L753.016 -151.981L1567.34 436.904L2303.85 434.979Z" stroke="#F3F4EE" stroke-miterlimit="10"/>
<path d="M2303.85 434.979L2442.71 935.753L1623.9 937.958L706.185 269.995L753.016 -151.981L1567.34 436.904L2303.85 434.979Z" stroke="#F3F4EE" stroke-miterlimit="10"/>
<path d="M1222.35 919.08L1361.31 1419.85L542.397 1421.96L-375.216 753.997L-328.384 332.021L485.94 921.006L1222.35 919.08Z" stroke="#F3F4EE" stroke-miterlimit="10"/>
<path d="M1222.35 919.08L1361.31 1419.85L542.397 1421.96L-375.216 753.997L-328.384 332.021L485.94 921.006L1222.35 919.08Z" stroke="#F3F4EE" stroke-miterlimit="10"/>
<path d="M1222.35 919.08L2303.85 434.978L2442.71 935.752L1361.3 1419.85L1222.35 919.08Z" stroke="#F3F4EE" stroke-miterlimit="10"/>
<path d="M1222.35 919.08L2303.85 434.978L2442.71 935.752L1361.3 1419.85L1222.35 919.08Z" stroke="#F3F4EE" stroke-miterlimit="10"/>
<path d="M1361.3 1419.86L542.396 1421.96L1623.9 937.958L2442.71 935.753L1361.3 1419.86Z" stroke="#F3F4EE" stroke-miterlimit="10"/>
<path d="M1361.3 1419.86L542.396 1421.96L1623.9 937.958L2442.71 935.753L1361.3 1419.86Z" stroke="#F3F4EE" stroke-miterlimit="10"/>
<path d="M542.397 1421.96L-375.215 753.996L706.186 269.993L1623.9 937.956L542.397 1421.96Z" stroke="#F3F4EE" stroke-miterlimit="10"/>
<path d="M542.397 1421.96L-375.215 753.996L706.186 269.993L1623.9 937.956L542.397 1421.96Z" stroke="#F3F4EE" stroke-miterlimit="10"/>
<path d="M-375.216 753.999L-328.385 332.023L753.017 -151.98L706.185 269.996L-375.216 753.999Z" stroke="#F3F4EE" stroke-miterlimit="10"/>
<path d="M-375.216 753.999L-328.385 332.023L753.017 -151.98L706.185 269.996L-375.216 753.999Z" stroke="#F3F4EE" stroke-miterlimit="10"/>
<path d="M485.94 921.008L1567.34 436.905L2303.85 434.979L1222.35 919.082L485.94 921.008Z" stroke="#F3F4EE" stroke-miterlimit="10"/>
<path d="M485.94 921.008L1567.34 436.905L2303.85 434.979L1222.35 919.082L485.94 921.008Z" stroke="#F3F4EE" stroke-miterlimit="10"/>
</svg>
