<svg width="28" height="28" viewBox="0 0 28 28" fill="none" xmlns="http://www.w3.org/2000/svg">
<path d="M23.4347 4.2607H6.46242V0.913281C6.46242 0.409063 5.54914 0 5.04492 0C4.5407 0 3.65203 0.408516 3.65203 0.913281V4.35313C1.57117 4.77695 0 6.62156 0 8.82602V23.4347C0 25.952 2.04805 28 4.56531 28H23.4347C25.952 28 28 25.952 28 23.4347V8.82602C28 6.30875 25.952 4.2607 23.4347 4.2607ZM1.82602 20.6954H15.3092C15.4465 21.3697 15.7336 21.9904 16.1328 22.5214H1.82602V20.6954ZM17.0434 19.781C17.0445 18.2711 18.2727 17.0434 19.7827 17.0434C21.2931 17.0434 22.522 18.2722 22.522 19.7827C22.522 21.2931 21.2931 22.522 19.7827 22.522C18.2727 22.522 17.0445 21.2942 17.0434 19.7843C17.0434 19.7837 17.0434 19.7832 17.0434 19.7827C17.0434 19.7821 17.0434 19.7816 17.0434 19.781ZM26.174 22.522H23.4325C23.8323 21.9909 24.1188 21.3702 24.2561 20.6959H26.174V22.522ZM24.8834 15.2173H3.11664V9.50359C3.11664 8.15336 4.21531 7.05469 5.56555 7.05469H22.435C23.7852 7.05469 24.8839 8.15336 24.8839 9.50359L24.8834 15.2173Z" fill="#C3C1BB"/>
<path d="M21.6713 9.49316H6.32813C5.3618 9.49316 4.57812 10.2768 4.57812 11.2432V11.4821C4.57812 12.4485 5.3618 13.2321 6.32813 13.2321H21.6707C22.637 13.2321 23.4207 12.4485 23.4207 11.4821V11.2432C23.4207 10.2763 22.6376 9.49316 21.6713 9.49316ZM9.94844 12.3779H7.51922V10.3468H9.94844V12.3779ZM15.2143 12.3779H12.7851V10.3468H15.2143V12.3779ZM20.4802 12.3779H18.0509V10.3468H20.4802V12.3779Z" fill="#C3C1BB"/>
</svg>
