<svg width="20" height="20" viewBox="0 0 20 20" fill="none" xmlns="http://www.w3.org/2000/svg">
<path d="M19.5242 3.72656H0V8.84004H19.5242V3.72656Z" fill="#C3C1BB"/>
<path d="M8.83232 10.7031H1.39453V20.0004H8.83232V10.7031Z" fill="#C3C1BB"/>
<path d="M18.1292 10.7031H10.6914V20.0004H18.1292V10.7031Z" fill="#C3C1BB"/>
<path d="M13.5733 2.14999L9.7614 5.96185L7.85547 4.05592L11.6673 0.244052C11.9927 -0.0813508 12.5506 -0.0813508 12.876 0.244052L13.5733 0.941345C13.8987 1.26675 13.8987 1.7781 13.5733 2.14999Z" fill="#C3C1BB"/>
<path d="M9.761 5.96185L5.94913 2.14999C5.62373 1.82458 5.62373 1.26675 5.94913 0.941345L6.64642 0.244052C6.97183 -0.0813508 7.52966 -0.0813508 7.85506 0.244052L11.6669 4.05592L9.761 5.96185Z" fill="#C3C1BB"/>
</svg>
