<svg width="23" height="16" viewBox="0 0 23 16" fill="none" xmlns="http://www.w3.org/2000/svg">
<path d="M23 6.60507V14.6647H21.5689V16H18.6811V14.6647H4.31889V16H1.43111V14.6647H0V6.60507H23ZM1.43111 0V5.34128H3.24556C3.24556 5.31744 3.24556 5.26975 3.24556 5.2459C3.24556 4.22057 4.19111 3.36215 5.36667 3.36215H8.51C9.68556 3.36215 10.6311 4.19672 10.6311 5.2459C10.6311 5.26975 10.6311 5.31744 10.6311 5.34128H12.42C12.42 5.31744 12.42 5.26975 12.42 5.2459C12.42 4.22057 13.3656 3.36215 14.5411 3.36215H17.6844C18.86 3.36215 19.8056 4.19672 19.8056 5.2459C19.8056 5.26975 19.8056 5.31744 19.8056 5.34128H21.5944V0.023845L1.43111 0Z" fill="#C3C1BB"/>
</svg>
