<svg width="28" height="27" viewBox="0 0 28 27" fill="none" xmlns="http://www.w3.org/2000/svg">
<g clip-path="url(#clip0)">
<path d="M27.0525 19.8282C27.1322 19.449 27.1998 18.9891 27.2565 18.4697C27.2607 18.4691 27.265 18.4685 27.2692 18.4685C27.2982 18.1631 27.3036 17.8323 27.3489 17.5183C27.347 17.5183 27.3458 17.5189 27.344 17.5189C27.5408 14.9683 27.5456 11.4792 27.4672 8.72312L27.3754 6.42813C27.3151 5.28994 27.2112 3.80422 27.0513 2.99309L27.9675 0.638516C28.1124 0.266154 27.7406 -0.117379 27.3778 0.0321865L25.0843 0.975504C23.4245 0.644722 19.8761 0.46785 15.5214 0.501983C12.8808 0.522463 10.3995 0.618657 8.66609 0.757672C8.6341 0.763258 8.6003 0.766981 8.56469 0.767602C8.55624 0.767602 8.54719 0.768222 8.53874 0.768222C8.50615 0.770705 8.47295 0.773808 8.44036 0.77629C8.44036 0.774428 8.44096 0.772567 8.44096 0.770705C8.17539 0.778773 7.91405 0.803597 7.65271 0.84766C7.60744 0.855107 7.56217 0.85821 7.51751 0.857589C7.5169 0.861313 7.5169 0.865037 7.5163 0.86876C7.229 0.902893 6.98275 0.938888 6.78599 0.976125L4.49244 0.0328072C4.1303 -0.116758 3.7579 0.266154 3.90275 0.639137L4.81776 2.99184C4.74533 3.33566 4.68075 3.75891 4.62522 4.25415C3.89551 4.31559 3.30945 4.38448 2.91653 4.45895L0.621774 3.51501C0.259031 3.36607 -0.112765 3.74836 0.0320902 4.12134L0.947095 6.47405C0.482953 8.68092 0.472693 13.3696 0.490196 15.3158C0.522789 18.8588 0.708687 22.0816 0.948302 23.3085L0.0320902 25.6631C-0.112765 26.0361 0.259031 26.4184 0.621774 26.2694L2.91532 25.3261C4.57513 25.6569 8.12349 25.8338 12.4782 25.7996C16.3513 25.7699 19.8827 25.5768 21.213 25.3255L23.5078 26.2694C23.8711 26.419 24.2423 26.0355 24.0974 25.6631L23.1824 23.3104C23.2585 22.9492 23.3225 22.5204 23.3762 22.0493C24.1192 21.9873 24.6926 21.9178 25.0843 21.8433L27.3784 22.7872C27.7418 22.9368 28.113 22.5533 27.9681 22.1809L27.0525 19.8282ZM25.5013 3.77815L25.8876 8.98005C25.9938 12.703 25.9154 17.2589 25.5013 19.0456C25.4814 19.1313 25.4875 19.2212 25.5194 19.3032L26.0445 20.6536L24.7312 20.1137C24.6551 20.082 24.5712 20.0746 24.491 20.0926C24.1958 20.1571 23.7033 20.2204 23.0575 20.2781C23.2265 18.1613 23.2283 15.5125 23.2162 14.2099C23.1867 10.9703 23.0165 8.0237 22.7974 6.90165L23.6351 4.74877C23.7679 4.40806 23.4275 4.05804 23.0961 4.19457L20.9993 5.05659C19.4814 4.75374 16.2372 4.59238 12.2555 4.62341C10.1708 4.63955 8.19531 4.70719 6.67372 4.80711C6.72382 4.39379 6.78116 4.04873 6.84332 3.77877C6.86324 3.69313 6.85721 3.60314 6.82522 3.52122L6.30012 2.17079L7.61347 2.71071C7.68952 2.74236 7.77342 2.74981 7.85369 2.73181C10.0953 2.24091 21.3295 2.03984 24.491 2.73181C24.5712 2.74919 24.6551 2.74174 24.7312 2.71071L26.0445 2.17079L25.5194 3.52122C25.4875 3.60252 25.4814 3.69251 25.5013 3.77815Z" fill="#C3C1BB"/>
</g>
<defs>
<clipPath id="clip0">
<rect width="28" height="26.303" fill="white"/>
</clipPath>
</defs>
</svg>
