<svg width="74" height="70" viewBox="0 0 74 70" fill="none" xmlns="http://www.w3.org/2000/svg">
<g clip-path="url(#clip0)">
<path d="M5.77637 38.683H4.05907V36.9734C4.05907 36.5382 3.71561 36.1963 3.27848 36.1963C2.84135 36.1963 2.49789 36.5382 2.49789 36.9734V38.683H0.780591C0.34346 38.683 0 39.0249 0 39.4601C0 39.8952 0.34346 40.2371 0.780591 40.2371H2.49789V41.9467C2.49789 42.3819 2.84135 42.7238 3.27848 42.7238C3.71561 42.7238 4.05907 42.3819 4.05907 41.9467V40.2371H5.77637C6.2135 40.2371 6.55696 39.8952 6.55696 39.4601C6.55696 39.0249 6.2135 38.683 5.77637 38.683Z" fill="white"/>
<path d="M73.2197 46.1429H71.5024V44.4333C71.5024 43.9982 71.159 43.6562 70.7218 43.6562C70.2847 43.6562 69.9413 43.9982 69.9413 44.4333V46.1429H68.224C67.7868 46.1429 67.4434 46.4848 67.4434 46.92C67.4434 47.3552 67.7868 47.6971 68.224 47.6971H69.9413V49.4067C69.9413 49.8419 70.2847 50.1838 70.7218 50.1838C71.159 50.1838 71.5024 49.8419 71.5024 49.4067V47.6971H73.2197C73.6569 47.6971 74.0003 47.3552 74.0003 46.92C74.0003 46.4848 73.6569 46.1429 73.2197 46.1429Z" fill="white"/>
<path d="M32.0046 29.5137H12.0215V59.3538H32.0046V29.5137Z" fill="#1C4A40"/>
<path d="M70.7222 5.89017C70.7222 3.83866 69.0361 2.16016 66.9754 2.16016C64.9146 2.16016 63.2285 3.83866 63.2285 5.89017C63.2285 7.94168 64.9146 9.62019 66.9754 9.62019C69.0361 9.62019 70.7222 7.94168 70.7222 5.89017ZM65.7264 5.89017C65.7264 5.20634 66.2884 4.64683 66.9754 4.64683C67.6623 4.64683 68.2243 5.20634 68.2243 5.89017C68.2243 6.57401 67.6623 7.13351 66.9754 7.13351C66.2884 7.13351 65.7264 6.57401 65.7264 5.89017Z" fill="#1C4A40"/>
<path d="M41.9955 55.0801H51.9871C52.3774 55.0801 52.6896 54.7693 52.6896 54.3808V24.5406C52.6896 18.6658 47.8968 13.8945 41.9955 13.8945C41.6052 13.8945 41.293 14.2054 41.293 14.5939V54.3808C41.293 54.7538 41.6052 55.0801 41.9955 55.0801ZM42.698 15.2933L43.3225 15.3865C47.8655 16.0393 51.2845 19.9714 51.2845 24.5406V53.6814H42.698V15.2933Z" fill="white"/>
<path d="M62.6818 24.5404C62.6818 13.1794 53.4084 3.9476 41.9961 3.9476H22.3096L19.2809 0.932504C18.6565 0.310835 17.8447 0 17.0172 0C16.1898 0 15.378 0.310835 14.7535 0.932504L8.29022 7.36679C7.04128 8.61012 7.04128 10.6306 8.29022 11.8739L11.3189 14.889V64.3273C11.3189 67.4512 13.8793 70 17.0172 70H56.9835C60.1214 70 62.6818 67.4512 62.6818 64.3273V24.5404ZM9.28938 10.8792C8.58685 10.1798 8.58685 9.04529 9.28938 8.34591L15.7527 1.91163C16.0805 1.58526 16.5333 1.39876 17.0172 1.39876C17.5012 1.39876 17.9539 1.58526 18.2818 1.92718L21.0139 4.64698L12.0214 13.599L9.28938 10.8792ZM12.724 25.2398H31.302V53.6812H12.724V25.2398ZM61.2767 64.3273C61.2767 66.6896 59.3565 68.6012 56.9835 68.6012H17.0172C14.6442 68.6012 12.724 66.6896 12.724 64.3273V55.0799H32.0046C32.3949 55.0799 32.7071 54.7691 32.7071 54.3806V24.5404C32.7071 24.1519 32.3949 23.841 32.0046 23.841H12.724V14.8734L22.3096 5.33082H41.9961C52.6278 5.33082 61.2767 13.9409 61.2767 24.5249V64.3273Z" fill="white"/>
</g>
<defs>
<clipPath id="clip0">
<rect width="74" height="70" fill="white"/>
</clipPath>
</defs>
</svg>
