<svg width="63" height="65" viewBox="0 0 63 65" fill="none" xmlns="http://www.w3.org/2000/svg">
<g clip-path="url(#clip0)">
<path d="M60.162 44.0868C60.162 43.776 59.9066 43.5216 59.5944 43.5216H57.8917V41.826C57.8917 41.5151 57.6363 41.2607 57.3242 41.2607C57.012 41.2607 56.7566 41.5151 56.7566 41.826V43.5216H55.0539C54.7417 43.5216 54.4863 43.776 54.4863 44.0868C54.4863 44.3977 54.7417 44.652 55.0539 44.652H56.7566V46.3477C56.7566 46.6586 57.012 46.9129 57.3242 46.9129C57.6363 46.9129 57.8917 46.6586 57.8917 46.3477V44.652H59.5944C59.9066 44.652 60.162 44.3977 60.162 44.0868Z" fill="#EFEDEB"/>
<path d="M5.67568 30.5214C5.67568 30.2105 5.42027 29.9562 5.10811 29.9562H3.40541V28.2605C3.40541 27.9497 3.15 27.6953 2.83784 27.6953C2.52568 27.6953 2.27027 27.9497 2.27027 28.2605V29.9562H0.567568C0.255405 29.9562 0 30.2105 0 30.5214C0 30.8323 0.255405 31.0866 0.567568 31.0866H2.27027V32.7823C2.27027 33.0931 2.52568 33.3475 2.83784 33.3475C3.15 33.3475 3.40541 33.0931 3.40541 32.7823V31.0866H5.10811C5.42027 31.0866 5.67568 30.8323 5.67568 30.5214Z" fill="#EFEDEB"/>
<path d="M39.1627 18.3618H50.514C51.7627 18.3618 52.7843 17.3444 52.7843 16.101C52.7843 14.8575 51.7627 13.8401 50.514 13.8401H43.7032V9.31836H16.46V13.8401H9.64918C8.40053 13.8401 7.37891 14.8575 7.37891 16.101C7.37891 17.3444 8.40053 18.3618 9.64918 18.3618H21.0005V22.8836H25.5411V18.3618H34.6221V22.8836H39.1627V18.3618Z" fill="#1C4A40"/>
<path d="M8.51394 52.2751C8.51394 50.4099 6.98151 48.8838 5.10853 48.8838C3.23556 48.8838 1.70312 50.4099 1.70312 52.2751C1.70312 54.1403 3.23556 55.6664 5.10853 55.6664C6.98151 55.6664 8.51394 54.1403 8.51394 52.2751ZM3.9734 52.2751C3.9734 51.6534 4.48421 51.1447 5.10853 51.1447C5.73286 51.1447 6.24367 51.6534 6.24367 52.2751C6.24367 52.8968 5.73286 53.4055 5.10853 53.4055C4.48421 53.4055 3.9734 52.8968 3.9734 52.2751Z" fill="#1C4A40"/>
<path d="M59.5949 -0.855469C57.7219 -0.855469 56.1895 0.670618 56.1895 2.53584C56.1895 4.40105 57.7219 5.92714 59.5949 5.92714C61.4678 5.92714 63.0003 4.40105 63.0003 2.53584C63.0003 0.670618 61.4678 -0.855469 59.5949 -0.855469ZM59.5949 3.66627C58.9705 3.66627 58.4597 3.15757 58.4597 2.53584C58.4597 1.9141 58.9705 1.4054 59.5949 1.4054C60.2192 1.4054 60.73 1.9141 60.73 2.53584C60.73 3.15757 60.2192 3.66627 59.5949 3.66627Z" fill="#1C4A40"/>
<path d="M53.3511 12.435C53.3511 10.8806 52.0741 9.60891 50.5132 9.60891H44.27V5.65239C44.27 5.34152 44.0146 5.08717 43.7024 5.08717H35.1889V3.39152C35.1889 1.83717 33.9119 0.56543 32.3511 0.56543H27.8105C26.2497 0.56543 24.9727 1.83717 24.9727 3.39152V5.08717H16.4592C16.147 5.08717 15.8916 5.34152 15.8916 5.65239V9.60891H9.64838C8.08757 9.60891 6.81055 10.8806 6.81055 12.435C6.81055 13.9893 8.08757 15.2611 9.64838 15.2611H11.3937L15.5085 60.3796C15.7497 63.0219 17.9349 65.0002 20.6024 65.0002H43.7024C46.5261 65.0002 48.8105 62.7252 48.8105 59.9132C48.8105 57.8219 47.4909 55.9143 45.5328 55.1796L45.1355 55.0241L48.768 15.2611H50.5132C52.0741 15.2611 53.3511 13.9893 53.3511 12.435ZM26.1078 3.39152C26.1078 2.45891 26.8741 1.69586 27.8105 1.69586H32.3511C33.2876 1.69586 34.0538 2.45891 34.0538 3.39152V5.08717H26.1078V3.39152ZM17.0268 6.2176H43.1349V9.60891H17.0268V6.2176ZM45.5754 56.4372L45.618 56.4654C45.6747 56.4937 45.7457 56.5361 45.8024 56.5643C45.9301 56.6491 46.0437 56.7339 46.143 56.8046L46.1997 56.8469C46.2565 56.9035 46.3274 56.9459 46.3842 57.0024C46.4693 57.0872 46.5686 57.1719 46.6538 57.2709C46.7247 57.3556 46.7957 57.4404 46.8666 57.5393C46.9234 57.6241 47.0085 57.723 47.0653 57.8361C47.1362 57.9632 47.2072 58.0763 47.2497 58.1752L47.2781 58.2317C47.3207 58.3024 47.3632 58.3872 47.3916 58.4861C47.4484 58.6415 47.4909 58.7828 47.5335 58.91C47.5335 58.9382 47.5477 58.9524 47.5477 58.9806C47.5619 59.0372 47.5903 59.1078 47.6045 59.1926C47.647 59.4469 47.6754 59.7013 47.6754 59.9415C47.6754 62.1176 45.8876 63.898 43.7024 63.898C43.4328 63.898 43.1491 63.8698 42.8795 63.8132C42.6524 63.7709 42.4254 63.7002 42.2126 63.6013C42.1416 63.573 42.0707 63.5448 42.0281 63.5165C42.0139 63.5024 41.9855 63.5024 41.9714 63.4882C41.8437 63.4317 41.716 63.3611 41.5882 63.2763C41.5031 63.2198 41.4322 63.1632 41.3612 63.1209L41.3328 63.0926C41.2335 63.0219 41.1342 62.9372 41.0207 62.8382C40.9355 62.7676 40.8646 62.6828 40.7937 62.6122C40.7085 62.5132 40.6234 62.4143 40.5382 62.3154C40.4815 62.2306 40.4105 62.1459 40.3538 62.0469C40.2687 61.9198 40.2119 61.7926 40.1551 61.6937L40.1268 61.6372C40.0984 61.5665 40.0558 61.4959 40.0132 61.3969C39.9565 61.2556 39.9139 61.1002 39.8714 60.9589C39.8714 60.9306 39.8572 60.9165 39.8572 60.9024C39.843 60.8459 39.8146 60.7752 39.8146 60.7187C39.7578 60.4643 39.7437 60.21 39.7437 59.9698C39.7437 57.7937 41.5315 56.0132 43.7166 56.0132C44.1423 56.0132 44.5538 56.0839 45.0078 56.2393H45.022C45.0646 56.2535 45.093 56.2535 45.1355 56.2676C45.2916 56.2959 45.4477 56.3665 45.5754 56.4372ZM44.0146 54.8122L43.518 54.8404C43.3619 54.8404 43.1916 54.8687 42.993 54.9111H42.9646C40.7085 55.2361 38.9349 57.0448 38.6653 59.3056V59.348C38.6227 59.56 38.6085 59.7437 38.6085 59.9132C38.6085 60.21 38.6369 60.5209 38.7078 60.86C38.722 60.9165 38.7362 60.973 38.7504 61.0154C38.7646 61.0578 38.7788 61.1002 38.7788 61.1426C38.8355 61.3687 38.8923 61.5665 38.9632 61.7502C39.0058 61.8491 39.0484 61.948 39.091 62.0469C39.1761 62.2306 39.2754 62.4002 39.3889 62.5839L39.4315 62.6404C39.4741 62.7111 39.5166 62.7676 39.5592 62.8241C39.5876 62.8665 39.6018 62.8948 39.6301 62.9372C39.6301 62.9513 39.6443 62.9654 39.6443 62.9654L40.2545 63.8556L39.1619 63.8698H20.6024C18.5308 63.8698 16.8281 62.3154 16.6437 60.2665L12.543 15.2611H20.4322V19.2176C20.4322 19.5285 20.6876 19.7828 20.9997 19.7828H25.5403C25.8524 19.7828 26.1078 19.5285 26.1078 19.2176V15.2611H34.0538V19.2176C34.0538 19.5285 34.3092 19.7828 34.6214 19.7828H39.1619C39.4741 19.7828 39.7295 19.5285 39.7295 19.2176V15.2611H47.6187L44.0146 54.8122ZM21.5673 18.6524V15.2611H24.9727V18.6524H21.5673ZM35.1889 18.6524V15.2611H38.5943V18.6524H35.1889ZM9.64838 14.1306C8.7119 14.1306 7.94568 13.3676 7.94568 12.435C7.94568 11.5024 8.7119 10.7393 9.64838 10.7393H50.5132C51.4497 10.7393 52.216 11.5024 52.216 12.435C52.216 13.3676 51.4497 14.1306 50.5132 14.1306H9.64838Z" fill="#EFEDEB"/>
</g>
<defs>
<clipPath id="clip0">
<rect width="63" height="65" fill="white"/>
</clipPath>
</defs>
</svg>
