<svg width="68" height="70" viewBox="0 0 68 70" fill="none" xmlns="http://www.w3.org/2000/svg">
<path d="M64.9367 57.1053C64.9367 56.7676 64.661 56.4913 64.3241 56.4913H62.4862V54.6492C62.4862 54.3115 62.2105 54.0352 61.8736 54.0352C61.5367 54.0352 61.261 54.3115 61.261 54.6492V56.4913H59.4232C59.0862 56.4913 58.8105 56.7676 58.8105 57.1053C58.8105 57.4431 59.0862 57.7194 59.4232 57.7194H61.261V59.5615C61.261 59.8992 61.5367 60.1755 61.8736 60.1755C62.2105 60.1755 62.4862 59.8992 62.4862 59.5615V57.7194H64.3241C64.661 57.7194 64.9367 57.4431 64.9367 57.1053Z" fill="#EFEDEB"/>
<path d="M6.12613 5.52623C6.12613 5.18851 5.85045 4.91219 5.51351 4.91219H3.67568V3.07009C3.67568 2.73237 3.4 2.45605 3.06306 2.45605C2.72613 2.45605 2.45045 2.73237 2.45045 3.07009V4.91219H0.612613C0.275676 4.91219 0 5.18851 0 5.52623C0 5.86395 0.275676 6.14026 0.612613 6.14026H2.45045V7.98237C2.45045 8.32009 2.72613 8.59641 3.06306 8.59641C3.4 8.59641 3.67568 8.32009 3.67568 7.98237V6.14026H5.51351C5.85045 6.14026 6.12613 5.86395 6.12613 5.52623Z" fill="#EFEDEB"/>
<path d="M34.919 15.3506C34.919 15.3506 25.1172 29.5809 25.1172 34.9997C25.1172 40.4186 29.5127 44.8243 34.919 44.8243C40.3253 44.8243 44.7208 40.4186 44.7208 34.9997C44.7208 29.5809 34.919 15.3506 34.919 15.3506Z" fill="#1C4A40"/>
<path d="M10.414 55.8772C12.4356 55.8772 14.0896 54.2193 14.0896 52.193C14.0896 50.1667 12.4356 48.5088 10.414 48.5088C8.39234 48.5088 6.73828 50.1667 6.73828 52.193C6.73828 54.2193 8.39234 55.8772 10.414 55.8772ZM10.414 50.9649C11.0878 50.9649 11.6392 51.5176 11.6392 52.193C11.6392 52.8684 11.0878 53.4211 10.414 53.4211C9.74008 53.4211 9.18873 52.8684 9.18873 52.193C9.18873 51.5176 9.74008 50.9649 10.414 50.9649Z" fill="#1C4A40"/>
<path d="M64.3241 11.6663C66.3457 11.6663 67.9998 10.0084 67.9998 7.98206C67.9998 5.95575 66.3457 4.29785 64.3241 4.29785C62.3025 4.29785 60.6484 5.95575 60.6484 7.98206C60.6484 10.0084 62.3025 11.6663 64.3241 11.6663ZM64.3241 6.75399C64.998 6.75399 65.5493 7.30662 65.5493 7.98206C65.5493 8.6575 64.998 9.21013 64.3241 9.21013C63.6502 9.21013 63.0989 8.6575 63.0989 7.98206C63.0989 7.30662 63.6502 6.75399 64.3241 6.75399Z" fill="#1C4A40"/>
<path d="M45.3347 30.0879C45.3347 25.6515 39.1014 15.4278 35.4257 10.0857C35.3185 9.93222 35.1347 9.85547 34.9203 9.85547C34.7059 9.85547 34.5221 9.94757 34.4149 10.0857C30.7392 15.4278 24.5059 25.6515 24.5059 30.0879C24.5059 35.4147 28.4878 39.8664 33.7563 40.4651L34.3077 40.5265V49.737C34.3077 50.0748 34.5833 50.3511 34.9203 50.3511C35.2572 50.3511 35.5329 50.0748 35.5329 49.737V40.5112L36.0842 40.4498C41.3527 39.8664 45.3347 35.4147 45.3347 30.0879ZM36.2374 39.191L35.5329 39.2985V30.3489L40.25 25.6208C40.4951 25.3752 40.4951 24.9914 40.25 24.7458C40.0203 24.5156 39.6221 24.5156 39.377 24.7458L35.5329 28.5989V25.1756C35.5329 24.8379 35.2572 24.5616 34.9203 24.5616C34.5833 24.5616 34.3077 24.8379 34.3077 25.1756V33.5112L30.4482 29.6428C30.2185 29.4125 29.8203 29.4125 29.5752 29.6428C29.3302 29.8884 29.3302 30.2721 29.5752 30.5178L34.2923 35.2458V39.2985L33.5878 39.191C29.1005 38.5463 25.7158 34.6318 25.7158 30.0879C25.7158 25.7897 32.3626 15.3818 34.3996 12.2963L34.905 11.5287L35.4104 12.2963C37.4626 15.3818 44.1095 25.7897 44.1095 30.0879C44.1095 34.6318 40.7248 38.5463 36.2374 39.191Z" fill="white"/>
<path d="M27.5685 60.1754H42.2712C43.9559 60.1754 45.3343 58.7939 45.3343 57.1053V50.5965C45.3343 49.1075 46.146 47.7566 47.509 46.9583C55.2892 42.4452 60.0829 34.0482 60.037 25.0373C59.9757 11.943 49.3162 0.721491 36.2829 0.0307018C35.8388 0.0153509 35.3946 0 34.9505 0C28.4415 0 22.346 2.42544 17.6289 6.90789C12.5901 11.7127 9.80273 18.1908 9.80273 25.1754C9.80273 34.1096 14.5811 42.4452 22.3 46.943C23.6784 47.7566 24.5054 49.1382 24.5054 50.6579V57.1053C24.5054 58.7939 25.8838 60.1754 27.5685 60.1754ZM22.9126 45.8838C15.5766 41.6009 11.028 33.6645 11.028 25.1754C11.028 18.5439 13.6775 12.3728 18.4712 7.79825C22.928 3.5614 28.7631 1.22807 34.9045 1.22807C35.3181 1.22807 35.7622 1.24342 36.2063 1.25877C48.6117 1.91886 58.7505 12.5877 58.8117 25.0526C58.8577 33.6184 54.2937 41.6009 46.8964 45.8991C45.1811 46.8969 44.109 48.693 44.109 50.5965V57.1053C44.109 58.1184 43.282 58.9474 42.2712 58.9474H27.5685C26.5577 58.9474 25.7307 58.1184 25.7307 57.1053V50.6579C25.7307 48.693 24.6739 46.9123 22.9126 45.8838Z" fill="white"/>
<path d="M42.2716 63.8594H27.5689C25.8842 63.8594 24.5059 65.241 24.5059 66.9296C24.5059 68.6181 25.8842 69.9997 27.5689 69.9997H42.2716C43.9563 69.9997 45.3347 68.6181 45.3347 66.9296C45.3347 65.241 43.9563 63.8594 42.2716 63.8594ZM42.2716 68.7717H27.5689C26.5581 68.7717 25.7311 67.9427 25.7311 66.9296C25.7311 65.9164 26.5581 65.0874 27.5689 65.0874H42.2716C43.2824 65.0874 44.1095 65.9164 44.1095 66.9296C44.1095 67.9427 43.2824 68.7717 42.2716 68.7717Z" fill="white"/>
</svg>
