<svg width="70" height="59" viewBox="0 0 70 59" fill="none" xmlns="http://www.w3.org/2000/svg">
<g clip-path="url(#clip0)">
<path d="M38.0776 6.21057V4.34741H39.9201C40.2579 4.34741 40.5343 4.06794 40.5343 3.72636C40.5343 3.38478 40.2579 3.1053 39.9201 3.1053H38.0776V1.24215C38.0776 0.900567 37.8012 0.621094 37.4634 0.621094C37.1256 0.621094 36.8493 0.900567 36.8493 1.24215V3.1053H35.0067C34.669 3.1053 34.3926 3.38478 34.3926 3.72636C34.3926 4.06794 34.669 4.34741 35.0067 4.34741H36.8493V6.21057C36.8493 6.55215 37.1256 6.83162 37.4634 6.83162C37.8012 6.83162 38.0776 6.55215 38.0776 6.21057Z" fill="#EFEDEB"/>
<path d="M59.5419 33.6608C56.686 34.1887 53.999 35.0271 52.6018 36.44C48.7786 40.3216 48.7786 46.6097 52.6018 50.5068C54.5211 52.4476 57.0238 53.4102 59.5419 53.4102C62.06 53.4102 64.5781 52.4476 66.482 50.5068C70.3052 46.6252 69.3533 33.5365 69.3533 33.5365C69.3533 33.5365 64.486 32.7758 59.5419 33.6608Z" fill="#1C4A40"/>
<path d="M65.7157 8.69507C65.7157 6.64559 64.0575 4.96875 62.0307 4.96875C60.004 4.96875 58.3457 6.64559 58.3457 8.69507C58.3457 10.7445 60.004 12.4214 62.0307 12.4214C64.0575 12.4214 65.7157 10.7445 65.7157 8.69507ZM60.8024 8.69507C60.8024 8.01191 61.3551 7.45296 62.0307 7.45296C62.7063 7.45296 63.2591 8.01191 63.2591 8.69507C63.2591 9.37822 62.7063 9.93717 62.0307 9.93717C61.3551 9.93717 60.8024 9.37822 60.8024 8.69507Z" fill="#1C4A40"/>
<path d="M7.98385 0C5.95709 0 4.29883 1.67684 4.29883 3.72632C4.29883 5.77579 5.95709 7.45263 7.98385 7.45263C10.0106 7.45263 11.6689 5.77579 11.6689 3.72632C11.6689 1.67684 10.0106 0 7.98385 0ZM7.98385 4.96842C7.30826 4.96842 6.75551 4.40947 6.75551 3.72632C6.75551 3.04316 7.30826 2.48421 7.98385 2.48421C8.65943 2.48421 9.21219 3.04316 9.21219 3.72632C9.21219 4.40947 8.65943 4.96842 7.98385 4.96842Z" fill="#1C4A40"/>
<path d="M10.4403 27.9473C10.1025 27.9473 9.82617 28.2267 9.82617 28.5683V48.442C9.82617 48.7836 10.1025 49.0631 10.4403 49.0631C10.7781 49.0631 11.0545 48.7836 11.0545 48.442V28.5683C11.0545 28.2267 10.7781 27.9473 10.4403 27.9473Z" fill="#EFEDEB"/>
<path d="M20.2685 27.9473C19.9307 27.9473 19.6543 28.2267 19.6543 28.5683V48.442C19.6543 48.7836 19.9307 49.0631 20.2685 49.0631C20.6063 49.0631 20.8826 48.7836 20.8826 48.442V28.5683C20.8826 28.2267 20.6063 27.9473 20.2685 27.9473Z" fill="#EFEDEB"/>
<path d="M30.0946 27.9473C29.7568 27.9473 29.4805 28.2267 29.4805 28.5683V48.442C29.4805 48.7836 29.7568 49.0631 30.0946 49.0631C30.4324 49.0631 30.7088 48.7836 30.7088 48.442V28.5683C30.7088 28.2267 30.4324 27.9473 30.0946 27.9473Z" fill="#EFEDEB"/>
<path d="M40.535 48.442V28.5683C40.535 28.2267 40.2586 27.9473 39.9208 27.9473C39.583 27.9473 39.3066 28.2267 39.3066 28.5683V48.442C39.3066 48.7836 39.583 49.0631 39.9208 49.0631C40.2586 49.0631 40.535 48.7836 40.535 48.442Z" fill="#EFEDEB"/>
<path d="M66.3303 41.1603L66.5453 40.974C69.3704 38.5674 70.522 32.5122 69.785 23.9106C69.7697 23.7553 69.7697 23.6466 69.7543 23.569C69.7236 23.0411 69.524 23.0101 69.4319 22.9945C69.3858 22.9945 64.9484 22.2958 60.1426 23.0101L59.8355 23.0566L45.2336 8.27558C45.0493 8.08927 44.8037 8.04269 44.5734 8.13585C44.343 8.22901 44.2049 8.4619 44.2049 8.71032V22.1095L30.5242 8.26006C30.3553 8.08927 30.079 8.02716 29.8486 8.12032C29.6183 8.21348 29.4648 8.44637 29.4648 8.6948V22.094L15.7995 8.24453C15.6306 8.07374 15.3389 8.01164 15.1239 8.1048C14.8936 8.21348 14.7401 8.44637 14.7401 8.6948V22.094L1.09015 8.26006C0.967317 8.13585 0.79842 8.07374 0.644878 8.07374C0.568107 8.07374 0.491336 8.08927 0.414564 8.12032C0.153542 8.21348 0 8.44637 0 8.6948V58.379C0 58.705 0.307085 59 0.660232 59H59.5284C59.8815 59 60.1733 58.705 60.1733 58.379V44.1258L60.6646 44.0327C63.5819 43.4427 65.7008 41.7193 66.315 41.1758V41.1603H66.3303ZM19.6534 57.7579H11.0551V54.0316H19.6534V57.7579ZM39.3069 57.7579H30.7085V54.0316H39.3069V57.7579ZM58.9603 57.7579H40.5352V53.4106C40.5352 53.069 40.2588 52.7895 39.921 52.7895H30.0943C29.7565 52.7895 29.4801 53.069 29.4801 53.4106V57.7579H20.8818V53.4106C20.8818 53.069 20.6207 52.7895 20.2983 52.7895H10.4716C10.1184 52.7895 9.82671 53.0845 9.82671 53.4106V57.7579H1.22834V10.2008L14.9243 24.0348C15.0932 24.2056 15.3696 24.2677 15.5846 24.1745C15.8149 24.0814 15.9684 23.8485 15.9684 23.6001V10.2008L29.649 24.0503C29.8179 24.2211 30.0943 24.2832 30.3246 24.1901C30.5549 24.0969 30.7085 23.864 30.7085 23.6156V10.2008L44.3737 24.0503C44.5426 24.2211 44.819 24.2832 45.0493 24.1901C45.2796 24.0969 45.4485 23.864 45.4485 23.6156V10.2008L58.3768 23.3051L57.3327 23.569C54.8914 24.2056 53.1871 25.0129 52.1583 26.0687C48.4119 29.8727 48.0741 35.9124 51.3906 40.1201L51.7284 40.5548L48.6883 43.6445C48.4426 43.8929 48.4426 44.2811 48.6883 44.5295C48.8111 44.6382 48.9647 44.7158 49.1182 44.7158C49.2871 44.7158 49.4407 44.6537 49.5481 44.5295L52.619 41.4553L53.0489 41.7969C54.5075 42.9769 55.9662 43.7998 58.4075 44.0327L58.9603 44.0793V57.7579ZM66.0386 40.1356C64.3036 41.8901 62.0004 42.8527 59.5284 42.8527C57.5323 42.8527 55.6284 42.2161 54.0162 40.9895L53.4481 40.5548L56.089 37.8687H63.198C63.5358 37.8687 63.8122 37.5893 63.8122 37.2477C63.8122 36.9061 63.5358 36.6266 63.198 36.6266H57.3174L63.4284 30.4472C63.674 30.1987 63.674 29.8106 63.4284 29.5622C63.1827 29.3293 62.8142 29.3293 62.5685 29.5622L56.5036 35.7727V29.8106C56.5036 29.469 56.2272 29.1895 55.8894 29.1895C55.5516 29.1895 55.2753 29.469 55.2753 29.8106V37.0148L52.619 39.6853L52.1891 39.1108C49.4714 35.4156 49.8399 30.1987 53.0335 26.9537C54.1544 25.8203 56.3808 24.9353 59.6359 24.3453C61.1866 24.0658 62.891 23.9261 64.7028 23.9261C66.2075 23.9261 67.4512 24.0193 68.2342 24.0969L68.7563 24.1435L68.787 24.6869C68.8791 26.7053 69.1708 36.9527 66.0386 40.1356Z" fill="#EFEDEB"/>
</g>
<defs>
<clipPath id="clip0">
<rect width="70" height="59" fill="white"/>
</clipPath>
</defs>
</svg>
