<svg width="18" height="18" fill="none" xmlns="http://www.w3.org/2000/svg"><path d="M9.108 5.945c-1.545 0-2.797 1.24-2.797 2.766 0 1.545 1.24 2.797 2.772 2.797 1.532 0 2.79-1.24 2.79-2.76-.006-1.55-1.24-2.803-2.765-2.803z" fill="#fff"/><path d="M17.41 5.446c-.03-.81-.13-1.608-.46-2.355C16.358 1.764 15.336.954 13.94.599 13.306.437 12.651.4 12.004.394 10.254.38 8.504.363 6.753.375c-.828.006-1.657.013-2.467.218-1.893.486-3.014 1.7-3.37 3.607-.118.623-.143 1.27-.155 1.912a215.98 215.98 0 00-.013 4.92c.007.835.013 1.683.218 2.505.486 1.9 1.713 3.015 3.62 3.376.523.1 1.065.1 1.594.143.05.006.106.019.156.025h5.506c.174-.012.349-.031.523-.037.791-.032 1.576-.125 2.311-.443 1.358-.585 2.18-1.625 2.542-3.045.155-.63.186-1.277.205-1.925 0-.05.019-.106.025-.156V5.969c-.012-.175-.031-.35-.037-.524zm-8.334 7.568a4.296 4.296 0 01-4.285-4.317A4.288 4.288 0 019.1 4.424a4.296 4.296 0 014.286 4.317 4.292 4.292 0 01-4.31 4.273zm4.784-8.241c-.554 0-1.009-.461-1.009-1.016a1.01 1.01 0 012.018 0c0 .561-.454 1.016-1.009 1.016z" fill="#fff"/></svg>