<svg width="24" height="27" viewBox="0 0 24 27" fill="none" xmlns="http://www.w3.org/2000/svg">
<path d="M20.2331 8.5882H17.7422V6.06007C17.7422 2.71402 15.0281 0 11.6821 0C8.33604 0 5.62202 2.71402 5.62202 6.06007V8.5882H2.75929C2.20162 8.5882 1.7183 9.03434 1.64394 9.59201L0.00809313 25.7646C-0.0662635 26.3594 0.379876 26.9171 1.01191 26.9915C1.04909 26.9915 1.08626 26.9915 1.12344 26.9915H21.9061C22.5382 26.9915 23.0215 26.5082 23.0215 25.8761C23.0215 25.8389 23.0215 25.8018 23.0215 25.7646L21.3485 9.59201C21.3113 9.03434 20.828 8.5882 20.2331 8.5882ZM15.4743 8.5882H7.81554V6.06007C7.81554 3.9409 9.52575 2.2307 11.6449 2.2307C13.7641 2.2307 15.4743 3.9409 15.4743 6.06007V8.5882Z" fill="#84B5AA"/>
<path d="M16.8182 15.8274L14.9864 14L11.3962 17.6183L8.83175 15.0599L7 16.8508L11.3962 21.2L16.8182 15.8274Z" fill="#13322B"/>
</svg>
