<svg width="25" height="26" viewBox="0 0 25 26" fill="none" xmlns="http://www.w3.org/2000/svg">
<path d="M21.2283 0.364209L19.4348 2.14077C17.3423 0.837959 15.0107 0.127334 12.4997 0.127334C6.04286 0.127334 0.662177 4.98327 0.00453764 11.2604C-0.0552477 11.9711 0.482821 12.5633 1.20025 12.5633H3.65145C4.2493 12.5633 4.72758 12.0895 4.84715 11.4973C5.38522 7.76655 8.61363 4.86483 12.5595 4.86483C13.7552 4.86483 14.8911 5.16092 15.9672 5.63467L14.5922 6.9967C13.815 7.76655 14.353 9.01014 15.4292 9.01014H22.1251C22.7828 9.01014 23.3208 8.47717 23.3208 7.82576V1.19327C23.2611 0.127335 21.9458 -0.405634 21.2283 0.364209Z" fill="#84B5AA"/>
<path d="M23.7991 12.4434H21.3479C20.75 12.4434 20.2718 12.9171 20.1522 13.5093C19.6739 17.2401 16.4455 20.1418 12.4997 20.1418C11.3039 20.1418 10.168 19.8457 9.09188 19.3719L10.4669 18.0099C11.2442 17.2401 10.7061 15.9965 9.62995 15.9965H2.93399C2.27635 15.9965 1.73828 16.5294 1.73828 17.1809V23.8133C1.73828 24.8793 3.05356 25.4123 3.77098 24.6424L5.56455 22.8658C7.59725 24.1687 9.98866 24.9385 12.4399 24.9385C18.8967 24.9385 24.2774 20.0234 24.935 13.8054C25.0546 13.0355 24.5165 12.4434 23.7991 12.4434Z" fill="#84B5AA"/>
</svg>
