<svg version="1.1" id="Layer_1" xmlns="http://www.w3.org/2000/svg" x="0" y="0" viewBox="0 0 116.26 1850.13" xml:space="preserve"><path d="M48.58 1122.85c-3.67-1.74-6.57-4.15-8.87-7.31-4.97-6.85-4.74-17.6.57-23.97 2.54-3.05 5.88-4.83 9.66-5.8 4.5-1.15 9.06-1.46 13.62-.49 7.58 1.62 11.72 7.4 11.11 15.51-.69 9.2-6.24 14.56-14.19 18.03-.51.22-1.03.44-1.6.69 2.51 1.24 4.92 2.38 7.28 3.61 3.01 1.56 5.75 3.48 7.91 6.14 2.85 3.51 3.59 7.59 3.2 11.97-.64 7.16-3.71 13.01-9.53 17.3-4.8 3.53-10.3 4.43-16.1 4.02-3.22-.22-6.36-.82-9.32-2.18-6.44-2.96-9.67-8.09-10-15.07-.45-9.59 4.77-15.81 12.42-20.51 1.17-.72 2.44-1.24 3.84-1.94zm21.96 19.32c-.01-5.36-2.67-10.42-8.89-13.32-3.35-1.56-6.75-3.05-10.08-4.66-1.03-.5-1.77-.38-2.7.21-8.16 5.23-11.71 15.27-8.58 24.72 2.14 6.46 6.25 10.83 13.33 11.57 6.07.63 10.96-1.45 14.22-6.79 1.97-3.2 2.64-6.73 2.7-11.73zm-1.84-42.01c-.02-4.42-1.19-8.42-4.69-11.37-4.52-3.81-12.02-3.33-16.48.96-4.3 4.14-5.51 9.24-4.57 15 .78 4.76 3.24 8.34 7.39 10.74 1.58.91 3.3 1.61 4.85 2.57 1.7 1.06 3.11.64 4.48-.51 5.41-4.54 8.93-10.08 9.02-17.39zm-33.02-30.75c-.61-1.11-.02-1.4.82-1.68 14.03-4.68 24.09-13.8 30.22-27.23 1.63-3.58 2.68-7.36 3.32-11.43-1.29.97-2.42 1.86-3.6 2.69-4.71 3.33-9.83 5.27-15.72 5.04-10.08-.39-16.79-5.9-18.56-15.83-1.39-7.78-.44-15.34 3.63-22.25 5.34-9.05 13.43-12.95 23.81-11.95 6.16.59 10.74 3.87 13.92 9.14 2.95 4.9 4.22 10.3 4.52 15.92.72 13.69-2.62 26.21-11.19 37.1-7.93 10.07-18.15 16.79-30.45 20.34-.22.06-.45.09-.72.14zm35.51-50.57c-.18-5.19-.78-10.29-2.27-15.27-1.19-3.98-2.79-7.74-5.56-10.93-4.47-5.14-14.18-7.44-19.83 1.29-.41.64-.82 1.29-1.19 1.96-3.35 6.09-4.48 12.6-3.67 19.47.54 4.61 1.83 8.97 4.51 12.82 2.88 4.16 6.82 6.46 11.93 6.24 6.37-.27 11.3-3.33 15.01-8.42.36-.49.53-1.19.6-1.81.21-1.77.32-3.56.47-5.35zm2.68 254.75c.44.86-.01 1.08-.69 1.31-17.61 6.04-28.37 18.36-33.18 36.15-.24.88-.38 1.78-.61 2.89.44-.32.71-.5.97-.69 3.95-3.01 8.12-5.62 13.07-6.6 4.96-.98 9.84-.59 14.45 1.58 5.74 2.71 8.64 7.58 9.64 13.64 1.29 7.84.44 15.4-3.67 22.36-3.68 6.22-8.94 10.31-16.19 11.66-11.45 2.13-20.37-3.16-24.02-14.32-1.54-4.7-2.07-9.55-2.01-14.46.1-8.38 1.65-16.47 5.39-24.04 5.28-10.69 13.48-18.55 23.93-24.04 3.86-2.03 8.04-3.48 12.07-5.18.26-.13.56-.18.85-.26zm-35.59 50.5c.18 5.73.87 11.35 2.69 16.8 1.31 3.92 3.12 7.55 6.29 10.35 4.66 4.12 13.07 4.97 18.18-1.34 1.88-2.31 3.22-4.9 4.21-7.69 1.9-5.35 1.96-10.86 1.27-16.4-.48-3.89-1.48-7.64-3.57-11.02-2.93-4.73-7.2-7.06-12.73-6.44-5.66.63-10.37 3.41-14.37 7.4-.99.98-1.51 2.16-1.6 3.56-.09 1.59-.24 3.19-.37 4.78zm28.8 143.64c-1.6 15.56-.72 31.15-.67 46.75H78.1c-.46 1.53-1.59 2.71-2.62 3.98-1.06 1.31-2.28 1.97-4.04 1.78-1.62-.17-3.27-.04-4.94-.04-.04.34-.1.56-.09.78.38 6.75.75 13.5 1.17 20.25.02.34.42.82.76.94 1.5.55 3.04.99 4.68 1.51.02.19.04.52.07.85-.17.05-.28.1-.38.1-6.23.08-12.46.14-18.69.22-.89.01-1.54-.12-1.33-1.23 1.46-.2 2.9-.35 4.32-.61.59-.11 1.16-.38 1.69-.67.88-.49 1.3-1.18 1.32-2.3.07-6.04.24-12.08.38-18.12.01-.53 0-1.06 0-1.66H31.59c.13-.23.3-.53.48-.83 9.89-16.91 19.78-33.82 29.64-50.74.47-.81.91-1.12 1.87-1 1.08.15 2.2.04 3.5.04zm-6.57 7.57c-7.71 13.34-15.22 26.34-22.81 39.48h22.81v-39.48zm-25.06-37.42c.43.49.67.76.9 1.04 4.05 4.79 9.07 7.68 15.47 7.73 5.48.04 9.61-2.34 12.29-7.16 2.54-4.57 3.13-9.52 2.87-14.64-.19-3.65-.87-7.2-2.43-10.54-3.86-8.28-11.17-11.05-19.13-9.72-1.84.31-3.64.78-5.46 1.17.8-11.05.47-22.11.3-33.51h33.86c-.35.48-.75 1.21-1.31 1.77-2.08 2.08-4.62 3.22-7.57 3.34-5.8.25-11.61.46-17.41.68-.26.01-.52.03-.92.05-.58 8.15-.52 16.26 0 24.5.62-.04 1.13-.08 1.65-.1 4.85-.2 9.73-.61 14.41 1.09 6.28 2.29 9.96 6.9 10.91 13.42 1.24 8.47-.39 16.37-5.86 23.19-4.47 5.57-10.34 8.45-17.45 8.75-4.33.18-8.63-.2-12.87-1.13-.65-.14-1.2-.29-1.45-1.07-.92-2.8-.89-5.67-.8-8.86zm10 161.98c.02.1-.02.03-.01-.04.06-.42.12-.83.19-1.24 1.52-.24 3.05-.34 4.51-.74 6.38-1.77 9.82-6.3 11.28-12.49.81-3.43.79-6.9-.34-10.3-1.77-5.32-6.19-8.59-11.78-8.77-5.34-.18-9.76 1.51-12.73 6.19-.03.05-.13.07-.2.1-.05-.04-.13-.08-.14-.13-.68-2.96-.68-2.96 2-4.31 4.49-2.27 9.11-4.13 14.16-4.68 3.03-.33 6.04-.18 8.94.84 5.49 1.93 8.44 6.63 8.03 12.6-.29 4.25-2.11 7.85-4.56 11.19-3.09 4.21-6.74 7.8-11.46 10.19-.08.04-.12.16-.14.18 2.56.3 5.14.51 7.67.93 1.53.25 3.05.72 4.5 1.29 6.54 2.54 9.65 7.53 10.07 14.37.74 12.05-6.27 19.34-15.72 23.33-3.23 1.37-6.63 2.06-10.14 2.14-4.44.11-8.86.07-13.22-.96-.74-.17-1.16-.54-1.24-1.26-.33-2.87-.63-5.75-.95-8.62.12-.04.25-.09.37-.13.24.25.48.51.72.76 4.71 4.88 10.4 7.76 17.21 8.02 4.86.18 8.71-1.92 11.5-5.92 3.35-4.82 4.23-10.25 3.77-15.94-.16-2-.51-4.04-1.11-5.94-1.95-6.11-6.41-9.33-12.6-10.18-2.78-.4-5.62-.34-8.58-.48zm.22-342.23h-8.73c11.84-23 21.55-47.01 33.1-70.35-.88-.1-1.55-.23-2.21-.24-6.92-.09-13.84-.22-20.76-.21-4.08 0-8.06.68-11.74 2.62-.09.05-.2.04-.73.12 1.54-2.6 2.9-4.96 4.34-7.26.6-.96 1.52-1.37 2.74-1.3 4.5.24 9.01.51 13.52.57 4.85.06 9.71-.09 14.56-.19 1.75-.04 3.5-.23 5.34-.35-11.39 24.94-22.41 49.93-29.43 76.59zm19.34 574.58H48.38c-.19 0-.41.06-.57-.01-.24-.11-.43-.31-.65-.48.2-.17.36-.43.59-.5 1.39-.41 2.79-.77 4.18-1.17.71-.21.96-.7 1-1.46.78-15.13.83-30.27.63-45.41-.09-7.26-.43-14.52-.66-21.78-.01-.22-.05-.43-.1-.78-2.17.88-4.25 1.73-6.33 2.56-.6.24-1.4.83-1.77-.09-.36-.91.52-1.08 1.21-1.42 4.1-2.02 8.17-4.12 12.23-6.21.67-.34 1.3-.77 2.06-1.23-.16 2.31-.34 4.46-.44 6.61-.16 3.4-.37 6.8-.36 10.2.03 16.4.11 32.81.21 49.21.01 2.33.23 4.66.43 6.98.25 2.89 1 3.61 3.9 3.82.7.04 1.26.09 1.07 1.16zm1.4-1665.99c-3.67-1.74-6.57-4.15-8.87-7.31-4.97-6.85-4.74-17.6.57-23.97 2.54-3.05 5.88-4.83 9.66-5.8 4.5-1.15 9.06-1.46 13.62-.49 7.58 1.62 11.72 7.4 11.11 15.51-.69 9.2-6.24 14.56-14.19 18.03-.51.22-1.03.44-1.6.69 2.51 1.24 4.92 2.38 7.28 3.61 3.01 1.56 5.75 3.48 7.91 6.14 2.85 3.51 3.59 7.59 3.2 11.97-.64 7.16-3.71 13.01-9.53 17.3-4.8 3.53-10.3 4.43-16.1 4.02-3.22-.22-6.36-.82-9.32-2.18-6.44-2.96-9.67-8.09-10-15.07-.45-9.59 4.77-15.81 12.42-20.51 1.17-.72 2.44-1.24 3.84-1.94zm21.96 19.32c-.01-5.36-2.67-10.42-8.89-13.32-3.36-1.56-6.75-3.05-10.08-4.66-1.03-.5-1.77-.38-2.7.21-8.16 5.23-11.71 15.27-8.58 24.72 2.14 6.46 6.25 10.83 13.33 11.57 6.07.63 10.96-1.45 14.22-6.79 1.97-3.2 2.64-6.73 2.7-11.73zm-1.84-42.01c-.02-4.42-1.19-8.42-4.69-11.37-4.52-3.81-12.02-3.33-16.48.96-4.3 4.14-5.51 9.24-4.57 15 .78 4.76 3.24 8.34 7.39 10.74 1.58.91 3.3 1.61 4.85 2.57 1.7 1.06 3.11.64 4.48-.51 5.41-4.54 8.93-10.08 9.02-17.39zm-51.67 62.69H18.23c-.19 0-.41.06-.57-.01-.24-.11-.43-.31-.65-.48.2-.17.36-.43.59-.5 1.39-.41 2.79-.77 4.18-1.17.71-.21.96-.7 1-1.46.78-15.13.83-30.27.63-45.41-.09-7.26-.43-14.52-.66-21.78-.01-.22-.05-.43-.1-.78-2.17.88-4.25 1.73-6.33 2.56-.6.24-1.4.83-1.77-.09-.36-.91.52-1.08 1.21-1.42 4.1-2.02 8.17-4.12 12.23-6.21.67-.34 1.3-.77 2.06-1.23-.16 2.31-.34 4.46-.44 6.61-.16 3.4-.37 6.8-.36 10.2.03 16.4.11 32.81.21 49.21.01 2.33.23 4.66.43 6.98.25 2.89 1 3.61 3.9 3.82.7.04 1.26.09 1.07 1.16zm18.28-93.32c-.61-1.11-.02-1.4.82-1.68 14.03-4.68 24.09-13.8 30.22-27.23 1.63-3.58 2.68-7.36 3.32-11.43-1.29.97-2.42 1.86-3.6 2.69-4.71 3.33-9.83 5.27-15.72 5.04-10.08-.39-16.79-5.9-18.56-15.83-1.39-7.78-.44-15.34 3.63-22.25 5.34-9.05 13.43-12.95 23.81-11.95 6.16.59 10.74 3.87 13.92 9.14 2.95 4.9 4.22 10.3 4.52 15.92.72 13.69-2.62 26.21-11.19 37.1-7.93 10.07-18.15 16.79-30.45 20.34-.23.06-.45.09-.72.14zm35.51-50.57c-.18-5.19-.78-10.29-2.27-15.27-1.19-3.98-2.79-7.74-5.56-10.93-4.47-5.14-14.18-7.44-19.83 1.29-.41.64-.82 1.29-1.19 1.96-3.35 6.09-4.48 12.6-3.67 19.47.54 4.61 1.83 8.97 4.51 12.82 2.88 4.16 6.82 6.46 11.93 6.24 6.37-.27 11.3-3.33 15.01-8.42.36-.49.53-1.19.6-1.81.2-1.77.31-3.56.47-5.35zm-54.17 48.16H17.85c-.19 0-.41.06-.57-.01-.24-.11-.43-.31-.65-.48.2-.17.36-.43.59-.5 1.39-.41 2.79-.77 4.18-1.17.71-.21.96-.7 1-1.46.78-15.13.83-30.27.63-45.41-.09-7.26-.43-14.52-.66-21.78-.01-.22-.05-.43-.1-.78-2.17.88-4.25 1.73-6.33 2.56-.6.24-1.4.83-1.77-.09-.36-.91.52-1.08 1.21-1.42 4.1-2.02 8.17-4.12 12.23-6.21.67-.34 1.3-.77 2.06-1.23-.16 2.31-.34 4.46-.44 6.61-.16 3.4-.37 6.8-.36 10.2.03 16.4.11 32.81.21 49.21.01 2.33.23 4.66.43 6.98.25 2.89 1 3.61 3.9 3.82.7.04 1.26.09 1.07 1.16zm19.31 370.88c.43.49.67.76.9 1.04 4.05 4.79 9.07 7.68 15.47 7.73 5.48.04 9.61-2.34 12.29-7.16 2.54-4.57 3.13-9.52 2.87-14.64-.19-3.65-.87-7.2-2.43-10.54-3.86-8.28-11.17-11.05-19.13-9.72-1.84.31-3.64.78-5.46 1.17.8-11.05.47-22.11.3-33.51h33.86c-.35.48-.75 1.21-1.31 1.77-2.08 2.08-4.62 3.22-7.57 3.34-5.8.25-11.61.46-17.41.68-.26.01-.52.03-.92.05-.58 8.15-.52 16.26 0 24.5.62-.04 1.13-.08 1.65-.1 4.85-.2 9.73-.61 14.41 1.09 6.28 2.29 9.96 6.9 10.91 13.42 1.24 8.47-.39 16.37-5.86 23.19-4.47 5.57-10.34 8.45-17.45 8.75-4.33.18-8.63-.2-12.87-1.13-.65-.14-1.2-.29-1.45-1.07-.91-2.8-.89-5.67-.8-8.86zm-16.34 11.72H20.82c-.19 0-.41.06-.57-.01-.24-.11-.43-.31-.65-.48.2-.17.36-.43.59-.5 1.39-.41 2.79-.77 4.18-1.17.71-.21.96-.7 1-1.46.78-15.13.83-30.27.63-45.41-.09-7.26-.43-14.52-.66-21.78-.01-.22-.05-.43-.1-.78-2.17.88-4.25 1.73-6.33 2.56-.6.24-1.4.83-1.77-.09-.36-.91.52-1.08 1.21-1.42 4.1-2.02 8.17-4.12 12.23-6.21.67-.34 1.3-.77 2.06-1.23-.16 2.31-.34 4.46-.44 6.61-.16 3.4-.37 6.8-.36 10.2.03 16.4.11 32.81.21 49.21.01 2.33.23 4.66.43 6.98.25 2.89 1 3.61 3.9 3.82.7.04 1.26.09 1.07 1.16zm52.86-176.01c.44.86-.01 1.08-.69 1.31-17.61 6.04-28.37 18.36-33.18 36.15-.24.88-.38 1.78-.61 2.89.44-.32.71-.5.97-.69 3.95-3.01 8.12-5.62 13.07-6.6 4.96-.98 9.84-.59 14.45 1.58 5.74 2.71 8.64 7.58 9.64 13.64 1.29 7.84.44 15.4-3.67 22.36-3.68 6.22-8.94 10.31-16.19 11.66-11.45 2.13-20.37-3.16-24.02-14.32-1.54-4.7-2.07-9.55-2.01-14.46.1-8.38 1.65-16.47 5.39-24.04 5.28-10.69 13.48-18.55 23.93-24.04 3.86-2.03 8.04-3.48 12.07-5.18.27-.13.57-.18.85-.26zm-35.58 50.5c.18 5.73.87 11.35 2.69 16.8 1.31 3.92 3.12 7.55 6.29 10.35 4.66 4.12 13.07 4.97 18.18-1.34 1.88-2.31 3.22-4.9 4.21-7.69 1.9-5.35 1.96-10.86 1.27-16.4-.48-3.89-1.48-7.64-3.57-11.02-2.93-4.73-7.2-7.06-12.73-6.44-5.66.63-10.37 3.41-14.37 7.4-.99.98-1.51 2.16-1.6 3.56-.1 1.59-.25 3.19-.37 4.78zm-19.18 29.86H18.92c-.19 0-.41.06-.57-.01-.24-.11-.43-.31-.65-.48.2-.17.36-.43.59-.5 1.39-.41 2.79-.77 4.18-1.17.71-.21.96-.7 1-1.46.78-15.13.83-30.27.63-45.41-.09-7.26-.43-14.52-.66-21.78-.01-.22-.05-.43-.1-.78-2.17.88-4.25 1.73-6.33 2.56-.6.24-1.4.83-1.77-.09-.36-.91.52-1.08 1.21-1.42 4.1-2.02 8.17-4.12 12.23-6.21.67-.34 1.3-.77 2.06-1.23-.16 2.31-.34 4.46-.44 6.61-.16 3.4-.37 6.8-.36 10.2.03 16.4.11 32.81.21 49.21.01 2.33.23 4.66.43 6.98.25 2.89 1 3.61 3.9 3.82.7.04 1.26.09 1.07 1.16zm28.05-95.63h-8.73c11.84-23 21.55-47.01 33.1-70.35-.88-.1-1.55-.23-2.21-.24-6.92-.09-13.84-.22-20.76-.21-4.08 0-8.06.68-11.74 2.62-.09.05-.2.04-.73.12 1.54-2.6 2.9-4.96 4.34-7.26.6-.96 1.52-1.37 2.74-1.3 4.5.24 9.01.51 13.52.57 4.85.06 9.71-.09 14.56-.19 1.75-.04 3.5-.23 5.34-.35-11.38 24.95-22.4 49.94-29.43 76.59zm-26.56-.02H20.41c-.19 0-.41.06-.57-.01-.24-.11-.43-.31-.65-.48.2-.17.36-.43.59-.5 1.39-.41 2.79-.77 4.18-1.17.71-.21.96-.7 1-1.46.78-15.13.83-30.27.63-45.41-.09-7.26-.43-14.52-.66-21.78-.01-.22-.05-.43-.1-.78-2.17.88-4.25 1.73-6.33 2.56-.6.24-1.4.83-1.77-.09-.36-.91.52-1.08 1.21-1.42 4.1-2.02 8.17-4.12 12.23-6.21.67-.34 1.3-.77 2.06-1.23-.16 2.31-.34 4.46-.44 6.61-.16 3.4-.37 6.8-.36 10.2.03 16.4.11 32.81.21 49.21.01 2.33.23 4.66.43 6.98.25 2.89 1 3.61 3.9 3.82.7.04 1.27.09 1.07 1.16zm45.33 209.43c-1.6 15.56-.72 31.15-.67 46.75h11.69c-.46 1.53-1.59 2.71-2.62 3.98-1.06 1.31-2.28 1.97-4.04 1.78-1.62-.17-3.27-.04-4.94-.04-.04.34-.1.56-.09.78.38 6.75.75 13.5 1.17 20.25.02.34.42.82.76.94 1.5.55 3.04.99 4.68 1.51.02.19.04.52.07.85-.17.05-.28.1-.38.1-6.23.08-12.46.14-18.69.22-.89.01-1.54-.12-1.33-1.23 1.46-.2 2.9-.35 4.32-.61.59-.11 1.16-.38 1.69-.67.88-.49 1.3-1.18 1.32-2.3.07-6.04.24-12.08.38-18.12.01-.53 0-1.06 0-1.66H46.88c.13-.23.3-.53.48-.83 9.89-16.91 19.78-33.82 29.64-50.74.47-.81.91-1.12 1.87-1 1.08.15 2.2.04 3.5.04zm-6.57 7.57c-7.71 13.34-15.22 26.34-22.81 39.48H75.8v-39.48zm-39.13 69.96H20.04c-.19 0-.41.06-.57-.01-.24-.11-.43-.31-.65-.48.2-.17.36-.43.59-.5 1.39-.41 2.79-.77 4.18-1.17.71-.21.96-.7 1-1.46.78-15.13.83-30.27.63-45.41-.09-7.26-.43-14.52-.66-21.78-.01-.22-.05-.43-.1-.78-2.17.88-4.25 1.73-6.33 2.56-.6.24-1.4.83-1.77-.09-.36-.91.52-1.08 1.21-1.42 4.1-2.02 8.17-4.12 12.23-6.21.67-.34 1.3-.77 2.06-1.23-.16 2.31-.34 4.46-.44 6.61-.16 3.4-.37 6.8-.36 10.2.03 16.4.11 32.81.21 49.21.01 2.33.23 4.66.43 6.98.25 2.89 1 3.61 3.9 3.82.7.04 1.26.08 1.07 1.16zm28.37 54.16c.02.1-.02.03-.01-.04.06-.42.12-.83.19-1.24 1.52-.24 3.05-.34 4.51-.74 6.38-1.77 9.82-6.3 11.28-12.49.81-3.43.79-6.9-.34-10.3-1.77-5.32-6.19-8.59-11.78-8.77-5.34-.18-9.76 1.51-12.73 6.19-.03.05-.13.07-.2.1-.05-.04-.13-.08-.14-.13-.68-2.96-.68-2.96 2-4.31 4.49-2.27 9.11-4.13 14.16-4.68 3.03-.33 6.04-.18 8.94.84 5.49 1.93 8.44 6.63 8.03 12.6-.29 4.25-2.11 7.85-4.56 11.19-3.09 4.21-6.74 7.8-11.46 10.19-.08.04-.12.16-.14.18 2.56.3 5.14.51 7.67.93 1.53.25 3.05.72 4.5 1.29 6.54 2.54 9.65 7.53 10.07 14.37.74 12.05-6.27 19.34-15.72 23.33-3.23 1.37-6.63 2.06-10.14 2.14-4.44.11-8.86.07-13.22-.96-.74-.17-1.16-.54-1.24-1.26-.33-2.87-.63-5.75-.95-8.62.12-.04.25-.09.37-.13.24.25.48.51.72.76 4.71 4.88 10.4 7.76 17.21 8.02 4.86.18 8.71-1.92 11.5-5.92 3.35-4.82 4.23-10.25 3.77-15.94-.16-2-.51-4.04-1.11-5.94-1.95-6.11-6.41-9.33-12.6-10.18-2.77-.39-5.62-.33-8.58-.48zm-30.07 41.55H18.34c-.19 0-.41.06-.57-.01-.24-.11-.43-.31-.65-.48.2-.17.36-.43.59-.5 1.39-.41 2.79-.77 4.18-1.17.71-.21.96-.7 1-1.46.78-15.13.83-30.27.63-45.41-.09-7.26-.43-14.52-.66-21.78-.01-.22-.05-.43-.1-.78-2.17.88-4.25 1.73-6.33 2.56-.6.24-1.4.83-1.77-.09-.36-.91.52-1.08 1.21-1.42 4.1-2.02 8.17-4.12 12.23-6.21.67-.34 1.3-.77 2.06-1.23-.16 2.31-.34 4.46-.44 6.61-.16 3.4-.37 6.8-.36 10.2.03 16.4.11 32.81.21 49.21.01 2.33.23 4.66.43 6.98.25 2.89 1 3.61 3.9 3.82.7.04 1.26.09 1.07 1.16zm42.92 1041.08c-.09.15-.24.29-.27.46-.12.61-.14 1.24-.3 1.83-.64 2.44-1.16 3.23-4.32 3.22-10.42-.03-20.83-.01-31.25-.02-.36 0-.73-.04-1.07-.14-.46-.14-.66-.42-.64-.79 14.16-12.37 29.94-28.88 35.46-43.56.01-.02.01-.03.02-.05.13-.35.26-.7.38-1.05.81-2.23 1.34-4.5 1.55-6.81v-.01c.04-.42.06-.84.07-1.26.01-.33.02-.66.01-.99 0-.29 0-.58-.02-.87v-.24c-.01-.12-.03-.24-.04-.37-.08-1.17-.23-2.34-.5-3.53-1.15-5.08-3.9-8.81-8.35-10.86l-.09-.06h-.03c-.77-.35-1.57-.66-2.45-.9-5.09-1.43-10.06-.74-14.8 1.41l-.01-.01c-.03.02-.06.03-.09.05-.09.04-.17.07-.26.11-3.43 1.61-6.28 3.84-8.75 6.47-4.01 3.89-7.19 8.59-9.1 13.84h3.9c3.1-8.28 9.78-16.98 15.78-19.17 2.65-1.11 5.12-1.34 7.83-1.08 6.65 1.9 6.72 10.04 6.85 14.41.43 15.22-20.57 44.83-33.89 58.75-.44.43-.88.87-1.31 1.3-.21.21-.41.43-.69.73h46.66v-6.57c0-1.24.01-2.48-.01-3.72-.01-.17-.18-.34-.27-.52zM20.3 971.35H3.67c-.19 0-.41.06-.57-.01-.24-.11-.43-.31-.65-.48.2-.17.36-.43.59-.5 1.39-.41 2.79-.77 4.18-1.17.71-.21.96-.7 1-1.46.78-15.13.83-30.27.63-45.41-.09-7.26-.43-14.52-.66-21.78-.01-.22-.05-.43-.1-.78-2.17.88-4.25 1.73-6.33 2.56-.6.24-1.4.83-1.77-.09-.36-.91.52-1.08 1.21-1.42 4.1-2.02 8.17-4.12 12.23-6.21.67-.34 1.3-.77 2.06-1.23-.16 2.31-.34 4.46-.44 6.61-.16 3.4-.37 6.8-.36 10.2.03 16.4.11 32.81.21 49.21.01 2.33.23 4.66.43 6.98.25 2.89 1 3.61 3.9 3.82.7.04 1.27.09 1.07 1.16zm88.74-31.65c4.04-21.56-9.16-42.23-31.8-46.47-22.64-4.24-42.43 10.24-46.48 31.8-4.06 21.67 9.16 42.23 31.8 46.47 22.64 4.25 42.41-10.13 46.48-31.8zm-46.28 30.72c-17.36-3.25-26.46-22.59-22.51-43.62 3.94-21.03 19.43-35.75 36.79-32.5s26.46 22.59 22.51 43.62c-3.94 21.03-19.43 35.76-36.79 32.5zm33.39-201.18c-.09.15-.24.29-.27.46-.12.61-.14 1.24-.3 1.83-.64 2.44-1.16 3.23-4.32 3.22-10.42-.03-20.83-.01-31.25-.02-.36 0-.73-.04-1.07-.14-.46-.14-.66-.42-.64-.79 14.16-12.37 29.94-28.88 35.46-43.56.01-.02.01-.03.02-.05.13-.35.26-.7.38-1.05.81-2.23 1.34-4.5 1.55-6.82v-.01c.04-.42.06-.84.07-1.26.01-.33.02-.66.01-.99 0-.29 0-.58-.02-.87v-.24c-.01-.12-.03-.24-.04-.37-.08-1.17-.23-2.34-.5-3.53-1.15-5.08-3.9-8.81-8.35-10.87l-.09-.06h-.03c-.77-.35-1.57-.66-2.45-.9-5.09-1.43-10.06-.74-14.8 1.41l-.01-.01c-.03.02-.06.03-.09.05-.09.04-.17.07-.26.11-3.43 1.61-6.28 3.84-8.75 6.47-4.01 3.89-7.19 8.59-9.1 13.84h3.9c3.1-8.28 9.78-16.98 15.78-19.17 2.65-1.11 5.12-1.34 7.83-1.08 6.65 1.9 6.72 10.04 6.85 14.41.43 15.22-20.57 44.83-33.89 58.75-.44.43-.88.87-1.31 1.3-.21.21-.41.43-.69.73h46.66v-6.57c0-1.24.01-2.48-.01-3.72-.01-.14-.18-.32-.27-.5zm-62.51 10.81H17.01c-.19 0-.41.06-.57-.01-.24-.11-.43-.31-.65-.48.2-.17.36-.43.59-.5 1.39-.41 2.79-.77 4.18-1.17.71-.21.96-.7 1-1.46.78-15.13.83-30.27.63-45.41-.09-7.26-.43-14.52-.66-21.78-.01-.22-.05-.43-.1-.78-2.17.88-4.25 1.73-6.33 2.56-.6.24-1.4.83-1.77-.09-.36-.91.52-1.08 1.21-1.42 4.1-2.02 8.17-4.12 12.23-6.21.67-.34 1.3-.77 2.06-1.23-.16 2.31-.34 4.46-.44 6.61-.16 3.4-.37 6.8-.36 10.2.03 16.4.11 32.81.21 49.21.01 2.33.23 4.66.43 6.98.25 2.89 1 3.61 3.9 3.82.69.04 1.26.08 1.07 1.16zM45.3 875.7H28.67c-.19 0-.41.06-.57-.01-.24-.11-.43-.31-.65-.48.2-.17.36-.43.59-.5 1.39-.41 2.79-.77 4.18-1.17.71-.21.96-.7 1-1.46.78-15.13.83-30.27.63-45.41-.09-7.26-.43-14.52-.66-21.78-.01-.22-.05-.43-.1-.78-2.17.88-4.25 1.73-6.33 2.56-.6.24-1.4.83-1.77-.09-.36-.91.52-1.08 1.21-1.42 4.1-2.02 8.17-4.12 12.23-6.21.67-.34 1.3-.77 2.06-1.23-.16 2.31-.34 4.46-.44 6.61-.16 3.4-.37 6.8-.36 10.2.03 16.4.11 32.81.21 49.21.01 2.33.23 4.66.43 6.98.25 2.89 1 3.61 3.9 3.82.7.04 1.26.08 1.07 1.16zm39.42 0H68.09c-.19 0-.41.06-.57-.01-.24-.11-.43-.31-.65-.48.2-.17.36-.43.59-.5 1.39-.41 2.79-.77 4.18-1.17.71-.21.96-.7 1-1.46.78-15.13.83-30.27.63-45.41-.09-7.26-.43-14.52-.66-21.78-.01-.22-.05-.43-.1-.78-2.17.88-4.25 1.73-6.33 2.56-.6.24-1.4.83-1.77-.09-.36-.91.52-1.08 1.21-1.42 4.1-2.02 8.17-4.12 12.23-6.21.67-.34 1.3-.77 2.06-1.23-.16 2.31-.34 4.46-.44 6.61-.16 3.4-.37 6.8-.36 10.2.03 16.4.11 32.81.21 49.21.01 2.33.23 4.66.43 6.98.25 2.89 1 3.61 3.9 3.82.7.04 1.27.08 1.07 1.16zM1107 1698.31c3.22 0 3.22-5 0-5s-3.23 5 0 5z" fill="#fff"/></svg>