<svg version="1.1" id="Layer_1" xmlns="http://www.w3.org/2000/svg" x="0" y="0" viewBox="0 0 145.5 977.2" xml:space="preserve"><path d="M81.7 594.8c-1.6 15.6-.7 31.2-.7 46.8h11.7c-.5 1.5-1.6 2.7-2.6 4-1.1 1.3-2.3 2-4 1.8-1.6-.2-3.3 0-4.9 0 0 .3-.1.6-.1.8.4 6.8.8 13.5 1.2 20.2 0 .3.4.8.8.9 1.5.6 3 1 4.7 1.5 0 .2 0 .5.1.8-.2.1-.3.1-.4.1-6.2.1-12.5.1-18.7.2-.9 0-1.5-.1-1.3-1.2 1.5-.2 2.9-.3 4.3-.6.6-.1 1.2-.4 1.7-.7.9-.5 1.3-1.2 1.3-2.3.1-6 .2-12.1.4-18.1v-1.7H46.4c.1-.2.3-.5.5-.8 9.9-16.9 19.8-33.8 29.6-50.7.5-.8.9-1.1 1.9-1 .9.1 2 0 3.3 0zm-6.5 7.6c-7.7 13.3-15.2 26.3-22.8 39.5h22.8v-39.5zM50.1 565c.4.5.7.8.9 1 4 4.8 9.1 7.7 15.5 7.7 5.5 0 9.6-2.3 12.3-7.2 2.5-4.6 3.1-9.5 2.9-14.6-.2-3.7-.9-7.2-2.4-10.5-3.9-8.3-11.2-11.1-19.1-9.7-1.8.3-3.6.8-5.5 1.2.8-11.1.5-22.1.3-33.5h33.9c-.3.5-.8 1.2-1.3 1.8-2.1 2.1-4.6 3.2-7.6 3.3-5.8.2-11.6.5-17.4.7-.3 0-.5 0-.9.1-.6 8.2-.5 16.3 0 24.5.6 0 1.1-.1 1.7-.1 4.8-.2 9.7-.6 14.4 1.1 6.3 2.3 10 6.9 10.9 13.4 1.2 8.5-.4 16.4-5.9 23.2-4.5 5.6-10.3 8.4-17.5 8.8-4.3.2-8.6-.2-12.9-1.1-.7-.1-1.2-.3-1.5-1.1-.9-3-.9-5.8-.8-9zm10 161.9c0 .1 0 .1 0 0 .1-.5.1-.9.2-1.3 1.5-.2 3-.3 4.5-.7 6.4-1.8 9.8-6.3 11.3-12.5.8-3.4.8-6.9-.3-10.3-1.8-5.3-6.2-8.6-11.8-8.8-5.3-.2-9.8 1.5-12.7 6.2 0 .1-.1.1-.2.1l-.1-.1c-.7-3-.7-3 2-4.3 4.5-2.3 9.1-4.1 14.2-4.7 3-.3 6-.2 8.9.8 5.5 1.9 8.4 6.6 8 12.6-.3 4.2-2.1 7.8-4.6 11.2-3.1 4.2-6.7 7.8-11.5 10.2-.1 0-.1.2-.1.2 2.6.3 5.1.5 7.7.9 1.5.2 3 .7 4.5 1.3 6.5 2.5 9.7 7.5 10.1 14.4.7 12.1-6.3 19.3-15.7 23.3-3.2 1.4-6.6 2.1-10.1 2.1-4.4.1-8.9.1-13.2-1-.7-.2-1.2-.5-1.2-1.3-.3-2.9-.6-5.8-1-8.6.1 0 .2-.1.4-.1.2.2.5.5.7.8 4.7 4.9 10.4 7.8 17.2 8 4.9.2 8.7-1.9 11.5-5.9 3.4-4.8 4.2-10.2 3.8-15.9-.2-2-.5-4-1.1-5.9-1.9-6.1-6.4-9.3-12.6-10.2-3-.4-5.8-.3-8.8-.5zm19.6 232.4H63.1c-.2 0-.4.1-.6 0-.2-.1-.4-.3-.7-.5.2-.2.4-.4.6-.5l4.2-1.2c.7-.2 1-.7 1-1.5.8-15.1.8-30.3.6-45.4-.1-7.3-.4-14.5-.7-21.8 0-.2 0-.4-.1-.8-2.2.9-4.2 1.7-6.3 2.6-.6.2-1.4.8-1.8-.1-.4-.9.5-1.1 1.2-1.4 4.1-2 8.2-4.1 12.2-6.2.7-.3 1.3-.8 2.1-1.2-.2 2.3-.3 4.5-.4 6.6-.2 3.4-.4 6.8-.4 10.2 0 16.4.1 32.8.2 49.2 0 2.3.2 4.7.4 7 .2 2.9 1 3.6 3.9 3.8.8.1 1.3.1 1.2 1.2zm1.4-718.9c-3.7-1.7-6.6-4.1-8.9-7.3-5-6.9-4.7-17.6.6-24 2.5-3.1 5.9-4.8 9.7-5.8 4.5-1.1 9.1-1.5 13.6-.5 7.6 1.6 11.7 7.4 11.1 15.5-.7 9.2-6.2 14.6-14.2 18-.5.2-1 .4-1.6.7 2.5 1.2 4.9 2.4 7.3 3.6 3 1.6 5.8 3.5 7.9 6.1 2.8 3.5 3.6 7.6 3.2 12-.6 7.2-3.7 13-9.5 17.3-4.8 3.5-10.3 4.4-16.1 4-3.2-.2-6.4-.8-9.3-2.2-6.4-3-9.7-8.1-10-15.1-.5-9.6 4.8-15.8 12.4-20.5 1.1-.5 2.4-1.1 3.8-1.8zm21.9 19.4c0-5.4-2.7-10.4-8.9-13.3-3.4-1.6-6.8-3.1-10.1-4.7-1-.5-1.8-.4-2.7.2-8.2 5.2-11.7 15.3-8.6 24.7 2.1 6.5 6.2 10.8 13.3 11.6 6.1.6 11-1.5 14.2-6.8 2.1-3.2 2.8-6.7 2.8-11.7zm-1.8-42c0-4.4-1.2-8.4-4.7-11.4-4.5-3.8-12-3.3-16.5 1-4.3 4.1-5.5 9.2-4.6 15 .8 4.8 3.2 8.3 7.4 10.7 1.6.9 3.3 1.6 4.8 2.6 1.7 1.1 3.1.6 4.5-.5 5.5-4.6 9-10.1 9.1-17.4zm-51.7 62.6H32.9c-.2 0-.4.1-.6 0-.2-.1-.4-.3-.6-.5.2-.2.4-.4.6-.5l4.2-1.2c.7-.2 1-.7 1-1.5.8-15.1.8-30.3.6-45.4-.1-7.3-.4-14.5-.7-21.8 0-.2 0-.4-.1-.8-2.2.9-4.2 1.7-6.3 2.6-.6.2-1.4.8-1.8-.1-.4-.9.5-1.1 1.2-1.4 4.1-2 8.2-4.1 12.2-6.2.7-.3 1.3-.8 2.1-1.2-.2 2.3-.3 4.5-.4 6.6-.2 3.4-.4 6.8-.4 10.2 0 16.4.1 32.8.2 49.2 0 2.3.2 4.7.4 7 .2 2.9 1 3.6 3.9 3.8.7.1 1.3.2 1.1 1.2zm18.3-93.3c-.6-1.1 0-1.4.8-1.7 14-4.7 24.1-13.8 30.2-27.2 1.6-3.6 2.7-7.4 3.3-11.4-1.3 1-2.4 1.9-3.6 2.7-4.7 3.3-9.8 5.3-15.7 5-10.1-.4-16.8-5.9-18.6-15.8-1.4-7.8-.4-15.3 3.6-22.2 5.3-9 13.4-12.9 23.8-11.9 6.2.6 10.7 3.9 13.9 9.1 2.9 4.9 4.2 10.3 4.5 15.9.7 13.7-2.6 26.2-11.2 37.1-7.8 10-18 16.7-30.3 20.3-.2 0-.4.1-.7.1zm35.5-50.5c-.2-5.2-.8-10.3-2.3-15.3-1.2-4-2.8-7.7-5.6-10.9-4.5-5.1-14.2-7.4-19.8 1.3-.4.6-.8 1.3-1.2 2-3.3 6.1-4.5 12.6-3.7 19.5.5 4.6 1.8 9 4.5 12.8 2.9 4.2 6.8 6.5 11.9 6.2 6.4-.3 11.3-3.3 15-8.4.4-.5.5-1.2.6-1.8.3-1.9.4-3.7.6-5.4zm-54.2 48.1H32.5c-.2 0-.4.1-.6 0-.2-.1-.4-.3-.6-.5.2-.2.4-.4.6-.5l4.2-1.2c.7-.2 1-.7 1-1.5.8-15.1.8-30.3.6-45.4-.1-7.3-.4-14.5-.7-21.8 0-.2 0-.4-.1-.8-2.2.9-4.2 1.7-6.3 2.6-.6.2-1.4.8-1.8-.1-.4-.9.5-1.1 1.2-1.4 4.1-2 8.2-4.1 12.2-6.2.7-.3 1.3-.8 2.1-1.2-.2 2.3-.3 4.5-.4 6.6-.2 3.4-.4 6.8-.4 10.2 0 16.4.1 32.8.2 49.2 0 2.3.2 4.7.4 7 .2 2.9 1 3.6 3.9 3.8.8.1 1.3.1 1.1 1.2zM105 391.3c.4.9 0 1.1-.7 1.3-17.6 6-28.4 18.4-33.2 36.1-.2.9-.4 1.8-.6 2.9.4-.3.7-.5 1-.7 3.9-3 8.1-5.6 13.1-6.6s9.8-.6 14.4 1.6c5.7 2.7 8.6 7.6 9.6 13.6 1.3 7.8.4 15.4-3.7 22.4-3.7 6.2-8.9 10.3-16.2 11.7-11.5 2.1-20.4-3.2-24-14.3-1.5-4.7-2.1-9.5-2-14.5.1-8.4 1.7-16.5 5.4-24 5.3-10.7 13.5-18.5 23.9-24 3.9-2 8-3.5 12.1-5.2.3-.2.6-.2.9-.3zm-35.6 50.5c.2 5.7.9 11.4 2.7 16.8 1.3 3.9 3.1 7.5 6.3 10.4 4.7 4.1 13.1 5 18.2-1.3 1.9-2.3 3.2-4.9 4.2-7.7 1.9-5.4 2-10.9 1.3-16.4-.5-3.9-1.5-7.6-3.6-11-2.9-4.7-7.2-7.1-12.7-6.4-5.7.6-10.4 3.4-14.4 7.4-1 1-1.5 2.2-1.6 3.6-.2 1.4-.3 3-.4 4.6zm-19.2 29.9H33.6c-.2 0-.4.1-.6 0-.2-.1-.4-.3-.7-.5.2-.2.4-.4.6-.5l4.2-1.2c.7-.2 1-.7 1-1.5.8-15.1.8-30.3.6-45.4-.1-7.3-.4-14.5-.7-21.8 0-.2 0-.4-.1-.8-2.2.9-4.2 1.7-6.3 2.6-.6.2-1.4.8-1.8-.1-.4-.9.5-1.1 1.2-1.4 4.1-2 8.2-4.1 12.2-6.2.7-.3 1.3-.8 2.1-1.2-.2 2.3-.3 4.5-.4 6.6-.2 3.4-.4 6.8-.4 10.2 0 16.4.1 32.8.2 49.2 0 2.3.2 4.7.4 7 .2 2.9 1 3.6 3.9 3.8.8 0 1.4.1 1.2 1.2zm28-95.7h-8.7c11.8-23 21.6-47 33.1-70.4-.9-.1-1.6-.2-2.2-.2-6.9-.1-13.8-.2-20.8-.2-4.1 0-8.1.7-11.7 2.6-.1 0-.2 0-.7.1 1.5-2.6 2.9-5 4.3-7.3.6-1 1.5-1.4 2.7-1.3 4.5.2 9 .5 13.5.6 4.8.1 9.7-.1 14.6-.2 1.8 0 3.5-.2 5.3-.4-11.3 25.1-22.3 50.1-29.4 76.7zm-26.5 0H35.1c-.2 0-.4.1-.6 0-.2-.1-.4-.3-.7-.5.2-.2.4-.4.6-.5l4.2-1.2c.7-.2 1-.7 1-1.5.8-15.1.8-30.3.6-45.4-.1-7.3-.4-14.5-.7-21.8 0-.2 0-.4-.1-.8-2.2.9-4.2 1.7-6.3 2.6-.6.2-1.4.8-1.8-.1-.4-.9.5-1.1 1.2-1.4 4.1-2 8.2-4.1 12.2-6.2.7-.3 1.3-.8 2.1-1.2-.2 2.3-.3 4.5-.4 6.6-.2 3.4-.4 6.8-.4 10.2 0 16.4.1 32.8.2 49.2 0 2.3.2 4.7.4 7 .2 2.9 1 3.6 3.9 3.8.8.1 1.4.1 1.2 1.2zm40.8 476.6c-.1.2-.2.3-.3.5-.1.6-.1 1.2-.3 1.8-.6 2.4-1.2 3.2-4.3 3.2H56.4c-.4 0-.7 0-1.1-.1-.5-.1-.7-.4-.6-.8 14.2-12.4 29.9-28.9 35.5-43.6v-.1c.1-.3.3-.7.4-1.1.8-2.2 1.3-4.5 1.6-6.8 0-.4.1-.8.1-1.3v-2.5c-.1-1.2-.2-2.3-.5-3.5-1.2-5.1-3.9-8.8-8.3-10.9 0 0-.1 0-.1-.1-.8-.3-1.6-.7-2.4-.9-5.1-1.4-10.1-.7-14.8 1.4 0 0-.1 0-.1.1-.1 0-.2.1-.3.1-3.4 1.6-6.3 3.8-8.8 6.5-4 3.9-7.2 8.6-9.1 13.8h3.9c3.1-8.3 9.8-17 15.8-19.2 2.7-1.1 5.1-1.3 7.8-1.1 6.7 1.9 6.7 10 6.8 14.4.4 15.2-20.6 44.8-33.9 58.8l-1.3 1.3-.7.7H93v-10.3c-.2.1-.4-.1-.5-.3zm-41-775.3c-.1.2-.2.3-.3.5-.1.6-.1 1.2-.3 1.8-.6 2.4-1.2 3.2-4.3 3.2H15.4c-.4 0-.7 0-1.1-.1-.5-.1-.7-.4-.6-.8C27.8 69.5 43.6 53 49.1 38.3v-.1c.1-.3.3-.7.4-1.1.8-2.2 1.3-4.5 1.6-6.8 0-.4.1-.8.1-1.3v-2.5c-.1-1.2-.2-2.3-.5-3.5-1.2-5.1-3.9-8.8-8.3-10.9 0 0-.1 0-.1-.1-.8-.3-1.6-.7-2.4-.9-5.1-1.4-10.1-.7-14.8 1.4 0 0-.1 0-.1.1-.1 0-.2.1-.3.1-3.4 1.6-6.3 3.8-8.8 6.5-4 3.9-7.2 8.6-9.1 13.8h3.9c3.1-8.3 9.8-17 15.8-19.2 2.7-1.1 5.1-1.3 7.8-1.1 6.7 1.9 6.7 10 6.8 14.4.4 15.2-20.6 44.8-33.9 58.8l-1.3 1.3-.7.7h46.7V77.6c-.2.1-.3-.1-.4-.3zm88.2-21.7c4-21.6-9.2-42.2-31.8-46.5-22.6-4.2-42.4 10.3-46.5 31.8-4.1 21.7 9.2 42.2 31.8 46.5 22.7 4.3 42.4-10.1 46.5-31.8zM93.4 86.3C76.1 83.1 67 63.7 70.9 42.7c3.9-21 19.4-35.8 36.8-32.5s26.5 22.6 22.5 43.6c-3.9 21.1-19.4 35.8-36.8 32.5zm1028.2 739.1c3.2 0 3.2-5 0-5s-3.2 5 0 5z" fill="#fff"/></svg>