<?xml version="1.0" encoding="utf-8"?>
<!-- Generator: Adobe Illustrator 24.0.0, SVG Export Plug-In . SVG Version: 6.00 Build 0)  -->
<svg version="1.1" id="Layer_1" xmlns="http://www.w3.org/2000/svg" xmlns:xlink="http://www.w3.org/1999/xlink" x="0px" y="0px"
	 viewBox="0 0 138 48" style="enable-background:new 0 0 138 48;" xml:space="preserve">
<style type="text/css">
	.st0{clip-path:url(#SVGID_2_);fill:#FFFFFF;}
	.st1{clip-path:url(#SVGID_4_);}
	.st2{fill:none;}
</style>
<g>
	<defs>
		<polygon id="SVGID_1_" points="111.9,46 117.9,46 117.9,45.1 113,45.1 113,39 111.9,39 		"/>
	</defs>
	<clipPath id="SVGID_2_">
		<use xlink:href="#SVGID_1_"  style="overflow:visible;"/>
	</clipPath>
	<polygon class="st0" points="23.4,46 24.6,46 21,39 19.7,39 16.1,46 17.3,46 18.1,44.4 22.6,44.4 	"/>
	<polygon class="st0" points="18.5,43.5 20.3,39.8 22.1,43.5 	"/>
	<path class="st0" d="M28.2,46h1.1v-2.6h2.8c1.8,0,2.8-0.8,2.8-2.3c0-0.8-0.3-1.3-0.8-1.7c-0.5-0.3-1.3-0.5-2.2-0.5h-3.7V46z"/>
	<path class="st0" d="M29.3,42.6v-2.7H32c1.2,0,1.8,0.3,1.8,1.3c0,1-0.7,1.4-1.8,1.4C32,42.6,29.3,42.6,29.3,42.6z"/>
	<polygon class="st0" points="43.6,46 44.8,46 41.3,39 40,39 36.4,46 37.6,46 38.4,44.4 42.8,44.4 43.6,46 	"/>
	<polygon class="st0" points="38.8,43.5 40.6,39.8 42.4,43.5 	"/>
	<path class="st0" d="M47.7,46h1.1v-2.9h2.4c1,0,1.6,0.4,1.9,1.3l0.2,0.8c0.1,0.2,0.1,0.4,0.2,0.5c0,0.1,0.1,0.2,0.2,0.2h1.2
		c-0.2-0.2-0.3-0.4-0.4-0.9l-0.2-0.8c-0.2-0.9-0.8-1.4-1.4-1.5c0.9-0.1,1.7-0.7,1.7-1.8c0-0.7-0.2-1.2-0.7-1.5
		c-0.5-0.3-1.1-0.5-1.9-0.5h-4.2V46z"/>
	<path class="st0" d="M48.8,42.3v-2.5h2.9c0.9,0,1.6,0.2,1.6,1.1c0,1-0.6,1.3-1.7,1.3H48.8z"/>
	<polygon class="st0" points="60.8,46 61.9,46 61.9,39.9 65,39.9 65,39 57.7,39 57.7,39.9 60.8,39.9 	"/>
	<polygon class="st0" points="68.6,46 69.7,46 69.7,42.9 74.7,42.9 74.7,46 75.8,46 75.8,39 74.7,39 74.7,42 69.7,42 69.7,39 
		68.6,39 	"/>
	<path class="st0" d="M79.7,42.5c0,2.2,1.8,3.7,4.3,3.7c2.5,0,4.3-1.5,4.3-3.7c0-2.2-1.7-3.7-4.3-3.7C81.4,38.8,79.7,40.3,79.7,42.5
		z"/>
	<path class="st0" d="M87.1,42.5c0,1.7-1.3,2.8-3.1,2.8c-1.8,0-3.1-1-3.1-2.8c0-1.7,1.3-2.8,3.1-2.8C85.8,39.8,87.1,40.8,87.1,42.5z
		"/>
	<polygon class="st0" points="93.9,46 95,46 95,39.9 98.1,39.9 98.1,39 90.8,39 90.8,39.9 93.9,39.9 	"/>
	<polygon class="st0" points="101.7,46 108,46 108,45.1 102.8,45.1 102.8,42.9 107.1,42.9 107.1,42 102.8,42 102.8,39.9 107.9,39.9 
		107.9,39 101.7,39 	"/>
</g>
<g>
	<defs>
		<rect id="SVGID_3_" y="0" width="138" height="28"/>
	</defs>
	<clipPath id="SVGID_4_">
		<use xlink:href="#SVGID_3_"  style="overflow:visible;"/>
	</clipPath>
	<g class="st1">
		<path class="st2" d="M0,28"/>
	</g>
</g>
</svg>
