<svg width="83" height="17" viewBox="0 0 83 17" fill="none" xmlns="http://www.w3.org/2000/svg">
<g clip-path="url(#clip0)">
<path d="M62.6036 14.3201C62.5828 14.3616 62.5621 14.3824 62.5413 14.424C62.5206 14.5487 62.5206 14.6942 62.4791 14.8188C62.3338 15.3384 62.2301 15.5047 61.5661 15.5047C59.3458 15.5047 57.1256 15.5047 54.9053 15.5047C54.8223 15.5047 54.7601 15.5047 54.6771 15.4839C54.5733 15.4631 54.5318 15.4008 54.5318 15.3176C57.5406 12.6783 60.9021 9.16604 62.0848 6.02789C62.1056 5.94476 62.1471 5.88242 62.1678 5.79929C62.3338 5.32129 62.4583 4.8433 62.4998 4.34452C62.4998 4.26139 62.5206 4.15748 62.5206 4.07435C62.5206 4.012 62.5206 3.92887 62.5206 3.86653C62.5206 3.80418 62.5206 3.74183 62.5206 3.67948C62.5206 3.6587 62.5206 3.63792 62.5206 3.61714C62.5206 3.59635 62.5206 3.55479 62.5206 3.53401C62.4998 3.28462 62.4791 3.03523 62.4168 2.78584C62.1678 1.70516 61.5868 0.915425 60.6323 0.478994C60.6323 0.478994 60.6116 0.478994 60.6116 0.458212C60.4456 0.375082 60.2796 0.312735 60.0928 0.27117C59.0138 -0.0405657 57.9556 0.104911 56.9388 0.562124C56.9388 0.562124 56.9181 0.562124 56.9181 0.582906C56.8973 0.582906 56.8766 0.603689 56.8558 0.603689C56.1296 0.956989 55.5278 1.4142 54.9883 1.97533C54.1376 2.80662 53.4528 3.80418 53.0586 4.92643H53.8886C54.5526 3.15992 55.9636 1.31029 57.2501 0.832295C57.8103 0.603689 58.3291 0.541341 58.9101 0.603689C60.3211 1.01934 60.3418 2.74428 60.3626 3.67948C60.4456 6.92154 55.9843 13.2394 53.1416 16.2113C53.0586 16.2944 52.9548 16.3983 52.8718 16.4814C52.8303 16.523 52.7888 16.5646 52.7266 16.6477C56.0466 16.6477 59.3458 16.6477 62.6658 16.6477C62.6658 16.1697 62.6658 15.7125 62.6658 15.2553C62.6658 14.9851 62.6658 14.7357 62.6658 14.4655C62.6451 14.4032 62.6036 14.3616 62.6036 14.3201Z" fill="white"/>
<path d="M2.26175 0.4375H0V16.6893H1.909V12.4497H2.241C6.142 12.4497 8.36225 9.87271 8.36225 6.4644C8.383 3.01452 6.142 0.4375 2.26175 0.4375ZM2.26175 12.2211H1.909V0.666106H2.241C4.897 0.666106 6.45325 3.07686 6.45325 6.4644C6.474 9.85192 4.91775 12.2211 2.26175 12.2211Z" fill="white"/>
<path d="M81.4654 3.72056C78.8509 -0.103396 73.7879 -1.22565 69.7624 1.53841C65.7369 4.30247 64.9484 9.43572 67.5629 13.2805C70.1982 17.146 75.2612 18.2475 79.2867 15.4834C83.3122 12.6986 84.1007 7.58609 81.4654 3.72056ZM79.1414 15.2756C76.0497 17.3954 71.7959 15.8575 69.2437 12.1167C66.6914 8.37582 66.7952 3.84526 69.8869 1.72545C72.9787 -0.394349 77.2324 1.14355 79.7847 4.88438C82.3369 8.62521 82.2332 13.1558 79.1414 15.2756Z" fill="white"/>
<path d="M40.836 8.7293H40.2135H34.113V9.60216H39.3835C39.5703 11.6596 38.9685 13.5508 37.5368 14.8393C36.935 15.3381 36.2918 15.7122 35.5655 15.9616C32.6813 16.8968 29.2575 15.3173 27.0788 12.1168C24.5265 8.376 24.6303 3.84544 27.722 1.72563C30.8138 -0.394169 35.0675 1.14373 37.6198 4.88456H38.927C38.927 4.90534 38.9478 4.90534 38.9478 4.92612H39.8193C39.8193 4.90534 39.7985 4.90534 39.7985 4.88456H39.9438C39.757 4.48969 39.5495 4.09483 39.2798 3.72074C36.9558 0.270867 32.5983 -0.976076 28.8218 0.831992C25.9168 2.14128 23.8625 5.0716 23.8418 8.41756C23.8418 11.3687 25.315 13.9665 27.5975 15.4628C30.3365 17.3956 34.03 17.5618 37.1218 15.442C37.931 14.8809 38.595 14.2366 39.1345 13.53L39.3005 16.6474H39.9023H40.6493L40.836 8.7293Z" fill="white"/>
<path d="M16.9116 0.4375H15.0026L15.5836 2.66122C15.6044 2.72356 15.6044 2.76513 15.5836 2.82748L11.9316 16.6893H12.3674L15.7911 3.49251L19.2356 16.6893H21.1446L16.9116 0.4375Z" fill="white"/>
<path d="M44.8809 0.458984V0.666808V8.73038V8.95898V16.4614V16.6693H46.7899H48.6781V16.4614V16.2536H46.7899V9.04211H48.6781V8.83429V8.62646H46.7899V0.874632H48.6781V0.666808V0.458984H46.7899H44.8809Z" fill="white"/>
</g>
<defs>
<clipPath id="clip0">
<rect width="83" height="17" fill="white"/>
</clipPath>
</defs>
</svg>
