<?xml version="1.0" encoding="utf-8"?>
<!-- Generator: Adobe Illustrator 24.0.0, SVG Export Plug-In . SVG Version: 6.00 Build 0)  -->
<svg version="1.1" id="Layer_1" xmlns="http://www.w3.org/2000/svg" xmlns:xlink="http://www.w3.org/1999/xlink" x="0px" y="0px"
	 viewBox="0 0 116.26 1850.13" style="enable-background:new 0 0 116.26 1850.13;" xml:space="preserve">
<style type="text/css">
	.st0{fill:#FFFFFF;}
</style>
<g>
	<path class="st0" d="M48.58,1122.85c-3.67-1.74-6.57-4.15-8.87-7.31c-4.97-6.85-4.74-17.6,0.57-23.97c2.54-3.05,5.88-4.83,9.66-5.8
		c4.5-1.15,9.06-1.46,13.62-0.49c7.58,1.62,11.72,7.4,11.11,15.51c-0.69,9.2-6.24,14.56-14.19,18.03c-0.51,0.22-1.03,0.44-1.6,0.69
		c2.51,1.24,4.92,2.38,7.28,3.61c3.01,1.56,5.75,3.48,7.91,6.14c2.85,3.51,3.59,7.59,3.2,11.97c-0.64,7.16-3.71,13.01-9.53,17.3
		c-4.8,3.53-10.3,4.43-16.1,4.02c-3.22-0.22-6.36-0.82-9.32-2.18c-6.44-2.96-9.67-8.09-10-15.07c-0.45-9.59,4.77-15.81,12.42-20.51
		C45.91,1124.07,47.18,1123.55,48.58,1122.85z M70.54,1142.17c-0.01-5.36-2.67-10.42-8.89-13.32c-3.35-1.56-6.75-3.05-10.08-4.66
		c-1.03-0.5-1.77-0.38-2.7,0.21c-8.16,5.23-11.71,15.27-8.58,24.72c2.14,6.46,6.25,10.83,13.33,11.57
		c6.07,0.63,10.96-1.45,14.22-6.79C69.81,1150.7,70.48,1147.17,70.54,1142.17z M68.7,1100.16c-0.02-4.42-1.19-8.42-4.69-11.37
		c-4.52-3.81-12.02-3.33-16.48,0.96c-4.3,4.14-5.51,9.24-4.57,15c0.78,4.76,3.24,8.34,7.39,10.74c1.58,0.91,3.3,1.61,4.85,2.57
		c1.7,1.06,3.11,0.64,4.48-0.51C65.09,1113.01,68.61,1107.47,68.7,1100.16z"/>
	<path class="st0" d="M35.68,1069.41c-0.61-1.11-0.02-1.4,0.82-1.68c14.03-4.68,24.09-13.8,30.22-27.23
		c1.63-3.58,2.68-7.36,3.32-11.43c-1.29,0.97-2.42,1.86-3.6,2.69c-4.71,3.33-9.83,5.27-15.72,5.04
		c-10.08-0.39-16.79-5.9-18.56-15.83c-1.39-7.78-0.44-15.34,3.63-22.25c5.34-9.05,13.43-12.95,23.81-11.95
		c6.16,0.59,10.74,3.87,13.92,9.14c2.95,4.9,4.22,10.3,4.52,15.92c0.72,13.69-2.62,26.21-11.19,37.1
		c-7.93,10.07-18.15,16.79-30.45,20.34C36.18,1069.33,35.95,1069.36,35.68,1069.41z M71.19,1018.84
		c-0.18-5.19-0.78-10.29-2.27-15.27c-1.19-3.98-2.79-7.74-5.56-10.93c-4.47-5.14-14.18-7.44-19.83,1.29
		c-0.41,0.64-0.82,1.29-1.19,1.96c-3.35,6.09-4.48,12.6-3.67,19.47c0.54,4.61,1.83,8.97,4.51,12.82c2.88,4.16,6.82,6.46,11.93,6.24
		c6.37-0.27,11.3-3.33,15.01-8.42c0.36-0.49,0.53-1.19,0.6-1.81C70.93,1022.42,71.04,1020.63,71.19,1018.84z"/>
	<path class="st0" d="M73.87,1273.59c0.44,0.86-0.01,1.08-0.69,1.31c-17.61,6.04-28.37,18.36-33.18,36.15
		c-0.24,0.88-0.38,1.78-0.61,2.89c0.44-0.32,0.71-0.5,0.97-0.69c3.95-3.01,8.12-5.62,13.07-6.6c4.96-0.98,9.84-0.59,14.45,1.58
		c5.74,2.71,8.64,7.58,9.64,13.64c1.29,7.84,0.44,15.4-3.67,22.36c-3.68,6.22-8.94,10.31-16.19,11.66
		c-11.45,2.13-20.37-3.16-24.02-14.32c-1.54-4.7-2.07-9.55-2.01-14.46c0.1-8.38,1.65-16.47,5.39-24.04
		c5.28-10.69,13.48-18.55,23.93-24.04c3.86-2.03,8.04-3.48,12.07-5.18C73.28,1273.72,73.58,1273.67,73.87,1273.59z M38.28,1324.09
		c0.18,5.73,0.87,11.35,2.69,16.8c1.31,3.92,3.12,7.55,6.29,10.35c4.66,4.12,13.07,4.97,18.18-1.34c1.88-2.31,3.22-4.9,4.21-7.69
		c1.9-5.35,1.96-10.86,1.27-16.4c-0.48-3.89-1.48-7.64-3.57-11.02c-2.93-4.73-7.2-7.06-12.73-6.44c-5.66,0.63-10.37,3.41-14.37,7.4
		c-0.99,0.98-1.51,2.16-1.6,3.56C38.56,1320.9,38.41,1322.5,38.28,1324.09z"/>
	<path class="st0" d="M67.08,1467.73c-1.6,15.56-0.72,31.15-0.67,46.75c3.91,0,7.77,0,11.69,0c-0.46,1.53-1.59,2.71-2.62,3.98
		c-1.06,1.31-2.28,1.97-4.04,1.78c-1.62-0.17-3.27-0.04-4.94-0.04c-0.04,0.34-0.1,0.56-0.09,0.78c0.38,6.75,0.75,13.5,1.17,20.25
		c0.02,0.34,0.42,0.82,0.76,0.94c1.5,0.55,3.04,0.99,4.68,1.51c0.02,0.19,0.04,0.52,0.07,0.85c-0.17,0.05-0.28,0.1-0.38,0.1
		c-6.23,0.08-12.46,0.14-18.69,0.22c-0.89,0.01-1.54-0.12-1.33-1.23c1.46-0.2,2.9-0.35,4.32-0.61c0.59-0.11,1.16-0.38,1.69-0.67
		c0.88-0.49,1.3-1.18,1.32-2.3c0.07-6.04,0.24-12.08,0.38-18.12c0.01-0.53,0-1.06,0-1.66c-9.62,0-19.16,0-28.81,0
		c0.13-0.23,0.3-0.53,0.48-0.83c9.89-16.91,19.78-33.82,29.64-50.74c0.47-0.81,0.91-1.12,1.87-1
		C64.66,1467.84,65.78,1467.73,67.08,1467.73z M60.51,1475.3c-7.71,13.34-15.22,26.34-22.81,39.48c7.81,0,15.33,0,22.81,0
		C60.51,1501.67,60.51,1488.64,60.51,1475.3z"/>
	<path class="st0" d="M35.45,1437.88c0.43,0.49,0.67,0.76,0.9,1.04c4.05,4.79,9.07,7.68,15.47,7.73c5.48,0.04,9.61-2.34,12.29-7.16
		c2.54-4.57,3.13-9.52,2.87-14.64c-0.19-3.65-0.87-7.2-2.43-10.54c-3.86-8.28-11.17-11.05-19.13-9.72
		c-1.84,0.31-3.64,0.78-5.46,1.17c0.8-11.05,0.47-22.11,0.3-33.51c11.29,0,22.54,0,33.86,0c-0.35,0.48-0.75,1.21-1.31,1.77
		c-2.08,2.08-4.62,3.22-7.57,3.34c-5.8,0.25-11.61,0.46-17.41,0.68c-0.26,0.01-0.52,0.03-0.92,0.05c-0.58,8.15-0.52,16.26,0,24.5
		c0.62-0.04,1.13-0.08,1.65-0.1c4.85-0.2,9.73-0.61,14.41,1.09c6.28,2.29,9.96,6.9,10.91,13.42c1.24,8.47-0.39,16.37-5.86,23.19
		c-4.47,5.57-10.34,8.45-17.45,8.75c-4.33,0.18-8.63-0.2-12.87-1.13c-0.65-0.14-1.2-0.29-1.45-1.07
		C35.33,1443.94,35.36,1441.07,35.45,1437.88z"/>
	<path class="st0" d="M45.45,1599.86c0.02,0.1-0.02,0.03-0.01-0.04c0.06-0.42,0.12-0.83,0.19-1.24c1.52-0.24,3.05-0.34,4.51-0.74
		c6.38-1.77,9.82-6.3,11.28-12.49c0.81-3.43,0.79-6.9-0.34-10.3c-1.77-5.32-6.19-8.59-11.78-8.77c-5.34-0.18-9.76,1.51-12.73,6.19
		c-0.03,0.05-0.13,0.07-0.2,0.1c-0.05-0.04-0.13-0.08-0.14-0.13c-0.68-2.96-0.68-2.96,2-4.31c4.49-2.27,9.11-4.13,14.16-4.68
		c3.03-0.33,6.04-0.18,8.94,0.84c5.49,1.93,8.44,6.63,8.03,12.6c-0.29,4.25-2.11,7.85-4.56,11.19c-3.09,4.21-6.74,7.8-11.46,10.19
		c-0.08,0.04-0.12,0.16-0.14,0.18c2.56,0.3,5.14,0.51,7.67,0.93c1.53,0.25,3.05,0.72,4.5,1.29c6.54,2.54,9.65,7.53,10.07,14.37
		c0.74,12.05-6.27,19.34-15.72,23.33c-3.23,1.37-6.63,2.06-10.14,2.14c-4.44,0.11-8.86,0.07-13.22-0.96
		c-0.74-0.17-1.16-0.54-1.24-1.26c-0.33-2.87-0.63-5.75-0.95-8.62c0.12-0.04,0.25-0.09,0.37-0.13c0.24,0.25,0.48,0.51,0.72,0.76
		c4.71,4.88,10.4,7.76,17.21,8.02c4.86,0.18,8.71-1.92,11.5-5.92c3.35-4.82,4.23-10.25,3.77-15.94c-0.16-2-0.51-4.04-1.11-5.94
		c-1.95-6.11-6.41-9.33-12.6-10.18C51.25,1599.94,48.41,1600,45.45,1599.86z"/>
	<path class="st0" d="M45.67,1257.63c-2.78,0-5.75,0-8.73,0c11.84-23,21.55-47.01,33.1-70.35c-0.88-0.1-1.55-0.23-2.21-0.24
		c-6.92-0.09-13.84-0.22-20.76-0.21c-4.08,0-8.06,0.68-11.74,2.62c-0.09,0.05-0.2,0.04-0.73,0.12c1.54-2.6,2.9-4.96,4.34-7.26
		c0.6-0.96,1.52-1.37,2.74-1.3c4.5,0.24,9.01,0.51,13.52,0.57c4.85,0.06,9.71-0.09,14.56-0.19c1.75-0.04,3.5-0.23,5.34-0.35
		C63.71,1205.98,52.69,1230.97,45.67,1257.63z"/>
	<path class="st0" d="M65.01,1832.21c-0.29,0-0.55,0-0.81,0c-5.27,0-10.55,0-15.82,0c-0.19,0-0.41,0.06-0.57-0.01
		c-0.24-0.11-0.43-0.31-0.65-0.48c0.2-0.17,0.36-0.43,0.59-0.5c1.39-0.41,2.79-0.77,4.18-1.17c0.71-0.21,0.96-0.7,1-1.46
		c0.78-15.13,0.83-30.27,0.63-45.41c-0.09-7.26-0.43-14.52-0.66-21.78c-0.01-0.22-0.05-0.43-0.1-0.78
		c-2.17,0.88-4.25,1.73-6.33,2.56c-0.6,0.24-1.4,0.83-1.77-0.09c-0.36-0.91,0.52-1.08,1.21-1.42c4.1-2.02,8.17-4.12,12.23-6.21
		c0.67-0.34,1.3-0.77,2.06-1.23c-0.16,2.31-0.34,4.46-0.44,6.61c-0.16,3.4-0.37,6.8-0.36,10.2c0.03,16.4,0.11,32.81,0.21,49.21
		c0.01,2.33,0.23,4.66,0.43,6.98c0.25,2.89,1,3.61,3.9,3.82C64.64,1831.09,65.2,1831.14,65.01,1832.21z"/>
	<g>
		<path class="st0" d="M66.41,166.22c-3.67-1.74-6.57-4.15-8.87-7.31c-4.97-6.85-4.74-17.6,0.57-23.97c2.54-3.05,5.88-4.83,9.66-5.8
			c4.5-1.15,9.06-1.46,13.62-0.49c7.58,1.62,11.72,7.4,11.11,15.51c-0.69,9.2-6.24,14.56-14.19,18.03c-0.51,0.22-1.03,0.44-1.6,0.69
			c2.51,1.24,4.92,2.38,7.28,3.61c3.01,1.56,5.75,3.48,7.91,6.14c2.85,3.51,3.59,7.59,3.2,11.97c-0.64,7.16-3.71,13.01-9.53,17.3
			c-4.8,3.53-10.3,4.43-16.1,4.02c-3.22-0.22-6.36-0.82-9.32-2.18c-6.44-2.96-9.67-8.09-10-15.07c-0.45-9.59,4.77-15.81,12.42-20.51
			C63.74,167.44,65.01,166.92,66.41,166.22z M88.37,185.54c-0.01-5.36-2.67-10.42-8.89-13.32c-3.36-1.56-6.75-3.05-10.08-4.66
			c-1.03-0.5-1.77-0.38-2.7,0.21c-8.16,5.23-11.71,15.27-8.58,24.72c2.14,6.46,6.25,10.83,13.33,11.57
			c6.07,0.63,10.96-1.45,14.22-6.79C87.64,194.07,88.31,190.54,88.37,185.54z M86.53,143.53c-0.02-4.42-1.19-8.42-4.69-11.37
			c-4.52-3.81-12.02-3.33-16.48,0.96c-4.3,4.14-5.51,9.24-4.57,15c0.78,4.76,3.24,8.34,7.39,10.74c1.58,0.91,3.3,1.61,4.85,2.57
			c1.7,1.06,3.11,0.64,4.48-0.51C82.92,156.38,86.44,150.84,86.53,143.53z"/>
		<path class="st0" d="M34.86,206.22c-0.29,0-0.55,0-0.81,0c-5.27,0-10.55,0-15.82,0c-0.19,0-0.41,0.06-0.57-0.01
			c-0.24-0.11-0.43-0.31-0.65-0.48c0.2-0.17,0.36-0.43,0.59-0.5c1.39-0.41,2.79-0.77,4.18-1.17c0.71-0.21,0.96-0.7,1-1.46
			c0.78-15.13,0.83-30.27,0.63-45.41c-0.09-7.26-0.43-14.52-0.66-21.78c-0.01-0.22-0.05-0.43-0.1-0.78
			c-2.17,0.88-4.25,1.73-6.33,2.56c-0.6,0.24-1.4,0.83-1.77-0.09c-0.36-0.91,0.52-1.08,1.21-1.42c4.1-2.02,8.17-4.12,12.23-6.21
			c0.67-0.34,1.3-0.77,2.06-1.23c-0.16,2.31-0.34,4.46-0.44,6.61c-0.16,3.4-0.37,6.8-0.36,10.2c0.03,16.4,0.11,32.81,0.21,49.21
			c0.01,2.33,0.23,4.66,0.43,6.98c0.25,2.89,1,3.61,3.9,3.82C34.49,205.1,35.05,205.15,34.86,206.22z"/>
	</g>
	<g>
		<path class="st0" d="M53.14,112.9c-0.61-1.11-0.02-1.4,0.82-1.68c14.03-4.68,24.09-13.8,30.22-27.23
			c1.63-3.58,2.68-7.36,3.32-11.43c-1.29,0.97-2.42,1.86-3.6,2.69c-4.71,3.33-9.83,5.27-15.72,5.04
			c-10.08-0.39-16.79-5.9-18.56-15.83c-1.39-7.78-0.44-15.34,3.63-22.25c5.34-9.05,13.43-12.95,23.81-11.95
			c6.16,0.59,10.74,3.87,13.92,9.14c2.95,4.9,4.22,10.3,4.52,15.92c0.72,13.69-2.62,26.21-11.19,37.1
			c-7.93,10.07-18.15,16.79-30.45,20.34C53.63,112.82,53.41,112.85,53.14,112.9z M88.65,62.33c-0.18-5.19-0.78-10.29-2.27-15.27
			c-1.19-3.98-2.79-7.74-5.56-10.93c-4.47-5.14-14.18-7.44-19.83,1.29c-0.41,0.64-0.82,1.29-1.19,1.96
			c-3.35,6.09-4.48,12.6-3.67,19.47c0.54,4.61,1.83,8.97,4.51,12.82c2.88,4.16,6.82,6.46,11.93,6.24c6.37-0.27,11.3-3.33,15.01-8.42
			c0.36-0.49,0.53-1.19,0.6-1.81C88.38,65.91,88.49,64.12,88.65,62.33z"/>
		<path class="st0" d="M34.48,110.49c-0.29,0-0.55,0-0.81,0c-5.27,0-10.55,0-15.82,0c-0.19,0-0.41,0.06-0.57-0.01
			c-0.24-0.11-0.43-0.31-0.65-0.48c0.2-0.17,0.36-0.43,0.59-0.5c1.39-0.41,2.79-0.77,4.18-1.17c0.71-0.21,0.96-0.7,1-1.46
			c0.78-15.13,0.83-30.27,0.63-45.41c-0.09-7.26-0.43-14.52-0.66-21.78c-0.01-0.22-0.05-0.43-0.1-0.78
			c-2.17,0.88-4.25,1.73-6.33,2.56c-0.6,0.24-1.4,0.83-1.77-0.09c-0.36-0.91,0.52-1.08,1.21-1.42c4.1-2.02,8.17-4.12,12.23-6.21
			c0.67-0.34,1.3-0.77,2.06-1.23c-0.16,2.31-0.34,4.46-0.44,6.61c-0.16,3.4-0.37,6.8-0.36,10.2c0.03,16.4,0.11,32.81,0.21,49.21
			c0.01,2.33,0.23,4.66,0.43,6.98c0.25,2.89,1,3.61,3.9,3.82C34.11,109.37,34.67,109.42,34.48,110.49z"/>
	</g>
	<g>
		<path class="st0" d="M53.79,481.37c0.43,0.49,0.67,0.76,0.9,1.04c4.05,4.79,9.07,7.68,15.47,7.73c5.48,0.04,9.61-2.34,12.29-7.16
			c2.54-4.57,3.13-9.52,2.87-14.64c-0.19-3.65-0.87-7.2-2.43-10.54c-3.86-8.28-11.17-11.05-19.13-9.72
			c-1.84,0.31-3.64,0.78-5.46,1.17c0.8-11.05,0.47-22.11,0.3-33.51c11.29,0,22.54,0,33.86,0c-0.35,0.48-0.75,1.21-1.31,1.77
			c-2.08,2.08-4.62,3.22-7.57,3.34c-5.8,0.25-11.61,0.46-17.41,0.68c-0.26,0.01-0.52,0.03-0.92,0.05c-0.58,8.15-0.52,16.26,0,24.5
			c0.62-0.04,1.13-0.08,1.65-0.1c4.85-0.2,9.73-0.61,14.41,1.09c6.28,2.29,9.96,6.9,10.91,13.42c1.24,8.47-0.39,16.37-5.86,23.19
			c-4.47,5.57-10.34,8.45-17.45,8.75c-4.33,0.18-8.63-0.2-12.87-1.13c-0.65-0.14-1.2-0.29-1.45-1.07
			C53.68,487.43,53.7,484.56,53.79,481.37z"/>
		<path class="st0" d="M37.45,493.09c-0.29,0-0.55,0-0.81,0c-5.27,0-10.55,0-15.82,0c-0.19,0-0.41,0.06-0.57-0.01
			c-0.24-0.11-0.43-0.31-0.65-0.48c0.2-0.17,0.36-0.43,0.59-0.5c1.39-0.41,2.79-0.77,4.18-1.17c0.71-0.21,0.96-0.7,1-1.46
			c0.78-15.13,0.83-30.27,0.63-45.41c-0.09-7.26-0.43-14.52-0.66-21.78c-0.01-0.22-0.05-0.43-0.1-0.78
			c-2.17,0.88-4.25,1.73-6.33,2.56c-0.6,0.24-1.4,0.83-1.77-0.09c-0.36-0.91,0.52-1.08,1.21-1.42c4.1-2.02,8.17-4.12,12.23-6.21
			c0.67-0.34,1.3-0.77,2.06-1.23c-0.16,2.31-0.34,4.46-0.44,6.61c-0.16,3.4-0.37,6.8-0.36,10.2c0.03,16.4,0.11,32.81,0.21,49.21
			c0.01,2.33,0.23,4.66,0.43,6.98c0.25,2.89,1,3.61,3.9,3.82C37.08,491.97,37.64,492.02,37.45,493.09z"/>
	</g>
	<g>
		<path class="st0" d="M90.31,317.08c0.44,0.86-0.01,1.08-0.69,1.31c-17.61,6.04-28.37,18.36-33.18,36.15
			c-0.24,0.88-0.38,1.78-0.61,2.89c0.44-0.32,0.71-0.5,0.97-0.69c3.95-3.01,8.12-5.62,13.07-6.6c4.96-0.98,9.84-0.59,14.45,1.58
			c5.74,2.71,8.64,7.58,9.64,13.64c1.29,7.84,0.44,15.4-3.67,22.36c-3.68,6.22-8.94,10.31-16.19,11.66
			c-11.45,2.13-20.37-3.16-24.02-14.32c-1.54-4.7-2.07-9.55-2.01-14.46c0.1-8.38,1.65-16.47,5.39-24.04
			c5.28-10.69,13.48-18.55,23.93-24.04c3.86-2.03,8.04-3.48,12.07-5.18C89.73,317.21,90.03,317.16,90.31,317.08z M54.73,367.58
			c0.18,5.73,0.87,11.35,2.69,16.8c1.31,3.92,3.12,7.55,6.29,10.35c4.66,4.12,13.07,4.97,18.18-1.34c1.88-2.31,3.22-4.9,4.21-7.69
			c1.9-5.35,1.96-10.86,1.27-16.4c-0.48-3.89-1.48-7.64-3.57-11.02c-2.93-4.73-7.2-7.06-12.73-6.44c-5.66,0.63-10.37,3.41-14.37,7.4
			c-0.99,0.98-1.51,2.16-1.6,3.56C55,364.39,54.85,365.99,54.73,367.58z"/>
		<path class="st0" d="M35.55,397.44c-0.29,0-0.55,0-0.81,0c-5.27,0-10.55,0-15.82,0c-0.19,0-0.41,0.06-0.57-0.01
			c-0.24-0.11-0.43-0.31-0.65-0.48c0.2-0.17,0.36-0.43,0.59-0.5c1.39-0.41,2.79-0.77,4.18-1.17c0.71-0.21,0.96-0.7,1-1.46
			c0.78-15.13,0.83-30.27,0.63-45.41c-0.09-7.26-0.43-14.52-0.66-21.78c-0.01-0.22-0.05-0.43-0.1-0.78
			c-2.17,0.88-4.25,1.73-6.33,2.56c-0.6,0.24-1.4,0.83-1.77-0.09c-0.36-0.91,0.52-1.08,1.21-1.42c4.1-2.02,8.17-4.12,12.23-6.21
			c0.67-0.34,1.3-0.77,2.06-1.23c-0.16,2.31-0.34,4.46-0.44,6.61c-0.16,3.4-0.37,6.8-0.36,10.2c0.03,16.4,0.11,32.81,0.21,49.21
			c0.01,2.33,0.23,4.66,0.43,6.98c0.25,2.89,1,3.61,3.9,3.82C35.18,396.32,35.74,396.37,35.55,397.44z"/>
	</g>
	<g>
		<path class="st0" d="M63.6,301.81c-2.78,0-5.75,0-8.73,0c11.84-23,21.55-47.01,33.1-70.35c-0.88-0.1-1.55-0.23-2.21-0.24
			c-6.92-0.09-13.84-0.22-20.76-0.21c-4.08,0-8.06,0.68-11.74,2.62c-0.09,0.05-0.2,0.04-0.73,0.12c1.54-2.6,2.9-4.96,4.34-7.26
			c0.6-0.96,1.52-1.37,2.74-1.3c4.5,0.24,9.01,0.51,13.52,0.57c4.85,0.06,9.71-0.09,14.56-0.19c1.75-0.04,3.5-0.23,5.34-0.35
			C81.65,250.17,70.63,275.16,63.6,301.81z"/>
		<path class="st0" d="M37.04,301.79c-0.29,0-0.55,0-0.81,0c-5.27,0-10.55,0-15.82,0c-0.19,0-0.41,0.06-0.57-0.01
			c-0.24-0.11-0.43-0.31-0.65-0.48c0.2-0.17,0.36-0.43,0.59-0.5c1.39-0.41,2.79-0.77,4.18-1.17c0.71-0.21,0.96-0.7,1-1.46
			c0.78-15.13,0.83-30.27,0.63-45.41c-0.09-7.26-0.43-14.52-0.66-21.78c-0.01-0.22-0.05-0.43-0.1-0.78
			c-2.17,0.88-4.25,1.73-6.33,2.56c-0.6,0.24-1.4,0.83-1.77-0.09c-0.36-0.91,0.52-1.08,1.21-1.42c4.1-2.02,8.17-4.12,12.23-6.21
			c0.67-0.34,1.3-0.77,2.06-1.23c-0.16,2.31-0.34,4.46-0.44,6.61c-0.16,3.4-0.37,6.8-0.36,10.2c0.03,16.4,0.11,32.81,0.21,49.21
			c0.01,2.33,0.23,4.66,0.43,6.98c0.25,2.89,1,3.61,3.9,3.82C36.67,300.67,37.24,300.72,37.04,301.79z"/>
	</g>
	<g>
		<path class="st0" d="M82.37,511.22c-1.6,15.56-0.72,31.15-0.67,46.75c3.91,0,7.77,0,11.69,0c-0.46,1.53-1.59,2.71-2.62,3.98
			c-1.06,1.31-2.28,1.97-4.04,1.78c-1.62-0.17-3.27-0.04-4.94-0.04c-0.04,0.34-0.1,0.56-0.09,0.78c0.38,6.75,0.75,13.5,1.17,20.25
			c0.02,0.34,0.42,0.82,0.76,0.94c1.5,0.55,3.04,0.99,4.68,1.51c0.02,0.19,0.04,0.52,0.07,0.85c-0.17,0.05-0.28,0.1-0.38,0.1
			c-6.23,0.08-12.46,0.14-18.69,0.22c-0.89,0.01-1.54-0.12-1.33-1.23c1.46-0.2,2.9-0.35,4.32-0.61c0.59-0.11,1.16-0.38,1.69-0.67
			c0.88-0.49,1.3-1.18,1.32-2.3c0.07-6.04,0.24-12.08,0.38-18.12c0.01-0.53,0-1.06,0-1.66c-9.62,0-19.16,0-28.81,0
			c0.13-0.23,0.3-0.53,0.48-0.83c9.89-16.91,19.78-33.82,29.64-50.74c0.47-0.81,0.91-1.12,1.87-1
			C79.95,511.33,81.07,511.22,82.37,511.22z M75.8,518.79c-7.71,13.34-15.22,26.34-22.81,39.48c7.81,0,15.33,0,22.81,0
			C75.8,545.16,75.8,532.13,75.8,518.79z"/>
		<path class="st0" d="M36.67,588.75c-0.29,0-0.55,0-0.81,0c-5.27,0-10.55,0-15.82,0c-0.19,0-0.41,0.06-0.57-0.01
			c-0.24-0.11-0.43-0.31-0.65-0.48c0.2-0.17,0.36-0.43,0.59-0.5c1.39-0.41,2.79-0.77,4.18-1.17c0.71-0.21,0.96-0.7,1-1.46
			c0.78-15.13,0.83-30.27,0.63-45.41c-0.09-7.26-0.43-14.52-0.66-21.78c-0.01-0.22-0.05-0.43-0.1-0.78
			c-2.17,0.88-4.25,1.73-6.33,2.56c-0.6,0.24-1.4,0.83-1.77-0.09c-0.36-0.91,0.52-1.08,1.21-1.42c4.1-2.02,8.17-4.12,12.23-6.21
			c0.67-0.34,1.3-0.77,2.06-1.23c-0.16,2.31-0.34,4.46-0.44,6.61c-0.16,3.4-0.37,6.8-0.36,10.2c0.03,16.4,0.11,32.81,0.21,49.21
			c0.01,2.33,0.23,4.66,0.43,6.98c0.25,2.89,1,3.61,3.9,3.82C36.3,587.63,36.86,587.67,36.67,588.75z"/>
	</g>
	<g>
		<path class="st0" d="M65.04,642.91c0.02,0.1-0.02,0.03-0.01-0.04c0.06-0.42,0.12-0.83,0.19-1.24c1.52-0.24,3.05-0.34,4.51-0.74
			c6.38-1.77,9.82-6.3,11.28-12.49c0.81-3.43,0.79-6.9-0.34-10.3c-1.77-5.32-6.19-8.59-11.78-8.77c-5.34-0.18-9.76,1.51-12.73,6.19
			c-0.03,0.05-0.13,0.07-0.2,0.1c-0.05-0.04-0.13-0.08-0.14-0.13c-0.68-2.96-0.68-2.96,2-4.31c4.49-2.27,9.11-4.13,14.16-4.68
			c3.03-0.33,6.04-0.18,8.94,0.84c5.49,1.93,8.44,6.63,8.03,12.6c-0.29,4.25-2.11,7.85-4.56,11.19c-3.09,4.21-6.74,7.8-11.46,10.19
			c-0.08,0.04-0.12,0.16-0.14,0.18c2.56,0.3,5.14,0.51,7.67,0.93c1.53,0.25,3.05,0.72,4.5,1.29c6.54,2.54,9.65,7.53,10.07,14.37
			c0.74,12.05-6.27,19.34-15.72,23.33c-3.23,1.37-6.63,2.06-10.14,2.14c-4.44,0.11-8.86,0.07-13.22-0.96
			c-0.74-0.17-1.16-0.54-1.24-1.26c-0.33-2.87-0.63-5.75-0.95-8.62c0.12-0.04,0.25-0.09,0.37-0.13c0.24,0.25,0.48,0.51,0.72,0.76
			c4.71,4.88,10.4,7.76,17.21,8.02c4.86,0.18,8.71-1.92,11.5-5.92c3.35-4.82,4.23-10.25,3.77-15.94c-0.16-2-0.51-4.04-1.11-5.94
			c-1.95-6.11-6.41-9.33-12.6-10.18C70.85,643,68,643.06,65.04,642.91z"/>
		<path class="st0" d="M34.97,684.46c-0.29,0-0.55,0-0.81,0c-5.27,0-10.55,0-15.82,0c-0.19,0-0.41,0.06-0.57-0.01
			c-0.24-0.11-0.43-0.31-0.65-0.48c0.2-0.17,0.36-0.43,0.59-0.5c1.39-0.41,2.79-0.77,4.18-1.17c0.71-0.21,0.96-0.7,1-1.46
			c0.78-15.13,0.83-30.27,0.63-45.41c-0.09-7.26-0.43-14.52-0.66-21.78c-0.01-0.22-0.05-0.43-0.1-0.78
			c-2.17,0.88-4.25,1.73-6.33,2.56c-0.6,0.24-1.4,0.83-1.77-0.09c-0.36-0.91,0.52-1.08,1.21-1.42c4.1-2.02,8.17-4.12,12.23-6.21
			c0.67-0.34,1.3-0.77,2.06-1.23c-0.16,2.31-0.34,4.46-0.44,6.61c-0.16,3.4-0.37,6.8-0.36,10.2c0.03,16.4,0.11,32.81,0.21,49.21
			c0.01,2.33,0.23,4.66,0.43,6.98c0.25,2.89,1,3.61,3.9,3.82C34.6,683.34,35.16,683.39,34.97,684.46z"/>
	</g>
	<path class="st0" d="M77.89,1725.54c-0.09,0.15-0.24,0.29-0.27,0.46c-0.12,0.61-0.14,1.24-0.3,1.83c-0.64,2.44-1.16,3.23-4.32,3.22
		c-10.42-0.03-20.83-0.01-31.25-0.02c-0.36,0-0.73-0.04-1.07-0.14c-0.46-0.14-0.66-0.42-0.64-0.79
		c14.16-12.37,29.94-28.88,35.46-43.56c0.01-0.02,0.01-0.03,0.02-0.05c0.13-0.35,0.26-0.7,0.38-1.05c0.81-2.23,1.34-4.5,1.55-6.81
		c0,0,0,0,0-0.01c0.04-0.42,0.06-0.84,0.07-1.26c0.01-0.33,0.02-0.66,0.01-0.99c0-0.29,0-0.58-0.02-0.87c0-0.08,0-0.16,0-0.24
		c-0.01-0.12-0.03-0.24-0.04-0.37c-0.08-1.17-0.23-2.34-0.5-3.53c-1.15-5.08-3.9-8.81-8.35-10.86c-0.03-0.02-0.06-0.04-0.09-0.06
		l-0.03,0c-0.77-0.35-1.57-0.66-2.45-0.9c-5.09-1.43-10.06-0.74-14.8,1.41l-0.01-0.01c-0.03,0.02-0.06,0.03-0.09,0.05
		c-0.09,0.04-0.17,0.07-0.26,0.11c-3.43,1.61-6.28,3.84-8.75,6.47c-4.01,3.89-7.19,8.59-9.1,13.84h3.9
		c3.1-8.28,9.78-16.98,15.78-19.17c2.65-1.11,5.12-1.34,7.83-1.08c6.65,1.9,6.72,10.04,6.85,14.41
		c0.43,15.22-20.57,44.83-33.89,58.75c-0.44,0.43-0.88,0.87-1.31,1.3c-0.21,0.21-0.41,0.43-0.69,0.73c15.61,0,31.08,0,46.66,0
		c0-2.24,0-4.41,0-6.57c0-1.24,0.01-2.48-0.01-3.72C78.15,1725.89,77.98,1725.72,77.89,1725.54z"/>
	<g>
		<path class="st0" d="M20.3,971.35c-0.29,0-0.55,0-0.81,0c-5.27,0-10.55,0-15.82,0c-0.19,0-0.41,0.06-0.57-0.01
			c-0.24-0.11-0.43-0.31-0.65-0.48c0.2-0.17,0.36-0.43,0.59-0.5c1.39-0.41,2.79-0.77,4.18-1.17c0.71-0.21,0.96-0.7,1-1.46
			c0.78-15.13,0.83-30.27,0.63-45.41c-0.09-7.26-0.43-14.52-0.66-21.78c-0.01-0.22-0.05-0.43-0.1-0.78
			c-2.17,0.88-4.25,1.73-6.33,2.56c-0.6,0.24-1.4,0.83-1.77-0.09c-0.36-0.91,0.52-1.08,1.21-1.42c4.1-2.02,8.17-4.12,12.23-6.21
			c0.67-0.34,1.3-0.77,2.06-1.23c-0.16,2.31-0.34,4.46-0.44,6.61c-0.16,3.4-0.37,6.8-0.36,10.2c0.03,16.4,0.11,32.81,0.21,49.21
			c0.01,2.33,0.23,4.66,0.43,6.98c0.25,2.89,1,3.61,3.9,3.82C19.93,970.23,20.5,970.28,20.3,971.35z"/>
		<path class="st0" d="M109.04,939.7c4.04-21.56-9.16-42.23-31.8-46.47c-22.64-4.24-42.43,10.24-46.48,31.8
			c-4.06,21.67,9.16,42.23,31.8,46.47C85.2,975.75,104.97,961.37,109.04,939.7z M62.76,970.42c-17.36-3.25-26.46-22.59-22.51-43.62
			c3.94-21.03,19.43-35.75,36.79-32.5c17.36,3.25,26.46,22.59,22.51,43.62C95.61,958.95,80.12,973.68,62.76,970.42z"/>
	</g>
	<g>
		<path class="st0" d="M96.15,769.24c-0.09,0.15-0.24,0.29-0.27,0.46c-0.12,0.61-0.14,1.24-0.3,1.83c-0.64,2.44-1.16,3.23-4.32,3.22
			c-10.42-0.03-20.83-0.01-31.25-0.02c-0.36,0-0.73-0.04-1.07-0.14c-0.46-0.14-0.66-0.42-0.64-0.79
			c14.16-12.37,29.94-28.88,35.46-43.56c0.01-0.02,0.01-0.03,0.02-0.05c0.13-0.35,0.26-0.7,0.38-1.05c0.81-2.23,1.34-4.5,1.55-6.82
			c0,0,0,0,0-0.01c0.04-0.42,0.06-0.84,0.07-1.26c0.01-0.33,0.02-0.66,0.01-0.99c0-0.29,0-0.58-0.02-0.87c0-0.08,0-0.16,0-0.24
			c-0.01-0.12-0.03-0.24-0.04-0.37c-0.08-1.17-0.23-2.34-0.5-3.53c-1.15-5.08-3.9-8.81-8.35-10.87c-0.03-0.02-0.06-0.04-0.09-0.06
			l-0.03,0c-0.77-0.35-1.57-0.66-2.45-0.9c-5.09-1.43-10.06-0.74-14.8,1.41l-0.01-0.01c-0.03,0.02-0.06,0.03-0.09,0.05
			c-0.09,0.04-0.17,0.07-0.26,0.11c-3.43,1.61-6.28,3.84-8.75,6.47c-4.01,3.89-7.19,8.59-9.1,13.84h3.9
			c3.1-8.28,9.78-16.98,15.78-19.17c2.65-1.11,5.12-1.34,7.83-1.08c6.65,1.9,6.72,10.04,6.85,14.41
			c0.43,15.22-20.57,44.83-33.89,58.75c-0.44,0.43-0.88,0.87-1.31,1.3c-0.21,0.21-0.41,0.43-0.69,0.73c15.61,0,31.08,0,46.66,0
			c0-2.24,0-4.41,0-6.57c0-1.24,0.01-2.48-0.01-3.72C96.41,769.6,96.24,769.42,96.15,769.24z"/>
		<path class="st0" d="M33.64,780.05c-0.29,0-0.55,0-0.81,0c-5.27,0-10.55,0-15.82,0c-0.19,0-0.41,0.06-0.57-0.01
			c-0.24-0.11-0.43-0.31-0.65-0.48c0.2-0.17,0.36-0.43,0.59-0.5c1.39-0.41,2.79-0.77,4.18-1.17c0.71-0.21,0.96-0.7,1-1.46
			c0.78-15.13,0.83-30.27,0.63-45.41c-0.09-7.26-0.43-14.52-0.66-21.78c-0.01-0.22-0.05-0.43-0.1-0.78
			c-2.17,0.88-4.25,1.73-6.33,2.56c-0.6,0.24-1.4,0.83-1.77-0.09c-0.36-0.91,0.52-1.08,1.21-1.42c4.1-2.02,8.17-4.12,12.23-6.21
			c0.67-0.34,1.3-0.77,2.06-1.23c-0.16,2.31-0.34,4.46-0.44,6.61c-0.16,3.4-0.37,6.8-0.36,10.2c0.03,16.4,0.11,32.81,0.21,49.21
			c0.01,2.33,0.23,4.66,0.43,6.98c0.25,2.89,1,3.61,3.9,3.82C33.26,778.93,33.83,778.97,33.64,780.05z"/>
	</g>
	<g>
		<path class="st0" d="M45.3,875.7c-0.29,0-0.55,0-0.81,0c-5.27,0-10.55,0-15.82,0c-0.19,0-0.41,0.06-0.57-0.01
			c-0.24-0.11-0.43-0.31-0.65-0.48c0.2-0.17,0.36-0.43,0.59-0.5c1.39-0.41,2.79-0.77,4.18-1.17c0.71-0.21,0.96-0.7,1-1.46
			c0.78-15.13,0.83-30.27,0.63-45.41c-0.09-7.26-0.43-14.52-0.66-21.78c-0.01-0.22-0.05-0.43-0.1-0.78
			c-2.17,0.88-4.25,1.73-6.33,2.56c-0.6,0.24-1.4,0.83-1.77-0.09c-0.36-0.91,0.52-1.08,1.21-1.42c4.1-2.02,8.17-4.12,12.23-6.21
			c0.67-0.34,1.3-0.77,2.06-1.23c-0.16,2.31-0.34,4.46-0.44,6.61c-0.16,3.4-0.37,6.8-0.36,10.2c0.03,16.4,0.11,32.81,0.21,49.21
			c0.01,2.33,0.23,4.66,0.43,6.98c0.25,2.89,1,3.61,3.9,3.82C44.93,874.58,45.49,874.62,45.3,875.7z"/>
		<path class="st0" d="M84.72,875.7c-0.29,0-0.55,0-0.81,0c-5.27,0-10.55,0-15.82,0c-0.19,0-0.41,0.06-0.57-0.01
			c-0.24-0.11-0.43-0.31-0.65-0.48c0.2-0.17,0.36-0.43,0.59-0.5c1.39-0.41,2.79-0.77,4.18-1.17c0.71-0.21,0.96-0.7,1-1.46
			c0.78-15.13,0.83-30.27,0.63-45.41c-0.09-7.26-0.43-14.52-0.66-21.78c-0.01-0.22-0.05-0.43-0.1-0.78
			c-2.17,0.88-4.25,1.73-6.33,2.56c-0.6,0.24-1.4,0.83-1.77-0.09c-0.36-0.91,0.52-1.08,1.21-1.42c4.1-2.02,8.17-4.12,12.23-6.21
			c0.67-0.34,1.3-0.77,2.06-1.23c-0.16,2.31-0.34,4.46-0.44,6.61c-0.16,3.4-0.37,6.8-0.36,10.2c0.03,16.4,0.11,32.81,0.21,49.21
			c0.01,2.33,0.23,4.66,0.43,6.98c0.25,2.89,1,3.61,3.9,3.82C84.35,874.58,84.92,874.62,84.72,875.7z"/>
	</g>
</g>
<g>
	<g>
		<path class="st0" d="M1107,1698.31c3.22,0,3.22-5,0-5C1103.78,1693.31,1103.77,1698.31,1107,1698.31L1107,1698.31z"/>
	</g>
</g>
</svg>
