<?xml version="1.0" encoding="utf-8"?>
<!-- Generator: Adobe Illustrator 24.0.0, SVG Export Plug-In . SVG Version: 6.00 Build 0)  -->
<svg version="1.1" id="Layer_1" xmlns="http://www.w3.org/2000/svg" xmlns:xlink="http://www.w3.org/1999/xlink" x="0px" y="0px"
	 viewBox="0 0 145.5 977.2" style="enable-background:new 0 0 145.5 977.2;" xml:space="preserve">
<style type="text/css">
	.st0{fill:#FFFFFF;}
</style>
<path class="st0" d="M81.7,594.8c-1.6,15.6-0.7,31.2-0.7,46.8c3.9,0,7.8,0,11.7,0c-0.5,1.5-1.6,2.7-2.6,4c-1.1,1.3-2.3,2-4,1.8
	c-1.6-0.2-3.3,0-4.9,0c0,0.3-0.1,0.6-0.1,0.8c0.4,6.8,0.8,13.5,1.2,20.2c0,0.3,0.4,0.8,0.8,0.9c1.5,0.6,3,1,4.7,1.5
	c0,0.2,0,0.5,0.1,0.8c-0.2,0.1-0.3,0.1-0.4,0.1c-6.2,0.1-12.5,0.1-18.7,0.2c-0.9,0-1.5-0.1-1.3-1.2c1.5-0.2,2.9-0.3,4.3-0.6
	c0.6-0.1,1.2-0.4,1.7-0.7c0.9-0.5,1.3-1.2,1.3-2.3c0.1-6,0.2-12.1,0.4-18.1c0-0.5,0-1.1,0-1.7c-9.6,0-19.2,0-28.8,0
	c0.1-0.2,0.3-0.5,0.5-0.8c9.9-16.9,19.8-33.8,29.6-50.7c0.5-0.8,0.9-1.1,1.9-1C79.3,594.9,80.4,594.8,81.7,594.8z M75.2,602.4
	c-7.7,13.3-15.2,26.3-22.8,39.5c7.8,0,15.3,0,22.8,0C75.2,628.8,75.2,615.7,75.2,602.4z"/>
<path class="st0" d="M50.1,565c0.4,0.5,0.7,0.8,0.9,1c4,4.8,9.1,7.7,15.5,7.7c5.5,0,9.6-2.3,12.3-7.2c2.5-4.6,3.1-9.5,2.9-14.6
	c-0.2-3.7-0.9-7.2-2.4-10.5c-3.9-8.3-11.2-11.1-19.1-9.7c-1.8,0.3-3.6,0.8-5.5,1.2c0.8-11.1,0.5-22.1,0.3-33.5c11.3,0,22.5,0,33.9,0
	c-0.3,0.5-0.8,1.2-1.3,1.8c-2.1,2.1-4.6,3.2-7.6,3.3c-5.8,0.2-11.6,0.5-17.4,0.7c-0.3,0-0.5,0-0.9,0.1c-0.6,8.2-0.5,16.3,0,24.5
	c0.6,0,1.1-0.1,1.7-0.1c4.8-0.2,9.7-0.6,14.4,1.1c6.3,2.3,10,6.9,10.9,13.4c1.2,8.5-0.4,16.4-5.9,23.2c-4.5,5.6-10.3,8.4-17.5,8.8
	c-4.3,0.2-8.6-0.2-12.9-1.1c-0.7-0.1-1.2-0.3-1.5-1.1C50,571,50,568.2,50.1,565z"/>
<path class="st0" d="M60.1,726.9C60.1,727,60.1,727,60.1,726.9c0.1-0.5,0.1-0.9,0.2-1.3c1.5-0.2,3-0.3,4.5-0.7
	c6.4-1.8,9.8-6.3,11.3-12.5c0.8-3.4,0.8-6.9-0.3-10.3c-1.8-5.3-6.2-8.6-11.8-8.8c-5.3-0.2-9.8,1.5-12.7,6.2c0,0.1-0.1,0.1-0.2,0.1
	c0,0-0.1-0.1-0.1-0.1c-0.7-3-0.7-3,2-4.3c4.5-2.3,9.1-4.1,14.2-4.7c3-0.3,6-0.2,8.9,0.8c5.5,1.9,8.4,6.6,8,12.6
	c-0.3,4.2-2.1,7.8-4.6,11.2c-3.1,4.2-6.7,7.8-11.5,10.2c-0.1,0-0.1,0.2-0.1,0.2c2.6,0.3,5.1,0.5,7.7,0.9c1.5,0.2,3,0.7,4.5,1.3
	c6.5,2.5,9.7,7.5,10.1,14.4c0.7,12.1-6.3,19.3-15.7,23.3c-3.2,1.4-6.6,2.1-10.1,2.1c-4.4,0.1-8.9,0.1-13.2-1
	c-0.7-0.2-1.2-0.5-1.2-1.3c-0.3-2.9-0.6-5.8-1-8.6c0.1,0,0.2-0.1,0.4-0.1c0.2,0.2,0.5,0.5,0.7,0.8c4.7,4.9,10.4,7.8,17.2,8
	c4.9,0.2,8.7-1.9,11.5-5.9c3.4-4.8,4.2-10.2,3.8-15.9c-0.2-2-0.5-4-1.1-5.9c-1.9-6.1-6.4-9.3-12.6-10.2
	C65.9,727,63.1,727.1,60.1,726.9z"/>
<path class="st0" d="M79.7,959.3c-0.3,0-0.6,0-0.8,0c-5.3,0-10.6,0-15.8,0c-0.2,0-0.4,0.1-0.6,0c-0.2-0.1-0.4-0.3-0.7-0.5
	c0.2-0.2,0.4-0.4,0.6-0.5c1.4-0.4,2.8-0.8,4.2-1.2c0.7-0.2,1-0.7,1-1.5c0.8-15.1,0.8-30.3,0.6-45.4c-0.1-7.3-0.4-14.5-0.7-21.8
	c0-0.2,0-0.4-0.1-0.8c-2.2,0.9-4.2,1.7-6.3,2.6c-0.6,0.2-1.4,0.8-1.8-0.1c-0.4-0.9,0.5-1.1,1.2-1.4c4.1-2,8.2-4.1,12.2-6.2
	c0.7-0.3,1.3-0.8,2.1-1.2c-0.2,2.3-0.3,4.5-0.4,6.6c-0.2,3.4-0.4,6.8-0.4,10.2c0,16.4,0.1,32.8,0.2,49.2c0,2.3,0.2,4.7,0.4,7
	c0.2,2.9,1,3.6,3.9,3.8C79.3,958.2,79.8,958.2,79.7,959.3z"/>
<g>
	<path class="st0" d="M81.1,240.4c-3.7-1.7-6.6-4.1-8.9-7.3c-5-6.9-4.7-17.6,0.6-24c2.5-3.1,5.9-4.8,9.7-5.8
		c4.5-1.1,9.1-1.5,13.6-0.5c7.6,1.6,11.7,7.4,11.1,15.5c-0.7,9.2-6.2,14.6-14.2,18c-0.5,0.2-1,0.4-1.6,0.7c2.5,1.2,4.9,2.4,7.3,3.6
		c3,1.6,5.8,3.5,7.9,6.1c2.8,3.5,3.6,7.6,3.2,12c-0.6,7.2-3.7,13-9.5,17.3c-4.8,3.5-10.3,4.4-16.1,4c-3.2-0.2-6.4-0.8-9.3-2.2
		c-6.4-3-9.7-8.1-10-15.1c-0.5-9.6,4.8-15.8,12.4-20.5C78.4,241.7,79.7,241.1,81.1,240.4z M103,259.8c0-5.4-2.7-10.4-8.9-13.3
		c-3.4-1.6-6.8-3.1-10.1-4.7c-1-0.5-1.8-0.4-2.7,0.2c-8.2,5.2-11.7,15.3-8.6,24.7c2.1,6.5,6.2,10.8,13.3,11.6
		c6.1,0.6,11-1.5,14.2-6.8C102.3,268.3,103,264.8,103,259.8z M101.2,217.8c0-4.4-1.2-8.4-4.7-11.4c-4.5-3.8-12-3.3-16.5,1
		c-4.3,4.1-5.5,9.2-4.6,15c0.8,4.8,3.2,8.3,7.4,10.7c1.6,0.9,3.3,1.6,4.8,2.6c1.7,1.1,3.1,0.6,4.5-0.5
		C97.6,230.6,101.1,225.1,101.2,217.8z"/>
	<path class="st0" d="M49.5,280.4c-0.3,0-0.5,0-0.8,0c-5.3,0-10.5,0-15.8,0c-0.2,0-0.4,0.1-0.6,0c-0.2-0.1-0.4-0.3-0.6-0.5
		c0.2-0.2,0.4-0.4,0.6-0.5c1.4-0.4,2.8-0.8,4.2-1.2c0.7-0.2,1-0.7,1-1.5c0.8-15.1,0.8-30.3,0.6-45.4c-0.1-7.3-0.4-14.5-0.7-21.8
		c0-0.2,0-0.4-0.1-0.8c-2.2,0.9-4.2,1.7-6.3,2.6c-0.6,0.2-1.4,0.8-1.8-0.1c-0.4-0.9,0.5-1.1,1.2-1.4c4.1-2,8.2-4.1,12.2-6.2
		c0.7-0.3,1.3-0.8,2.1-1.2c-0.2,2.3-0.3,4.5-0.4,6.6c-0.2,3.4-0.4,6.8-0.4,10.2c0,16.4,0.1,32.8,0.2,49.2c0,2.3,0.2,4.7,0.4,7
		c0.2,2.9,1,3.6,3.9,3.8C49.1,279.3,49.7,279.4,49.5,280.4z"/>
</g>
<g>
	<path class="st0" d="M67.8,187.1c-0.6-1.1,0-1.4,0.8-1.7c14-4.7,24.1-13.8,30.2-27.2c1.6-3.6,2.7-7.4,3.3-11.4
		c-1.3,1-2.4,1.9-3.6,2.7c-4.7,3.3-9.8,5.3-15.7,5c-10.1-0.4-16.8-5.9-18.6-15.8c-1.4-7.8-0.4-15.3,3.6-22.2
		c5.3-9,13.4-12.9,23.8-11.9c6.2,0.6,10.7,3.9,13.9,9.1c2.9,4.9,4.2,10.3,4.5,15.9c0.7,13.7-2.6,26.2-11.2,37.1
		C91,176.7,80.8,183.4,68.5,187C68.3,187,68.1,187.1,67.8,187.1z M103.3,136.6c-0.2-5.2-0.8-10.3-2.3-15.3c-1.2-4-2.8-7.7-5.6-10.9
		c-4.5-5.1-14.2-7.4-19.8,1.3c-0.4,0.6-0.8,1.3-1.2,2c-3.3,6.1-4.5,12.6-3.7,19.5c0.5,4.6,1.8,9,4.5,12.8c2.9,4.2,6.8,6.5,11.9,6.2
		c6.4-0.3,11.3-3.3,15-8.4c0.4-0.5,0.5-1.2,0.6-1.8C103,140.1,103.1,138.3,103.3,136.6z"/>
	<path class="st0" d="M49.1,184.7c-0.3,0-0.5,0-0.8,0c-5.3,0-10.5,0-15.8,0c-0.2,0-0.4,0.1-0.6,0c-0.2-0.1-0.4-0.3-0.6-0.5
		c0.2-0.2,0.4-0.4,0.6-0.5c1.4-0.4,2.8-0.8,4.2-1.2c0.7-0.2,1-0.7,1-1.5c0.8-15.1,0.8-30.3,0.6-45.4c-0.1-7.3-0.4-14.5-0.7-21.8
		c0-0.2,0-0.4-0.1-0.8c-2.2,0.9-4.2,1.7-6.3,2.6c-0.6,0.2-1.4,0.8-1.8-0.1c-0.4-0.9,0.5-1.1,1.2-1.4c4.1-2,8.2-4.1,12.2-6.2
		c0.7-0.3,1.3-0.8,2.1-1.2c-0.2,2.3-0.3,4.5-0.4,6.6c-0.2,3.4-0.4,6.8-0.4,10.2c0,16.4,0.1,32.8,0.2,49.2c0,2.3,0.2,4.7,0.4,7
		c0.2,2.9,1,3.6,3.9,3.8C48.8,183.6,49.3,183.6,49.1,184.7z"/>
</g>
<g>
	<path class="st0" d="M105,391.3c0.4,0.9,0,1.1-0.7,1.3c-17.6,6-28.4,18.4-33.2,36.1c-0.2,0.9-0.4,1.8-0.6,2.9
		c0.4-0.3,0.7-0.5,1-0.7c3.9-3,8.1-5.6,13.1-6.6c5-1,9.8-0.6,14.4,1.6c5.7,2.7,8.6,7.6,9.6,13.6c1.3,7.8,0.4,15.4-3.7,22.4
		c-3.7,6.2-8.9,10.3-16.2,11.7c-11.5,2.1-20.4-3.2-24-14.3c-1.5-4.7-2.1-9.5-2-14.5c0.1-8.4,1.7-16.5,5.4-24
		c5.3-10.7,13.5-18.5,23.9-24c3.9-2,8-3.5,12.1-5.2C104.4,391.4,104.7,391.4,105,391.3z M69.4,441.8c0.2,5.7,0.9,11.4,2.7,16.8
		c1.3,3.9,3.1,7.5,6.3,10.4c4.7,4.1,13.1,5,18.2-1.3c1.9-2.3,3.2-4.9,4.2-7.7c1.9-5.4,2-10.9,1.3-16.4c-0.5-3.9-1.5-7.6-3.6-11
		c-2.9-4.7-7.2-7.1-12.7-6.4c-5.7,0.6-10.4,3.4-14.4,7.4c-1,1-1.5,2.2-1.6,3.6C69.6,438.6,69.5,440.2,69.4,441.8z"/>
	<path class="st0" d="M50.2,471.7c-0.3,0-0.5,0-0.8,0c-5.3,0-10.5,0-15.8,0c-0.2,0-0.4,0.1-0.6,0c-0.2-0.1-0.4-0.3-0.7-0.5
		c0.2-0.2,0.4-0.4,0.6-0.5c1.4-0.4,2.8-0.8,4.2-1.2c0.7-0.2,1-0.7,1-1.5c0.8-15.1,0.8-30.3,0.6-45.4c-0.1-7.3-0.4-14.5-0.7-21.8
		c0-0.2,0-0.4-0.1-0.8c-2.2,0.9-4.2,1.7-6.3,2.6c-0.6,0.2-1.4,0.8-1.8-0.1c-0.4-0.9,0.5-1.1,1.2-1.4c4.1-2,8.2-4.1,12.2-6.2
		c0.7-0.3,1.3-0.8,2.1-1.2c-0.2,2.3-0.3,4.5-0.4,6.6c-0.2,3.4-0.4,6.8-0.4,10.2c0,16.4,0.1,32.8,0.2,49.2c0,2.3,0.2,4.7,0.4,7
		c0.2,2.9,1,3.6,3.9,3.8C49.8,470.5,50.4,470.6,50.2,471.7z"/>
</g>
<g>
	<path class="st0" d="M78.2,376c-2.8,0-5.8,0-8.7,0c11.8-23,21.6-47,33.1-70.4c-0.9-0.1-1.6-0.2-2.2-0.2c-6.9-0.1-13.8-0.2-20.8-0.2
		c-4.1,0-8.1,0.7-11.7,2.6c-0.1,0-0.2,0-0.7,0.1c1.5-2.6,2.9-5,4.3-7.3c0.6-1,1.5-1.4,2.7-1.3c4.5,0.2,9,0.5,13.5,0.6
		c4.8,0.1,9.7-0.1,14.6-0.2c1.8,0,3.5-0.2,5.3-0.4C96.3,324.4,85.3,349.4,78.2,376z"/>
	<path class="st0" d="M51.7,376c-0.3,0-0.5,0-0.8,0c-5.3,0-10.5,0-15.8,0c-0.2,0-0.4,0.1-0.6,0c-0.2-0.1-0.4-0.3-0.7-0.5
		c0.2-0.2,0.4-0.4,0.6-0.5c1.4-0.4,2.8-0.8,4.2-1.2c0.7-0.2,1-0.7,1-1.5c0.8-15.1,0.8-30.3,0.6-45.4c-0.1-7.3-0.4-14.5-0.7-21.8
		c0-0.2,0-0.4-0.1-0.8c-2.2,0.9-4.2,1.7-6.3,2.6c-0.6,0.2-1.4,0.8-1.8-0.1c-0.4-0.9,0.5-1.1,1.2-1.4c4.1-2,8.2-4.1,12.2-6.2
		c0.7-0.3,1.3-0.8,2.1-1.2c-0.2,2.3-0.3,4.5-0.4,6.6c-0.2,3.4-0.4,6.8-0.4,10.2c0,16.4,0.1,32.8,0.2,49.2c0,2.3,0.2,4.7,0.4,7
		c0.2,2.9,1,3.6,3.9,3.8C51.3,374.9,51.9,374.9,51.7,376z"/>
</g>
<path class="st0" d="M92.5,852.6c-0.1,0.2-0.2,0.3-0.3,0.5c-0.1,0.6-0.1,1.2-0.3,1.8c-0.6,2.4-1.2,3.2-4.3,3.2
	c-10.4,0-20.8,0-31.2,0c-0.4,0-0.7,0-1.1-0.1c-0.5-0.1-0.7-0.4-0.6-0.8c14.2-12.4,29.9-28.9,35.5-43.6c0,0,0,0,0-0.1
	c0.1-0.3,0.3-0.7,0.4-1.1c0.8-2.2,1.3-4.5,1.6-6.8c0,0,0,0,0,0c0-0.4,0.1-0.8,0.1-1.3c0-0.3,0-0.7,0-1c0-0.3,0-0.6,0-0.9
	c0-0.1,0-0.2,0-0.2c0-0.1,0-0.2,0-0.4c-0.1-1.2-0.2-2.3-0.5-3.5c-1.2-5.1-3.9-8.8-8.3-10.9c0,0-0.1,0-0.1-0.1h0
	c-0.8-0.3-1.6-0.7-2.4-0.9c-5.1-1.4-10.1-0.7-14.8,1.4l0,0c0,0-0.1,0-0.1,0.1c-0.1,0-0.2,0.1-0.3,0.1c-3.4,1.6-6.3,3.8-8.8,6.5
	c-4,3.9-7.2,8.6-9.1,13.8h3.9c3.1-8.3,9.8-17,15.8-19.2c2.7-1.1,5.1-1.3,7.8-1.1c6.7,1.9,6.7,10,6.8,14.4
	c0.4,15.2-20.6,44.8-33.9,58.8c-0.4,0.4-0.9,0.9-1.3,1.3c-0.2,0.2-0.4,0.4-0.7,0.7c15.6,0,31.1,0,46.7,0c0-2.2,0-4.4,0-6.6
	c0-1.2,0-2.5,0-3.7C92.8,853,92.6,852.8,92.5,852.6z"/>
<g>
	<path class="st0" d="M51.5,77.3c-0.1,0.2-0.2,0.3-0.3,0.5c-0.1,0.6-0.1,1.2-0.3,1.8c-0.6,2.4-1.2,3.2-4.3,3.2
		c-10.4,0-20.8,0-31.2,0c-0.4,0-0.7,0-1.1-0.1c-0.5-0.1-0.7-0.4-0.6-0.8C27.8,69.5,43.6,53,49.1,38.3c0,0,0,0,0-0.1
		c0.1-0.3,0.3-0.7,0.4-1.1c0.8-2.2,1.3-4.5,1.6-6.8c0,0,0,0,0,0c0-0.4,0.1-0.8,0.1-1.3c0-0.3,0-0.7,0-1c0-0.3,0-0.6,0-0.9
		c0-0.1,0-0.2,0-0.2c0-0.1,0-0.2,0-0.4c-0.1-1.2-0.2-2.3-0.5-3.5c-1.2-5.1-3.9-8.8-8.3-10.9c0,0-0.1,0-0.1-0.1h0
		c-0.8-0.3-1.6-0.7-2.4-0.9c-5.1-1.4-10.1-0.7-14.8,1.4l0,0c0,0-0.1,0-0.1,0.1c-0.1,0-0.2,0.1-0.3,0.1c-3.4,1.6-6.3,3.8-8.8,6.5
		c-4,3.9-7.2,8.6-9.1,13.8h3.9c3.1-8.3,9.8-17,15.8-19.2c2.7-1.1,5.1-1.3,7.8-1.1c6.7,1.9,6.7,10,6.8,14.4
		c0.4,15.2-20.6,44.8-33.9,58.8c-0.4,0.4-0.9,0.9-1.3,1.3c-0.2,0.2-0.4,0.4-0.7,0.7c15.6,0,31.1,0,46.7,0c0-2.2,0-4.4,0-6.6
		c0-1.2,0-2.5,0-3.7C51.7,77.7,51.6,77.5,51.5,77.3z"/>
	<path class="st0" d="M139.7,55.6c4-21.6-9.2-42.2-31.8-46.5C85.3,4.9,65.5,19.4,61.4,40.9c-4.1,21.7,9.2,42.2,31.8,46.5
		C115.9,91.7,135.6,77.3,139.7,55.6z M93.4,86.3C76.1,83.1,67,63.7,70.9,42.7c3.9-21,19.4-35.8,36.8-32.5s26.5,22.6,22.5,43.6
		C126.3,74.9,110.8,89.6,93.4,86.3z"/>
</g>
<g>
	<g>
		<path class="st0" d="M1121.6,825.4c3.2,0,3.2-5,0-5S1118.4,825.4,1121.6,825.4L1121.6,825.4z"/>
	</g>
</g>
</svg>
