<svg width="1920" height="1428" fill="none" xmlns="http://www.w3.org/2000/svg"><path d="M2303.85 434.979l138.86 500.774-818.81 2.205-917.715-667.963 46.831-421.976 814.324 588.885 736.51-1.925z" stroke="#F3F4EE" stroke-miterlimit="10"/><path d="M2303.85 434.979l138.86 500.774-818.81 2.205-917.715-667.963 46.831-421.976 814.324 588.885 736.51-1.925zM1222.35 919.08l138.96 500.77-818.913 2.11-917.613-667.963 46.832-421.976L485.94 921.006l736.41-1.926z" stroke="#F3F4EE" stroke-miterlimit="10"/><path d="M1222.35 919.08l138.96 500.77-818.913 2.11-917.613-667.963 46.832-421.976L485.94 921.006l736.41-1.926z" stroke="#F3F4EE" stroke-miterlimit="10"/><path d="M1222.35 919.08l1081.5-484.102 138.86 500.774L1361.3 1419.85l-138.95-500.77z" stroke="#F3F4EE" stroke-miterlimit="10"/><path d="M1222.35 919.08l1081.5-484.102 138.86 500.774L1361.3 1419.85l-138.95-500.77z" stroke="#F3F4EE" stroke-miterlimit="10"/><path d="M1361.3 1419.86l-818.904 2.1L1623.9 937.958l818.81-2.205L1361.3 1419.86z" stroke="#F3F4EE" stroke-miterlimit="10"/><path d="M1361.3 1419.86l-818.904 2.1L1623.9 937.958l818.81-2.205L1361.3 1419.86z" stroke="#F3F4EE" stroke-miterlimit="10"/><path d="M542.397 1421.96l-917.612-667.964L706.186 269.993 1623.9 937.956 542.397 1421.96z" stroke="#F3F4EE" stroke-miterlimit="10"/><path d="M542.397 1421.96l-917.612-667.964L706.186 269.993 1623.9 937.956 542.397 1421.96z" stroke="#F3F4EE" stroke-miterlimit="10"/><path d="M-375.216 753.999l46.831-421.976L753.017-151.98l-46.832 421.976-1081.401 484.003z" stroke="#F3F4EE" stroke-miterlimit="10"/><path d="M-375.216 753.999l46.831-421.976L753.017-151.98l-46.832 421.976-1081.401 484.003zM485.94 921.008l1081.4-484.103 736.51-1.926-1081.5 484.103-736.41 1.926z" stroke="#F3F4EE" stroke-miterlimit="10"/><path d="M485.94 921.008l1081.4-484.103 736.51-1.926-1081.5 484.103-736.41 1.926z" stroke="#F3F4EE" stroke-miterlimit="10"/></svg>