<svg width="28" height="28" fill="none" xmlns="http://www.w3.org/2000/svg"><path d="M23.435 4.26H6.462V.914C6.462.41 5.55 0 5.045 0S3.652.409 3.652.913v3.44A4.573 4.573 0 000 8.826v14.609A4.57 4.57 0 004.565 28h18.87A4.57 4.57 0 0028 23.435V8.826a4.57 4.57 0 00-4.565-4.565zM1.826 20.696h13.483c.138.675.425 1.295.824 1.826H1.826v-1.826zm15.217-.914a2.742 2.742 0 012.74-2.738c1.51 0 2.739 1.23 2.739 2.74a2.743 2.743 0 01-2.74 2.739 2.742 2.742 0 01-2.739-2.738v-.003zm9.131 2.741h-2.741c.4-.531.686-1.152.823-1.826h1.918v1.826zm-1.29-7.305H3.116V9.504a2.452 2.452 0 012.449-2.45h16.869a2.452 2.452 0 012.449 2.45v5.713z" fill="#C3C1BB"/><path d="M21.671 9.493H6.328a1.75 1.75 0 00-1.75 1.75v.24c0 .965.784 1.75 1.75 1.75h15.343a1.75 1.75 0 001.75-1.75v-.24a1.75 1.75 0 00-1.75-1.75zM9.948 12.378H7.52v-2.031h2.43v2.03zm5.266 0h-2.429v-2.031h2.43v2.03zm5.266 0h-2.43v-2.031h2.43v2.03z" fill="#C3C1BB"/></svg>