<svg width="28" height="27" fill="none" xmlns="http://www.w3.org/2000/svg"><g clip-path="url(#clip0)"><path d="M27.052 19.828c.08-.379.148-.839.204-1.358a.09.09 0 01.013-.002c.03-.305.035-.636.08-.95h-.005c.197-2.55.202-6.039.123-8.795l-.092-2.295c-.06-1.138-.164-2.624-.324-3.435L27.968.64c.144-.373-.227-.756-.59-.607l-2.294.944c-1.66-.331-5.208-.508-9.563-.474-2.64.02-5.122.117-6.855.256a.654.654 0 01-.101.01h-.026L8.44.776l.001-.005a5.777 5.777 0 00-.788.077.767.767 0 01-.135.01l-.002.01c-.287.035-.533.07-.73.108L4.492.033c-.362-.15-.734.233-.59.606l.916 2.353a13.65 13.65 0 00-.193 1.262c-.73.062-1.316.13-1.708.205L.622 3.515c-.363-.149-.735.233-.59.606l.915 2.353C.483 8.681.473 13.37.49 15.316c.033 3.543.219 6.766.458 7.992l-.916 2.355c-.145.373.227.755.59.606l2.293-.943c1.66.33 5.208.508 9.563.474 3.873-.03 7.405-.223 8.735-.474l2.295.943c.363.15.734-.233.59-.606l-.916-2.353c.077-.36.14-.79.194-1.26a17.709 17.709 0 001.708-.207l2.294.944c.364.15.735-.234.59-.606l-.916-2.353zm-1.55-16.05l.386 5.202c.106 3.723.027 8.279-.387 10.066a.438.438 0 00.018.257l.526 1.35-1.314-.54a.398.398 0 00-.24-.02c-.295.064-.788.127-1.433.185.169-2.117.17-4.765.158-6.068-.03-3.24-.2-6.186-.419-7.308l.838-2.153c.133-.34-.208-.691-.539-.554L21 5.057c-1.518-.303-4.762-.465-8.743-.434-2.085.017-4.06.084-5.582.184.05-.413.107-.758.17-1.028a.437.437 0 00-.019-.258L6.3 2.171l1.313.54c.077.031.16.039.24.02 2.242-.49 13.476-.691 16.638 0a.41.41 0 00.24-.02l1.313-.54-.525 1.35a.435.435 0 00-.018.257z" fill="#C3C1BB"/></g><defs><clipPath id="clip0"><path fill="#fff" d="M0 0h28v26.303H0z"/></clipPath></defs></svg>