<svg width="70" height="59" fill="none" xmlns="http://www.w3.org/2000/svg"><g clip-path="url(#clip0)"><path d="M38.078 6.21V4.348h1.842a.62.62 0 00.614-.62.62.62 0 00-.614-.622h-1.842V1.242a.62.62 0 00-.615-.62.62.62 0 00-.614.62v1.863h-1.842a.62.62 0 00-.614.621.62.62 0 00.614.621h1.842v1.864a.62.62 0 00.614.62.62.62 0 00.615-.62z" fill="#EFEDEB"/><path d="M59.542 33.66c-2.856.529-5.543 1.367-6.94 2.78-3.823 3.882-3.823 10.17 0 14.067a9.708 9.708 0 006.94 2.903 9.682 9.682 0 006.94-2.903c3.823-3.882 2.871-16.97 2.871-16.97s-4.867-.761-9.811.124zm6.174-24.965c0-2.05-1.658-3.726-3.685-3.726s-3.685 1.677-3.685 3.726c0 2.05 1.658 3.726 3.685 3.726s3.685-1.676 3.685-3.726zm-4.914 0a1.24 1.24 0 011.229-1.242c.675 0 1.228.559 1.228 1.242 0 .683-.553 1.242-1.228 1.242a1.239 1.239 0 01-1.229-1.242zM7.984 0C5.957 0 4.299 1.677 4.299 3.726c0 2.05 1.658 3.727 3.685 3.727s3.685-1.677 3.685-3.727S10.01 0 7.984 0zm0 4.968a1.239 1.239 0 01-1.228-1.242c0-.683.552-1.242 1.228-1.242.675 0 1.228.56 1.228 1.242 0 .683-.553 1.242-1.228 1.242z" fill="#1C4A40"/><path d="M10.44 27.947a.62.62 0 00-.614.621v19.874a.62.62 0 00.614.621.62.62 0 00.615-.621V28.568a.62.62 0 00-.615-.62zm9.828 0a.62.62 0 00-.614.621v19.874a.62.62 0 00.614.621.62.62 0 00.615-.621V28.568a.62.62 0 00-.614-.62zm9.827 0a.62.62 0 00-.614.621v19.874a.62.62 0 00.614.621.62.62 0 00.614-.621V28.568a.62.62 0 00-.614-.62zm10.44 20.495V28.568a.62.62 0 00-.614-.62.62.62 0 00-.614.62v19.874a.62.62 0 00.614.621.62.62 0 00.614-.621z" fill="#EFEDEB"/><path d="M66.33 41.16l.215-.186c2.825-2.407 3.977-8.462 3.24-17.063-.015-.156-.015-.264-.03-.342-.031-.528-.231-.559-.323-.575-.046 0-4.484-.698-9.29.016l-.306.047L45.234 8.276a.59.59 0 00-.66-.14.611.611 0 00-.37.574v13.4L30.525 8.26a.636.636 0 00-.675-.14.625.625 0 00-.384.575v13.399L15.8 8.244a.643.643 0 00-.676-.14.664.664 0 00-.384.59v13.4L1.09 8.26a.61.61 0 00-.676-.14.61.61 0 00-.414.575v49.684c0 .326.307.621.66.621h58.868c.354 0 .645-.295.645-.621V44.126l.492-.093c2.917-.59 5.036-2.314 5.65-2.857v-.016h.015zM19.653 57.758h-8.598v-3.726h8.598v3.726zm19.654 0h-8.599v-3.726h8.599v3.726zm19.653 0H40.535V53.41a.62.62 0 00-.614-.622h-9.827a.62.62 0 00-.614.622v4.347h-8.598V53.41c0-.342-.261-.622-.584-.622h-9.826c-.354 0-.645.295-.645.622v4.347H1.228V10.2l13.696 13.834a.62.62 0 00.66.14.625.625 0 00.384-.575V10.2L29.65 24.05a.637.637 0 00.676.14.625.625 0 00.384-.574V10.2l13.665 13.85a.64.64 0 00.675.14.64.64 0 00.4-.575V10.2l12.928 13.104-1.044.264c-2.442.637-4.146 1.444-5.175 2.5-3.746 3.804-4.084 9.843-.767 14.051l.337.435-3.04 3.09a.623.623 0 000 .884.674.674 0 00.43.187.555.555 0 00.43-.187l3.071-3.074.43.342c1.459 1.18 2.917 2.003 5.358 2.236l.553.046v13.679zm7.079-17.622a9.074 9.074 0 01-6.51 2.717c-1.997 0-3.9-.637-5.513-1.864l-.568-.434 2.641-2.686h7.109a.62.62 0 00.614-.621.62.62 0 00-.614-.621h-5.88l6.11-6.18a.616.616 0 10-.86-.885l-6.064 6.21v-5.961a.62.62 0 00-.615-.622.62.62 0 00-.614.622v7.204l-2.656 2.67-.43-.574c-2.718-3.695-2.35-8.912.844-12.157 1.121-1.134 3.348-2.019 6.603-2.609 1.55-.28 3.255-.419 5.067-.419 1.504 0 2.748.093 3.531.17l.522.047.031.544c.092 2.018.384 12.266-2.748 15.449z" fill="#EFEDEB"/></g><defs><clipPath id="clip0"><path fill="#fff" d="M0 0h70v59H0z"/></clipPath></defs></svg>