<svg width="63" height="65" fill="none" xmlns="http://www.w3.org/2000/svg"><g clip-path="url(#clip0)"><path d="M60.162 44.087a.568.568 0 00-.568-.565h-1.702v-1.696a.568.568 0 00-1.135 0v1.696h-1.703a.568.568 0 00-.568.565c0 .31.256.565.568.565h1.703v1.696a.568.568 0 001.135 0v-1.696h1.702a.568.568 0 00.568-.565zM5.676 30.521a.568.568 0 00-.568-.565H3.405v-1.695a.568.568 0 00-1.135 0v1.695H.568a.568.568 0 00-.568.565c0 .311.255.566.568.566H2.27v1.695a.568.568 0 001.135 0v-1.695h1.703a.568.568 0 00.568-.566z" fill="#EFEDEB"/><path d="M39.163 18.362h11.351a2.272 2.272 0 002.27-2.261 2.272 2.272 0 00-2.27-2.26h-6.81V9.317H16.46v4.522H9.65A2.272 2.272 0 007.379 16.1a2.272 2.272 0 002.27 2.26H21v4.523h4.541v-4.522h9.081v4.522h4.54v-4.522zM8.514 52.275c0-1.865-1.532-3.391-3.405-3.391-1.873 0-3.406 1.526-3.406 3.391s1.533 3.391 3.406 3.391c1.873 0 3.405-1.526 3.405-3.39zm-4.54 0a1.136 1.136 0 012.27 0 1.136 1.136 0 01-2.27 0zM59.595-.855c-1.873 0-3.405 1.526-3.405 3.39 0 1.866 1.532 3.392 3.405 3.392C61.468 5.927 63 4.401 63 2.536S61.468-.855 59.595-.855zm0 4.521a1.136 1.136 0 01-1.135-1.13 1.136 1.136 0 012.27 0c0 .622-.51 1.13-1.135 1.13z" fill="#1C4A40"/><path d="M53.351 12.435a2.84 2.84 0 00-2.838-2.826H44.27V5.652a.568.568 0 00-.568-.565H35.19V3.392A2.84 2.84 0 0032.35.565h-4.54a2.84 2.84 0 00-2.838 2.827v1.695h-8.514a.568.568 0 00-.567.565V9.61H9.648a2.84 2.84 0 00-2.837 2.826 2.84 2.84 0 002.837 2.826h1.746l4.114 45.119c.242 2.642 2.427 4.62 5.094 4.62h23.1c2.824 0 5.108-2.275 5.108-5.087a5.085 5.085 0 00-3.277-4.733l-.398-.156 3.633-39.763h1.745a2.84 2.84 0 002.838-2.826zM26.108 3.392c0-.933.766-1.696 1.703-1.696h4.54c.937 0 1.703.763 1.703 1.696v1.695h-7.946V3.392zm-9.081 2.826h26.108v3.39H17.027v-3.39zm28.548 50.22l.043.027c.057.029.128.071.184.1.128.084.242.169.341.24l.057.042c.056.056.127.099.184.155.085.085.185.17.27.269.07.085.142.17.213.268.056.085.142.184.198.297.071.127.142.24.185.34l.028.056c.043.07.085.155.114.254.056.156.099.297.141.424 0 .028.015.042.015.07.014.057.042.128.056.213.043.254.071.508.071.748 0 2.177-1.787 3.957-3.973 3.957-.27 0-.553-.028-.822-.085a2.812 2.812 0 01-.667-.212c-.071-.028-.142-.056-.185-.084-.014-.015-.042-.015-.057-.029a2.589 2.589 0 01-.383-.212c-.085-.056-.156-.113-.227-.155l-.028-.028a4.015 4.015 0 01-.312-.255c-.086-.07-.156-.155-.227-.226l-.256-.297c-.056-.084-.127-.17-.184-.268-.085-.127-.142-.254-.199-.353l-.028-.057c-.029-.07-.071-.141-.114-.24-.056-.141-.1-.297-.142-.438 0-.028-.014-.043-.014-.057-.014-.056-.042-.127-.042-.183a3.426 3.426 0 01-.071-.75c0-2.175 1.788-3.956 3.973-3.956.425 0 .837.07 1.29.226h.015c.043.015.071.015.114.029.156.028.312.099.44.17zm-1.56-1.626l-.497.028c-.156 0-.326.029-.525.071h-.028a5.062 5.062 0 00-4.3 4.395v.042a2.817 2.817 0 00-.056.565c0 .297.028.608.099.947.014.056.028.113.042.155a.411.411 0 01.029.128c.056.226.113.423.184.607l.128.297c.085.184.184.353.298.537l.042.056c.043.071.086.128.128.184.029.043.043.07.071.113 0 .014.014.028.014.028l.61.89-1.092.015h-18.56a3.951 3.951 0 01-3.958-3.603L12.543 15.26h7.89v3.957c0 .31.255.565.567.565h4.54a.568.568 0 00.568-.565V15.26h7.946v3.957c0 .31.255.565.567.565h4.54a.568.568 0 00.569-.565V15.26h7.889l-3.604 39.551zm-22.448-36.16v-3.39h3.406v3.39h-3.406zm13.622 0v-3.39h3.405v3.39H35.19zm-25.54-4.521a1.704 1.704 0 01-1.703-1.696c0-.933.766-1.696 1.702-1.696h40.865c.937 0 1.703.763 1.703 1.696 0 .933-.766 1.696-1.703 1.696H9.648z" fill="#EFEDEB"/></g><defs><clipPath id="clip0"><path fill="#fff" d="M0 0h63v65H0z"/></clipPath></defs></svg>