<svg width="68" height="70" fill="none" xmlns="http://www.w3.org/2000/svg"><path d="M64.937 57.105a.615.615 0 00-.613-.614h-1.838V54.65a.615.615 0 00-.612-.614.615.615 0 00-.613.614v1.842h-1.838a.615.615 0 000 1.228h1.838v1.843c0 .337.276.614.613.614a.615.615 0 00.612-.614V57.72h1.838a.615.615 0 00.613-.614zM6.126 5.526a.615.615 0 00-.612-.614H3.676V3.07a.615.615 0 00-.613-.614.615.615 0 00-.613.614v1.842H.613a.615.615 0 000 1.228H2.45v1.842c0 .338.276.614.613.614a.615.615 0 00.613-.614V6.14h1.838a.615.615 0 00.612-.614z" fill="#EFEDEB"/><path d="M34.919 15.35S25.117 29.58 25.117 35c0 5.419 4.396 9.824 9.802 9.824S44.721 40.42 44.721 35s-9.802-19.65-9.802-19.65zM10.414 55.877a3.69 3.69 0 003.676-3.684 3.69 3.69 0 00-3.676-3.684 3.69 3.69 0 00-3.676 3.684 3.69 3.69 0 003.676 3.684zm0-4.912a1.23 1.23 0 011.225 1.228 1.23 1.23 0 01-1.225 1.228 1.23 1.23 0 01-1.225-1.228 1.23 1.23 0 011.225-1.228zm53.91-39.299A3.69 3.69 0 0068 7.982a3.69 3.69 0 00-3.676-3.684c-2.021 0-3.676 1.658-3.676 3.684a3.69 3.69 0 003.676 3.684zm0-4.912a1.23 1.23 0 011.225 1.228 1.23 1.23 0 01-1.225 1.228A1.23 1.23 0 0163.1 7.982a1.23 1.23 0 011.225-1.228z" fill="#1C4A40"/><path d="M45.335 30.088c0-4.437-6.234-14.66-9.91-20.002-.106-.154-.29-.23-.505-.23a.635.635 0 00-.505.23c-3.676 5.342-9.91 15.565-9.91 20.002 0 5.327 3.983 9.778 9.251 10.377l.552.061v9.211c0 .338.275.614.612.614a.615.615 0 00.613-.614v-9.226l.551-.061c5.269-.584 9.25-5.035 9.25-10.362zm-9.098 9.103l-.704.107v-8.95l4.717-4.727a.613.613 0 000-.875.638.638 0 00-.873 0l-3.844 3.853v-3.423a.615.615 0 00-.613-.614.615.615 0 00-.612.614v8.335l-3.86-3.868a.638.638 0 00-.873 0 .613.613 0 000 .875l4.717 4.728v4.052l-.704-.107c-4.488-.645-7.872-4.56-7.872-9.103 0-4.298 6.647-14.706 8.684-17.792l.505-.767.505.767c2.053 3.086 8.7 13.494 8.7 17.792 0 4.544-3.385 8.458-7.873 9.103z" fill="#fff"/><path d="M27.569 60.175H42.27a3.076 3.076 0 003.063-3.07v-6.508c0-1.49.812-2.84 2.175-3.639 7.78-4.513 12.574-12.91 12.528-21.92C59.976 11.942 49.317.72 36.283.03A39.46 39.46 0 0034.95 0c-6.509 0-12.604 2.425-17.32 6.908-5.04 4.805-7.827 11.282-7.827 18.267 0 8.935 4.778 17.27 12.497 21.768 1.378.814 2.205 2.195 2.205 3.715v6.447a3.076 3.076 0 003.064 3.07zm-4.656-14.291c-7.336-4.283-11.885-12.22-11.885-20.709 0-6.631 2.65-12.802 7.443-17.377a23.754 23.754 0 0116.433-6.57c.414 0 .858.015 1.302.03 12.406.66 22.544 11.33 22.606 23.795.046 8.565-4.518 16.548-11.916 20.846-1.715.998-2.787 2.794-2.787 4.697v6.51a1.845 1.845 0 01-1.838 1.841H27.568a1.845 1.845 0 01-1.837-1.842v-6.447c0-1.965-1.057-3.746-2.818-4.774zM42.272 63.86H27.569a3.076 3.076 0 00-3.063 3.07A3.076 3.076 0 0027.569 70h14.703a3.076 3.076 0 003.063-3.07 3.076 3.076 0 00-3.063-3.07zm0 4.912H27.569a1.845 1.845 0 01-1.838-1.842c0-1.014.827-1.843 1.838-1.843h14.703c1.01 0 1.837.83 1.837 1.843a1.845 1.845 0 01-1.837 1.842z" fill="#fff"/></svg>