<svg width="74" height="70" fill="none" xmlns="http://www.w3.org/2000/svg"><g clip-path="url(#clip0)"><path d="M5.776 38.683H4.06v-1.71a.771.771 0 00-.78-.777.771.771 0 00-.781.777v1.71H.78a.771.771 0 00-.78.777.77.77 0 00.78.777h1.718v1.71a.77.77 0 00.78.777.771.771 0 00.781-.777v-1.71h1.717a.771.771 0 00.781-.777.771.771 0 00-.78-.777zm67.444 7.46h-1.718v-1.71a.771.771 0 00-.78-.777.771.771 0 00-.78.777v1.71h-1.718a.771.771 0 00-.78.777.77.77 0 00.78.777h1.717v1.71c0 .435.344.777.78.777a.771.771 0 00.781-.777v-1.71h1.718a.77.77 0 00.78-.777.771.771 0 00-.78-.777z" fill="#fff"/><path d="M32.005 29.514H12.02v29.84h19.984v-29.84zM70.722 5.89c0-2.051-1.686-3.73-3.747-3.73-2.06 0-3.746 1.679-3.746 3.73 0 2.052 1.686 3.73 3.746 3.73 2.061 0 3.747-1.678 3.747-3.73zm-4.996 0a1.25 1.25 0 012.498 0 1.25 1.25 0 01-2.498 0z" fill="#1C4A40"/><path d="M41.995 55.08h9.992c.39 0 .703-.31.703-.7V24.54c0-5.874-4.793-10.645-10.694-10.645-.39 0-.703.31-.703.699V54.38c0 .373.312.7.703.7zm.703-39.787l.624.094c4.543.652 7.962 4.584 7.962 9.154v29.14h-8.586V15.293z" fill="#fff"/><path d="M62.682 24.54c0-11.36-9.274-20.592-20.686-20.592H22.31L19.28.933A3.185 3.185 0 0017.018 0c-.827 0-1.639.31-2.263.933L8.29 7.367a3.18 3.18 0 000 4.507l3.029 3.015v49.438c0 3.124 2.56 5.673 5.698 5.673h39.967c3.137 0 5.698-2.549 5.698-5.673V24.54zM9.289 10.88a1.786 1.786 0 010-2.534l6.464-6.434c.328-.327.78-.513 1.264-.513s.937.186 1.265.528l2.732 2.72-8.993 8.952-2.732-2.72zm3.435 14.36h18.578v28.44H12.724V25.24zm48.553 39.087c0 2.363-1.92 4.274-4.294 4.274H17.017a4.28 4.28 0 01-4.293-4.274V55.08h19.28c.39 0 .703-.31.703-.7V24.54a.698.698 0 00-.702-.699H12.724v-8.968l9.586-9.542h19.686c10.632 0 19.28 8.61 19.28 19.194v39.802z" fill="#fff"/></g><defs><clipPath id="clip0"><path fill="#fff" d="M0 0h74v70H0z"/></clipPath></defs></svg>