<svg width="24" height="27" fill="none" xmlns="http://www.w3.org/2000/svg"><path d="M20.233 8.588h-2.49V6.06a6.061 6.061 0 00-12.121 0v2.528H2.759c-.557 0-1.04.446-1.115 1.004L.008 25.765c-.074.594.372 1.152 1.004 1.226h20.894c.632 0 1.116-.483 1.116-1.115v-.111L21.349 9.592c-.038-.558-.521-1.004-1.116-1.004zm-4.759 0H7.816V6.06c0-2.12 1.71-3.83 3.829-3.83 2.12 0 3.83 1.71 3.83 3.83v2.528z" fill="#84B5AA"/><path d="M16.818 15.827L14.986 14l-3.59 3.618-2.564-2.558L7 16.85l4.396 4.35 5.422-5.373z" fill="#13322B"/></svg>