<svg width="25" height="26" fill="none" xmlns="http://www.w3.org/2000/svg"><path d="M21.228.364l-1.793 1.777C17.342.838 15.01.127 12.5.127 6.043.127.662 4.983.005 11.26A1.187 1.187 0 001.2 12.563h2.451c.598 0 1.077-.474 1.196-1.066.538-3.73 3.767-6.632 7.712-6.632 1.196 0 2.332.296 3.408.77l-1.375 1.362c-.777.77-.239 2.013.837 2.013h6.696c.658 0 1.196-.533 1.196-1.184V1.193C23.26.127 21.946-.406 21.228.364zM23.8 12.443h-2.452c-.598 0-1.076.474-1.196 1.066-.478 3.731-3.707 6.633-7.652 6.633-1.196 0-2.332-.296-3.408-.77l1.375-1.362c.777-.77.24-2.014-.837-2.014H2.934c-.658 0-1.196.533-1.196 1.185v6.632c0 1.066 1.316 1.6 2.033.83l1.794-1.777c2.032 1.303 4.424 2.073 6.875 2.073 6.457 0 11.837-4.916 12.495-11.134.12-.77-.418-1.362-1.136-1.362z" fill="#84B5AA"/></svg>